a1000-p0300.ufo
<glyph name="parenright" format="1">
  <advance width="308"/>
  <unicode hex="0029"/>
  <outline>
    <contour>
      <point x="104" y="-160" type="line"/>
      <point x="206" y="-13"/>
      <point x="260" y="169"/>
      <point x="260" y="354" type="curve" smooth="yes"/>
      <point x="260" y="540"/>
      <point x="206" y="721"/>
      <point x="104" y="868" type="curve"/>
      <point x="20" y="868" type="line"/>
      <point x="20" y="864" type="line"/>
      <point x="123" y="719"/>
      <point x="182" y="540"/>
      <point x="182" y="354" type="curve" smooth="yes"/>
      <point x="182" y="167"/>
      <point x="123" y="-11"/>
      <point x="20" y="-156" type="curve"/>
      <point x="20" y="-160" type="line"/>
    </contour>
  </outline>
</glyph>
<glyph name="asterisk" format="1">
  <advance width="502"/>
  <unicode hex="002A"/>
  <outline>
    <contour>
      <point x="246" y="620" type="line"/>
      <point x="257" y="620" type="line"/>
      <point x="261" y="625" type="line"/>
      <point x="281" y="749" type="line"/>
      <point x="281" y="829" type="line"/>
      <point x="222" y="829" type="line"/>
      <point x="222" y="749" type="line"/>
      <point x="241" y="625" type="line"/>
    </contour>
    <contour>
      <point x="249" y="616" type="line"/>
      <point x="255" y="635" type="line"/>
      <point x="144" y="691" type="line"/>
      <point x="67" y="715" type="line"/>
      <point x="49" y="659" type="line"/>
      <point x="125" y="635" type="line"/>
    </contour>
    <contour>
      <point x="155" y="444" type="line"/>
      <point x="202" y="509" type="line"/>
      <point x="259" y="621" type="line"/>
      <point x="243" y="632" type="line"/>
      <point x="155" y="544" type="line"/>
      <point x="108" y="478" type="line"/>
    </contour>
    <contour>
      <point x="347" y="444" type="line"/>
      <point x="395" y="478" type="line"/>
      <point x="347" y="544" type="line"/>
      <point x="260" y="632" type="line"/>
      <point x="244" y="621" type="line"/>
      <point x="300" y="509" type="line"/>
    </contour>
    <contour>
      <point x="453" y="659" type="line"/>
      <point x="435" y="715" type="line"/>
      <point x="358" y="691" type="line"/>
      <point x="247" y="635" type="line"/>
      <point x="253" y="616" type="line"/>
      <point x="377" y="635" type="line"/>
    </contour>
  </outline>
</glyph>
<glyph name="plus" format="1">
  <advance width="494"/>
  <unicode hex="002B"/>
  <outline>
    <contour>
      <point x="49" y="338" type="line"/>
      <point x="446" y="338" type="line"/>
      <point x="446" y="402" type="line"/>
      <point x="49" y="402" type="line"/>
    </contour>
    <contour>
      <point x="215" y="169" type="line"/>
      <point x="279" y="169" type="line"/>
      <point x="279" y="571" type="line"/>
      <point x="215" y="571" type="line"/>
    </contour>
  </outline>
</glyph>
<glyph name="period" format="1">
  <advance width="248"/>
  <unicode hex="002E"/>
  <outline>
    <contour>
      <point x="124" y="-4" type="curve" smooth="yes"/>
      <point x="160" y="-4"/>
      <point x="184" y="16"/>
      <point x="184" y="53" type="curve" smooth="yes"/>
      <point x="184" y="90"/>
      <point x="160" y="109"/>
      <point x="124" y="109" type="curve" smooth="yes"/>
      <point x="88" y="109"/>
      <point x="65" y="91"/>
      <point x="65" y="53" type="curve" smooth="yes"/>
      <point x="65" y="16"/>
      <point x="88" y="-4"/>
    </contour>
  </outline>
</glyph>
<glyph name="zero" format="1">
  <advance width="704"/>
  <unicode hex="0030"/>
  <outline>
    <contour>
      <point x="352" y="-11" type="curve" smooth="yes"/>
      <point x="542" y="-11"/>
      <point x="646" y="118"/>
      <point x="646" y="369" type="curve" smooth="yes"/>
      <point x="646" y="621"/>
      <point x="542" y="750"/>
      <point x="352" y="750" type="curve" smooth="yes"/>
      <point x="162" y="750"/>
      <point x="58" y="621"/>
      <point x="58" y="369" type="curve" smooth="yes"/>
      <point x="58" y="118"/>
      <point x="162" y="-11"/>
    </contour>
    <contour>
      <point x="352" y="67" type="curve" smooth="yes"/>
      <point x="218" y="67"/>
      <point x="151" y="163"/>
      <point x="151" y="369" type="curve" smooth="yes"/>
      <point x="151" y="576"/>
      <point x="218" y="671"/>
      <point x="352" y="671" type="curve" smooth="yes"/>
      <point x="485" y="671"/>
      <point x="552" y="576"/>
      <point x="552" y="369" type="curve" smooth="yes"/>
      <point x="552" y="163"/>
      <point x="485" y="67"/>
    </contour>
  </outline>
</glyph>
<glyph name="one" format="1">
  <advance width="430"/>
  <unicode hex="0031"/>
  <outline>
    <contour>
      <point x="234" y="0" type="line"/>
      <point x="328" y="0" type="line"/>
      <point x="328" y="740" type="line"/>
      <point x="256" y="740" type="line"/>
      <point x="24" y="611" type="line"/>
      <point x="24" y="607" type="line"/>
      <point x="35" y="549" type="line"/>
      <point x="42" y="549" type="line"/>
      <point x="230" y="633" type="line"/>
      <point x="234" y="633" type="line"/>
    </contour>
  </outline>
</glyph>
<glyph name="three" format="1">
  <advance width="565"/>
  <unicode hex="0033"/>
  <outline>
    <contour>
      <point x="226" y="-11" type="curve" smooth="yes"/>
      <point x="410" y="-11"/>
      <point x="509" y="64"/>
      <point x="509" y="204" type="curve" smooth="yes"/>
      <point x="509" y="294"/>
      <point x="457" y="358"/>
      <point x="370" y="376" type="curve"/>
      <point x="370" y="382" type="line"/>
      <point x="446" y="405"/>
      <point x="489" y="464"/>
      <point x="489" y="547" type="curve" smooth="yes"/>
      <point x="489" y="678"/>
      <point x="397" y="750"/>
      <point x="229" y="750" type="curve" smooth="yes"/>
      <point x="177" y="750"/>
      <point x="106" y="743"/>
      <point x="59" y="734" type="curve"/>
      <point x="59" y="659" type="line"/>
      <point x="63" y="659" type="line"/>
      <point x="123" y="667"/>
      <point x="182" y="673"/>
      <point x="218" y="673" type="curve" smooth="yes"/>
      <point x="337" y="673"/>
      <point x="391" y="630"/>
      <point x="391" y="541" type="curve" smooth="yes"/>
      <point x="391" y="453"/>
      <point x="341" y="411"/>
      <point x="226" y="411" type="curve" smooth="yes"/>
      <point x="146" y="411" type="line"/>
      <point x="146" y="339" type="line"/>
      <point x="227" y="339" type="line" smooth="yes"/>
      <point x="356" y="339"/>
      <point x="411" y="299"/>
      <point x="411" y="211" type="curve" smooth="yes"/>
      <point x="411" y="114"/>
      <point x="348" y="65"/>
      <point x="213" y="65" type="curve" smooth="yes"/>
      <point x="171" y="65"/>
      <point x="97" y="72"/>
      <point x="63" y="79" type="curve"/>
      <point x="59" y="79" type="line"/>
      <point x="59" y="4" type="line"/>
      <point x="102" y="-5"/>
      <point x="169" y="-11"/>
    </contour>
  </outline>
</glyph>
<glyph name="four" format="1">
  <advance width="643"/>
  <unicode hex="0034"/>
  <outline>
    <contour>
      <point x="43" y="172" type="line"/>
      <point x="613" y="172" type="line"/>
      <point x="613" y="248" type="line"/>
      <point x="127" y="248" type="line"/>
      <point x="127" y="252" type="line"/>
      <point x="368" y="727" type="line"/>
      <point x="365" y="737" type="line"/>
      <point x="278" y="750" type="line"/>
      <point x="274" y="750" type="line"/>
      <point x="25" y="234" type="line"/>
      <point x="25" y="227" type="line"/>
    </contour>
    <contour>
      <point x="398" y="0" type="line"/>
      <point x="490" y="0" type="line"/>
      <point x="490" y="486" type="line"/>
      <point x="426" y="486" type="line"/>
      <point x="398" y="227" type="line"/>
    </contour>
  </outline>
</glyph>
<glyph name="seven" format="1">
  <advance width="531"/>
  <unicode hex="0037"/>
  <outline>
    <contour>
      <point x="205" y="-15" type="line"/>
      <point x="126" y="0" type="line"/>
      <point x="126" y="14" type="line"/>
      <point x="419" y="680" type="line"/>
      <point x="438" y="657" type="line"/>
      <point x="32" y="657" type="line"/>
      <point x="25" y="732" type="line"/>
      <point x="31" y="740" type="line"/>
      <point x="493" y="740" type="line"/>
      <point x="511" y="691" type="line"/>
      <point x="511" y="668" type="line"/>
      <point x="229" y="-1" type="line"/>
    </contour>
  </outline>
</glyph>
<glyph name="B" format="1">
  <advance width="702"/>
  <unicode hex="0042"/>
  <outline>
    <contour>
      <point x="351" y="-10" type="curve" smooth="yes"/>
      <point x="552" y="-10"/>
      <point x="652" y="57"/>
      <point x="652" y="195" type="curve" smooth="yes"/>
      <point x="652" y="293"/>
      <point x="598" y="355"/>
      <point x="496" y="375" type="curve"/>
      <point x="496" y="379" type="line"/>
      <point x="577" y="396"/>
      <point x="627" y="462"/>
      <point x="627" y="549" type="curve" smooth="yes"/>
      <point x="627" y="691"/>
      <point x="544" y="749"/>
      <point x="337" y="749" type="curve" smooth="yes"/>
      <point x="266" y="749"/>
      <point x="193" y="744"/>
      <point x="94" y="735" type="curve"/>
      <point x="94" y="5" type="line"/>
      <point x="191" y="-5"/>
      <point x="272" y="-10"/>
    </contour>
    <contour>
      <point x="346" y="62" type="curve" smooth="yes"/>
      <point x="266" y="62"/>
      <point x="220" y="64"/>
      <point x="185" y="71" type="curve"/>
      <point x="185" y="342" type="line"/>
      <point x="368" y="342" type="line" smooth="yes"/>
      <point x="496" y="342"/>
      <point x="558" y="296"/>
      <point x="558" y="202" type="curve" smooth="yes"/>
      <point x="558" y="106"/>
      <point x="491" y="62"/>
    </contour>
    <contour>
      <point x="185" y="409" type="line"/>
      <point x="185" y="669" type="line"/>
      <point x="226" y="675"/>
      <point x="274" y="677"/>
      <point x="340" y="677" type="curve" smooth="yes"/>
      <point x="482" y="677"/>
      <point x="534" y="642"/>
      <point x="534" y="544" type="curve" smooth="yes"/>
      <point x="534" y="447"/>
      <point x="485" y="409"/>
      <point x="361" y="409" type="curve" smooth="yes"/>
    </contour>
  </outline>
</glyph>
<glyph name="D" format="1">
  <advance width="777"/>
  <unicode hex="0044"/>
  <outline>
    <contour>
      <point x="351" y="798" type="move" name="topUC"/>
    </contour>
    <contour>
      <point x="366" y="-33" type="move" name="bottom"/>
    </contour>
    <contour>
      <point x="302" y="-9" type="curve" smooth="yes"/>
      <point x="596" y="-9"/>
      <point x="723" y="107"/>
      <point x="723" y="370" type="curve" smooth="yes"/>
      <point x="723" y="631"/>
      <point x="597" y="749"/>
      <point x="319" y="749" type="curve" smooth="yes"/>
      <point x="265" y="749"/>
      <point x="164" y="744"/>
      <point x="94" y="739" type="curve"/>
      <point x="94" y="7" type="line"/>
      <point x="127" y="-3"/>
      <point x="212" y="-9"/>
    </contour>
    <contour>
      <point x="331" y="69" type="curve" smooth="yes"/>
      <point x="279" y="69"/>
      <point x="242" y="72"/>
      <point x="188" y="80" type="curve"/>
      <point x="188" y="662" type="line"/>
      <point x="233" y="666"/>
      <point x="293" y="669"/>
      <point x="329" y="669" type="curve" smooth="yes"/>
      <point x="537" y="669"/>
      <point x="627" y="579"/>
      <point x="627" y="370" type="curve" smooth="yes"/>
      <point x="627" y="160"/>
      <point x="537" y="69"/>
    </contour>
  </outline>
</glyph>
<glyph name="F" format="1">
  <advance width="627"/>
  <unicode hex="0046"/>
  <outline>
    <contour>
      <point x="94" y="0" type="line"/>
      <point x="188" y="0" type="line"/>
      <point x="188" y="663" type="line"/>
      <point x="592" y="663" type="line"/>
      <point x="592" y="740" type="line"/>
      <point x="94" y="740" type="line"/>
    </contour>
    <contour>
      <point x="143" y="328" type="line"/>
      <point x="554" y="328" type="line"/>
      <point x="554" y="405" type="line"/>
      <point x="143" y="405" type="line"/>
    </contour>
  </outline>
</glyph>
<glyph name="G" format="1">
  <advance width="698"/>
  <unicode hex="0047"/>
  <outline>
    <contour>
      <point x="376" y="798" type="move" name="topUC"/>
    </contour>
    <contour>
      <point x="379" y="-33" type="move" name="bottom"/>
    </contour>
    <contour>
      <point x="410" y="-9" type="curve" smooth="yes"/>
      <point x="470" y="-9"/>
      <point x="565" y="6"/>
      <point x="631" y="28" type="curve"/>
      <point x="581" y="93" type="line"/>
      <point x="541" y="82"/>
      <point x="456" y="71"/>
      <point x="410" y="71" type="curve" smooth="yes"/>
      <point x="234" y="71"/>
      <point x="150" y="168"/>
      <point x="150" y="369" type="curve" smooth="yes"/>
      <point x="150" y="572"/>
      <point x="238" y="670"/>
      <point x="426" y="670" type="curve" smooth="yes"/>
      <point x="483" y="670"/>
      <point x="533" y="664"/>
      <point x="623" y="644" type="curve"/>
      <point x="623" y="724" type="line"/>
      <point x="556" y="742"/>
      <point x="485" y="751"/>
      <point x="420" y="751" type="curve" smooth="yes"/>
      <point x="179" y="751"/>
      <point x="54" y="619"/>
      <point x="54" y="368" type="curve" smooth="yes"/>
      <point x="54" y="120"/>
      <point x="175" y="-9"/>
    </contour>
    <contour>
      <point x="542" y="26" type="line"/>
      <point x="631" y="28" type="line"/>
      <point x="631" y="376" type="line"/>
      <point x="542" y="376" type="line"/>
    </contour>
  </outline>
</glyph>
<glyph name="I" format="1">
  <advance width="282"/>
  <unicode hex="0049"/>
  <outline>
    <contour>
      <point x="153" y="16" type="move" name="ogonek"/>
    </contour>
    <contour>
      <point x="143" y="798" type="move" name="topUC"/>
    </contour>
    <contour>
      <point x="142" y="-33" type="move" name="bottom"/>
    </contour>
    <contour>
      <point x="94" y="0" type="line"/>
      <point x="188" y="0" type="line"/>
      <point x="188" y="740" type="line"/>
      <point x="94" y="740" type="line"/>
    </contour>
  </outline>
</glyph>
<glyph name="J" format="1">
  <advance width="281"/>
  <unicode hex="004A"/>
  <outline>
    <contour>
      <point x="145" y="798" type="move" name="topUC"/>
    </contour>
    <contour>
      <point x="83" y="-190" type="line"/>
      <point x="165" y="-38"/>
      <point x="190" y="46"/>
      <point x="190" y="181" type="curve" smooth="yes"/>
      <point x="190" y="740" type="line"/>
      <point x="96" y="740" type="line"/>
      <point x="96" y="187" type="line" smooth="yes"/>
      <point x="96" y="50"/>
      <point x="77" y="-34"/>
      <point x="18" y="-160" type="curve"/>
    </contour>
  </outline>
</glyph>
<glyph name="P" format="1">
  <advance width="685"/>
  <unicode hex="0050"/>
  <outline>
    <contour>
      <point x="298" y="234" type="curve" smooth="yes"/>
      <point x="539" y="234"/>
      <point x="649" y="314"/>
      <point x="649" y="492" type="curve" smooth="yes"/>
      <point x="649" y="672"/>
      <point x="540" y="750"/>
      <point x="289" y="750" type="curve" smooth="yes"/>
      <point x="229" y="750"/>
      <point x="163" y="745"/>
      <point x="94" y="735" type="curve"/>
      <point x="94" y="250" type="line"/>
      <point x="190" y="238"/>
      <point x="247" y="234"/>
    </contour>
    <contour>
      <point x="310" y="311" type="curve" smooth="yes"/>
      <point x="267" y="311"/>
      <point x="209" y="316"/>
      <point x="188" y="321" type="curve"/>
      <point x="188" y="665" type="line"/>
      <point x="217" y="669"/>
      <point x="266" y="673"/>
      <point x="306" y="673" type="curve" smooth="yes"/>
      <point x="484" y="673"/>
      <point x="553" y="621"/>
      <point x="553" y="492" type="curve" smooth="yes"/>
      <point x="553" y="360"/>
      <point x="488" y="311"/>
    </contour>
    <contour>
      <point x="94" y="0" type="line"/>
      <point x="188" y="0" type="line"/>
      <point x="188" y="690" type="line"/>
      <point x="94" y="690" type="line"/>
    </contour>
  </outline>
</glyph>
<glyph name="R" format="1">
  <advance width="706"/>
  <unicode hex="0052"/>
  <outline>
    <contour>
      <point x="355" y="798" type="move" name="topUC"/>
    </contour>
    <contour>
      <point x="362" y="-33" type="move" name="bottom"/>
    </contour>
    <contour>
      <point x="94" y="0" type="line"/>
      <point x="188" y="0" type="line"/>
      <point x="188" y="278" type="line"/>
      <point x="227" y="274"/>
      <point x="269" y="271"/>
      <point x="298" y="271" type="curve" smooth="yes"/>
      <point x="539" y="271"/>
      <point x="649" y="345"/>
      <point x="649" y="511" type="curve" smooth="yes"/>
      <point x="649" y="678"/>
      <point x="541" y="750"/>
      <point x="289" y="750" type="curve" smooth="yes"/>
      <point x="228" y="750"/>
      <point x="162" y="745"/>
      <point x="94" y="735" type="curve"/>
    </contour>
    <contour>
      <point x="310" y="348" type="curve" smooth="yes"/>
      <point x="258" y="348"/>
      <point x="205" y="353"/>
      <point x="188" y="358" type="curve"/>
      <point x="188" y="665" type="line"/>
      <point x="217" y="669"/>
      <point x="267" y="673"/>
      <point x="306" y="673" type="curve" smooth="yes"/>
      <point x="483" y="673"/>
      <point x="553" y="626"/>
      <point x="553" y="511" type="curve" smooth="yes"/>
      <point x="553" y="392"/>
      <point x="487" y="348"/>
    </contour>
    <contour>
      <point x="571" y="0" type="line"/>
      <point x="677" y="0" type="line"/>
      <point x="445" y="341" type="line"/>
      <point x="374" y="301" type="line"/>
    </contour>
  </outline>
</glyph>
<glyph name="S" format="1">
  <advance width="617"/>
  <unicode hex="0053"/>
  <outline>
    <contour>
      <point x="316" y="797" type="move" name="topUC"/>
    </contour>
    <contour>
      <point x="322" y="-10" type="move" name="bottom"/>
    </contour>
    <contour>
      <point x="294" y="-11" type="curve" smooth="yes"/>
      <point x="478" y="-11"/>
      <point x="577" y="61"/>
      <point x="577" y="195" type="curve" smooth="yes"/>
      <point x="577" y="337"/>
      <point x="471" y="379"/>
      <point x="334" y="411" type="curve" smooth="yes"/>
      <point x="202" y="444"/>
      <point x="158" y="480"/>
      <point x="158" y="554" type="curve" smooth="yes"/>
      <point x="158" y="630"/>
      <point x="226" y="678"/>
      <point x="336" y="678" type="curve" smooth="yes"/>
      <point x="395" y="678"/>
      <point x="472" y="668"/>
      <point x="537" y="650" type="curve"/>
      <point x="537" y="730" type="line"/>
      <point x="452" y="748"/>
      <point x="386" y="756"/>
      <point x="328" y="756" type="curve" smooth="yes"/>
      <point x="164" y="756"/>
      <point x="59" y="676"/>
      <point x="59" y="552" type="curve" smooth="yes"/>
      <point x="59" y="432"/>
      <point x="126" y="371"/>
      <point x="300" y="332" type="curve" smooth="yes"/>
      <point x="397" y="308"/>
      <point x="479" y="284"/>
      <point x="479" y="188" type="curve" smooth="yes"/>
      <point x="479" y="110"/>
      <point x="413" y="67"/>
      <point x="290" y="67" type="curve" smooth="yes"/>
      <point x="226" y="67"/>
      <point x="138" y="79"/>
      <point x="46" y="99" type="curve"/>
      <point x="46" y="19" type="line"/>
      <point x="129" y="1"/>
      <point x="225" y="-11"/>
    </contour>
  </outline>
</glyph>
<glyph name="T" format="1">
  <advance width="641"/>
  <unicode hex="0054"/>
  <outline>
    <contour>
      <point x="322" y="798" type="move" name="topUC"/>
    </contour>
    <contour>
      <point x="321" y="-33" type="move" name="bottom"/>
    </contour>
    <contour>
      <point x="273" y="0" type="line"/>
      <point x="368" y="0" type="line"/>
      <point x="368" y="663" type="line"/>
      <point x="624" y="663" type="line"/>
      <point x="624" y="740" type="line"/>
      <point x="18" y="740" type="line"/>
      <point x="18" y="663" type="line"/>
      <point x="273" y="663" type="line"/>
    </contour>
  </outline>
</glyph>
<glyph name="Y" format="1">
  <advance width="665"/>
  <unicode hex="0059"/>
  <outline>
    <contour>
      <point x="331" y="798" type="move" name="topUC"/>
    </contour>
    <contour>
      <point x="286" y="0" type="line"/>
      <point x="380" y="0" type="line"/>
      <point x="380" y="249" type="line"/>
      <point x="660" y="740" type="line"/>
      <point x="559" y="740" type="line"/>
      <point x="369" y="403" type="line"/>
      <point x="337" y="334" type="line"/>
      <point x="327" y="334" type="line"/>
      <point x="295" y="403" type="line"/>
      <point x="105" y="740" type="line"/>
      <point x="4" y="740" type="line"/>
      <point x="286" y="247" type="line"/>
    </contour>
  </outline>
</glyph>
<glyph name="Z" format="1">
  <advance width="623"/>
  <unicode hex="005A"/>
  <outline>
    <contour>
      <point x="317" y="798" type="move" name="topUC"/>
    </contour>
    <contour>
      <point x="309" y="-33" type="move" name="bottom"/>
    </contour>
    <contour>
      <point x="35" y="0" type="line"/>
      <point x="587" y="0" type="line"/>
      <point x="587" y="80" type="line"/>
      <point x="154" y="80" type="line"/>
      <point x="154" y="85" type="line"/>
      <point x="575" y="675" type="line"/>
      <point x="575" y="740" type="line"/>
      <point x="49" y="740" type="line"/>
      <point x="49" y="660" type="line"/>
      <point x="457" y="660" type="line"/>
      <point x="457" y="655" type="line"/>
      <point x="35" y="68" type="line"/>
    </contour>
  </outline>
</glyph>
<glyph name="bracketleft" format="1">
  <advance width="334"/>
  <unicode hex="005B"/>
  <outline>
    <contour>
      <point x="93" y="-160" type="line"/>
      <point x="300" y="-160" type="line"/>
      <point x="300" y="-93" type="line"/>
      <point x="169" y="-93" type="line"/>
      <point x="169" y="801" type="line"/>
      <point x="300" y="801" type="line"/>
      <point x="300" y="868" type="line"/>
      <point x="93" y="868" type="line"/>
    </contour>
  </outline>
</glyph>
<glyph name="asciicircum" format="1">
  <advance width="516"/>
  <unicode hex="005E"/>
  <outline>
    <contour>
      <point x="48" y="481" type="line"/>
      <point x="119" y="481" type="line"/>
      <point x="256" y="720" type="line"/>
      <point x="260" y="720" type="line"/>
      <point x="398" y="481" type="line"/>
      <point x="468" y="481" type="line"/>
      <point x="298" y="789" type="line"/>
      <point x="218" y="789" type="line"/>
    </contour>
  </outline>
</glyph>
<glyph name="underscore" format="1">
  <advance width="624"/>
  <unicode hex="005F"/>
  <outline>
    <contour>
      <point x="57" y="-135" type="line"/>
      <point x="568" y="-135" type="line"/>
      <point x="568" y="-59" type="line"/>
      <point x="57" y="-59" type="line"/>
    </contour>
  </outline>
</glyph>
<glyph name="grave" format="1">
  <advance width="269"/>
  <unicode hex="0060"/>
  <outline>
    <contour>
      <point x="176" y="622" type="move" name="_top"/>
    </contour>
    <contour>
      <point x="139" y="616" type="line"/>
      <point x="38" y="808" type="line"/>
      <point x="140" y="808" type="line"/>
      <point x="210" y="626" type="line"/>
    </contour>
  </outline>
</glyph>
<glyph name="a" format="1">
  <advance width="562"/>
  <unicode hex="0061"/>
  <outline>
    <contour>
      <point x="277" y="622" type="move" name="top"/>
    </contour>
    <contour>
      <point x="458" y="16" type="move" name="ogonek"/>
    </contour>
    <contour>
      <point x="192" y="-5" type="curve" smooth="yes"/>
      <point x="256" y="-5"/>
      <point x="322" y="19"/>
      <point x="395" y="69" type="curve"/>
      <point x="401" y="69" type="line"/>
      <point x="411" y="0" type="line"/>
      <point x="487" y="0" type="line"/>
      <point x="487" y="366" type="line" smooth="yes"/>
      <point x="487" y="488"/>
      <point x="417" y="545"/>
      <point x="271" y="545" type="curve" smooth="yes"/>
      <point x="208" y="545"/>
      <point x="151" y="540"/>
      <point x="75" y="526" type="curve"/>
      <point x="82" y="456" type="line"/>
      <point x="150" y="469"/>
      <point x="201" y="474"/>
      <point x="250" y="474" type="curve" smooth="yes"/>
      <point x="365" y="474"/>
      <point x="394" y="446"/>
      <point x="394" y="351" type="curve" smooth="yes"/>
      <point x="394" y="126" type="line"/>
      <point x="335" y="86"/>
      <point x="276" y="66"/>
      <point x="226" y="66" type="curve" smooth="yes"/>
      <point x="165" y="66"/>
      <point x="137" y="90"/>
      <point x="137" y="145" type="curve" smooth="yes"/>
      <point x="137" y="214"/>
      <point x="173" y="241"/>
      <point x="282" y="251" type="curve" smooth="yes"/>
      <point x="425" y="264" type="line"/>
      <point x="417" y="320" type="line"/>
      <point x="254" y="307" type="line" smooth="yes"/>
      <point x="106" y="295"/>
      <point x="43" y="242"/>
      <point x="43" y="137" type="curve" smooth="yes"/>
      <point x="43" y="44"/>
      <point x="94" y="-5"/>
    </contour>
  </outline>
</glyph>
<glyph name="b" format="1">
  <advance width="644"/>
  <unicode hex="0062"/>
  <outline>
    <contour>
      <point x="313" y="-11" type="curve" smooth="yes"/>
      <point x="480" y="-11"/>
      <point x="594" y="80"/>
      <point x="594" y="274" type="curve" smooth="yes"/>
      <point x="594" y="463"/>
      <point x="509" y="550"/>
      <point x="354" y="550" type="curve" smooth="yes"/>
      <point x="275" y="550"/>
      <point x="215" y="525"/>
      <point x="172" y="478" type="curve"/>
      <point x="172" y="808" type="line"/>
      <point x="79" y="808" type="line"/>
      <point x="79" y="10" type="line"/>
      <point x="173" y="-6"/>
      <point x="247" y="-11"/>
    </contour>
    <contour>
      <point x="311" y="59" type="curve" smooth="yes"/>
      <point x="256" y="59"/>
      <point x="206" y="64"/>
      <point x="172" y="69" type="curve"/>
      <point x="172" y="361" type="line" smooth="yes"/>
      <point x="172" y="431"/>
      <point x="248" y="474"/>
      <point x="333" y="474" type="curve" smooth="yes"/>
      <point x="449" y="474"/>
      <point x="500" y="419"/>
      <point x="500" y="269" type="curve" smooth="yes"/>
      <point x="500" y="116"/>
      <point x="437" y="59"/>
    </contour>
  </outline>
</glyph>
<glyph name="e" format="1">
  <advance width="577"/>
  <unicode hex="0065"/>
  <outline>
    <contour>
      <point x="302" y="622" type="move" name="top"/>
    </contour>
    <contour>
      <point x="479" y="32" type="move" name="ogonek"/>
    </contour>
    <contour>
      <point x="311" y="-33" type="move" name="bottom"/>
    </contour>
    <contour>
      <point x="315" y="-9" type="curve" smooth="yes"/>
      <point x="378" y="-9"/>
      <point x="452" y="3"/>
      <point x="510" y="23" type="curve"/>
      <point x="505" y="93" type="line"/>
      <point x="449" y="76"/>
      <point x="383" y="66"/>
      <point x="328" y="66" type="curve" smooth="yes"/>
      <point x="196" y="66"/>
      <point x="142" y="124"/>
      <point x="142" y="269" type="curve" smooth="yes"/>
      <point x="142" y="411"/>
      <point x="195" y="479"/>
      <point x="305" y="479" type="curve" smooth="yes"/>
      <point x="406" y="479"/>
      <point x="444" y="423"/>
      <point x="444" y="275" type="curve"/>
      <point x="469" y="301" type="line"/>
      <point x="89" y="301" type="line"/>
      <point x="88" y="237" type="line"/>
      <point x="521" y="237" type="line"/>
      <point x="526" y="253"/>
      <point x="528" y="277"/>
      <point x="528" y="306" type="curve" smooth="yes"/>
      <point x="528" y="467"/>
      <point x="454" y="549"/>
      <point x="307" y="549" type="curve" smooth="yes"/>
      <point x="142" y="549"/>
      <point x="51" y="447"/>
      <point x="51" y="264" type="curve" smooth="yes"/>
      <point x="51" y="83"/>
      <point x="140" y="-9"/>
    </contour>
  </outline>
</glyph>
<glyph name="f" format="1">
  <advance width="412"/>
  <unicode hex="0066"/>
  <outline>
    <contour>
      <point x="147" y="0" type="line"/>
      <point x="240" y="0" type="line"/>
      <point x="240" y="459" type="line"/>
      <point x="397" y="459" type="line"/>
      <point x="397" y="540" type="line"/>
      <point x="240" y="540" type="line"/>
      <point x="240" y="589" type="line" smooth="yes"/>
      <point x="242" y="714"/>
      <point x="273" y="737"/>
      <point x="424" y="746" type="curve"/>
      <point x="419" y="814" type="line"/>
      <point x="204" y="808"/>
      <point x="148" y="760"/>
      <point x="148" y="563" type="curve" smooth="yes"/>
      <point x="148" y="540" type="line"/>
      <point x="17" y="540" type="line"/>
      <point x="17" y="459" type="line"/>
      <point x="147" y="459" type="line"/>
    </contour>
  </outline>
</glyph>
<glyph name="l" format="1">
  <advance width="257"/>
  <unicode hex="006C"/>
  <outline>
    <contour>
      <point x="129" y="839" type="move" name="top"/>
    </contour>
    <contour>
      <point x="259" y="370" type="move" name="periodcentered"/>
    </contour>
    <contour>
      <point x="268" y="768" type="move" name="caronalt"/>
    </contour>
    <contour>
      <point x="129" y="-33" type="move" name="bottom"/>
    </contour>
    <contour>
      <point x="82" y="0" type="line"/>
      <point x="175" y="0" type="line"/>
      <point x="175" y="808" type="line"/>
      <point x="82" y="808" type="line"/>
    </contour>
  </outline>
</glyph>
<glyph name="m" format="1">
  <advance width="949"/>
  <unicode hex="006D"/>
  <outline>
    <contour>
      <point x="80" y="0" type="line"/>
      <point x="173" y="0" type="line"/>
      <point x="173" y="413" type="line"/>
      <point x="234" y="448"/>
      <point x="294" y="472"/>
      <point x="337" y="472" type="curve" smooth="yes"/>
      <point x="401" y="472"/>
      <point x="431" y="442"/>
      <point x="431" y="366" type="curve" smooth="yes"/>
      <point x="431" y="0" type="line"/>
      <point x="524" y="0" type="line"/>
      <point x="524" y="415" type="line"/>
      <point x="589" y="451"/>
      <point x="645" y="472"/>
      <point x="686" y="472" type="curve" smooth="yes"/>
      <point x="749" y="472"/>
      <point x="780" y="442"/>
      <point x="780" y="366" type="curve" smooth="yes"/>
      <point x="780" y="0" type="line"/>
      <point x="873" y="0" type="line"/>
      <point x="873" y="400" type="line" smooth="yes"/>
      <point x="873" y="500"/>
      <point x="817" y="550"/>
      <point x="721" y="550" type="curve" smooth="yes"/>
      <point x="666" y="550"/>
      <point x="609" y="529"/>
      <point x="514" y="474" type="curve"/>
      <point x="510" y="474" type="line"/>
      <point x="488" y="524"/>
      <point x="440" y="550"/>
      <point x="373" y="550" type="curve" smooth="yes"/>
      <point x="316" y="550"/>
      <point x="259" y="527"/>
      <point x="169" y="476" type="curve"/>
      <point x="163" y="476" type="line"/>
      <point x="157" y="540" type="line"/>
      <point x="80" y="540" type="line"/>
    </contour>
  </outline>
</glyph>
<glyph name="n" format="1">
  <advance width="647"/>
  <unicode hex="006E"/>
  <outline>
    <contour>
      <point x="12" y="674" type="move" name="apostrophe"/>
    </contour>
    <contour>
      <point x="328" y="622" type="move" name="top"/>
    </contour>
    <contour>
      <point x="322" y="-33" type="move" name="bottom"/>
    </contour>
    <contour>
      <point x="80" y="0" type="line"/>
      <point x="173" y="0" type="line"/>
      <point x="173" y="413" type="line"/>
      <point x="254" y="450"/>
      <point x="330" y="474"/>
      <point x="384" y="474" type="curve" smooth="yes"/>
      <point x="448" y="474"/>
      <point x="478" y="444"/>
      <point x="478" y="367" type="curve" smooth="yes"/>
      <point x="478" y="0" type="line"/>
      <point x="571" y="0" type="line"/>
      <point x="571" y="400" type="line" smooth="yes"/>
      <point x="571" y="500"/>
      <point x="515" y="550"/>
      <point x="420" y="550" type="curve" smooth="yes"/>
      <point x="356" y="550"/>
      <point x="288" y="529"/>
      <point x="169" y="476" type="curve"/>
      <point x="163" y="476" type="line"/>
      <point x="157" y="540" type="line"/>
      <point x="80" y="540" type="line"/>
    </contour>
  </outline>
</glyph>
<glyph name="s" format="1">
  <advance width="505"/>
  <unicode hex="0073"/>
  <outline>
    <contour>
      <point x="254" y="624" type="move" name="top"/>
    </contour>
    <contour>
      <point x="257" y="-32" type="move" name="bottom"/>
    </contour>
    <contour>
      <point x="246" y="-11" type="curve" smooth="yes"/>
      <point x="384" y="-11"/>
      <point x="461" y="48"/>
      <point x="461" y="150" type="curve" smooth="yes"/>
      <point x="461" y="259"/>
      <point x="383" y="292"/>
      <point x="284" y="309" type="curve" smooth="yes"/>
      <point x="204" y="323"/>
      <point x="146" y="335"/>
      <point x="146" y="399" type="curve" smooth="yes"/>
      <point x="146" y="451"/>
      <point x="189" y="479"/>
      <point x="273" y="479" type="curve" smooth="yes"/>
      <point x="315" y="479"/>
      <point x="364" y="470"/>
      <point x="436" y="455" type="curve"/>
      <point x="441" y="532" type="line"/>
      <point x="353" y="548"/>
      <point x="316" y="553"/>
      <point x="268" y="553" type="curve" smooth="yes"/>
      <point x="136" y="553"/>
      <point x="55" y="495"/>
      <point x="55" y="398" type="curve" smooth="yes"/>
      <point x="55" y="269"/>
      <point x="161" y="253"/>
      <point x="249" y="238" type="curve" smooth="yes"/>
      <point x="319" y="226"/>
      <point x="371" y="209"/>
      <point x="371" y="145" type="curve" smooth="yes"/>
      <point x="371" y="90"/>
      <point x="327" y="60"/>
      <point x="242" y="60" type="curve" smooth="yes"/>
      <point x="185" y="60"/>
      <point x="122" y="72"/>
      <point x="48" y="88" type="curve"/>
      <point x="48" y="13" type="line"/>
      <point x="138" y="-4"/>
      <point x="195" y="-11"/>
    </contour>
  </outline>
</glyph>
<glyph name="w" format="1">
  <advance width="837"/>
  <unicode hex="0077"/>
  <outline>
    <contour>
      <point x="416" y="622" type="move" name="top"/>
    </contour>
    <contour>
      <point x="184" y="0" type="line"/>
      <point x="289" y="0" type="line"/>
      <point x="396" y="357" type="line"/>
      <point x="414" y="434" type="line"/>
      <point x="421" y="434" type="line"/>
      <point x="439" y="357" type="line"/>
      <point x="552" y="0" type="line"/>
      <point x="657" y="0" type="line"/>
      <point x="810" y="533" type="line"/>
      <point x="810" y="540" type="line"/>
      <point x="719" y="540" type="line"/>
      <point x="622" y="169" type="line"/>
      <point x="604" y="88" type="line"/>
      <point x="597" y="88" type="line"/>
      <point x="576" y="169" type="line"/>
      <point x="461" y="540" type="line"/>
      <point x="373" y="540" type="line"/>
      <point x="263" y="169" type="line"/>
      <point x="243" y="88" type="line"/>
      <point x="237" y="88" type="line"/>
      <point x="218" y="169" type="line"/>
      <point x="115" y="540" type="line"/>
      <point x="24" y="540" type="line"/>
      <point x="24" y="533" type="line"/>
    </contour>
  </outline>
</glyph>
<glyph name="x" format="1">
  <advance width="584"/>
  <unicode hex="0078"/>
  <outline>
    <contour>
      <point x="14" y="0" type="line"/>
      <point x="111" y="0" type="line"/>
      <point x="245" y="168" type="line"/>
      <point x="288" y="229" type="line"/>
      <point x="294" y="229" type="line"/>
      <point x="338" y="168" type="line"/>
      <point x="473" y="0" type="line"/>
      <point x="570" y="0" type="line"/>
      <point x="570" y="14" type="line"/>
      <point x="355" y="278" type="line"/>
      <point x="559" y="532" type="line"/>
      <point x="559" y="540" type="line"/>
      <point x="459" y="540" type="line"/>
      <point x="335" y="381" type="line"/>
      <point x="296" y="328" type="line"/>
      <point x="290" y="328" type="line"/>
      <point x="251" y="381" type="line"/>
      <point x="124" y="540" type="line"/>
      <point x="25" y="540" type="line"/>
      <point x="25" y="532" type="line"/>
      <point x="229" y="280" type="line"/>
      <point x="14" y="14" type="line"/>
    </contour>
  </outline>
</glyph>
<glyph name="y" format="1">
  <advance width="599"/>
  <unicode hex="0079"/>
  <outline>
    <contour>
      <point x="299" y="622" type="move" name="top"/>
    </contour>
    <contour>
      <point x="247" y="-220" type="line"/>
      <point x="584" y="528" type="line"/>
      <point x="584" y="540" type="line"/>
      <point x="487" y="540" type="line"/>
      <point x="330" y="183" type="line"/>
      <point x="302" y="101" type="line"/>
      <point x="296" y="101" type="line"/>
      <point x="268" y="183" type="line"/>
      <point x="118" y="540" type="line"/>
      <point x="18" y="540" type="line"/>
      <point x="18" y="528" type="line"/>
      <point x="252" y="6" type="line"/>
      <point x="163" y="-195" type="line"/>
      <point x="164" y="-206" type="line"/>
    </contour>
  </outline>
</glyph>
<glyph name="z" format="1">
  <advance width="525"/>
  <unicode hex="007A"/>
  <outline>
    <contour>
      <point x="260" y="622" type="move" name="top"/>
    </contour>
    <contour>
      <point x="263" y="-33" type="move" name="bottom"/>
    </contour>
    <contour>
      <point x="40" y="1" type="line"/>
      <point x="486" y="1" type="line"/>
      <point x="486" y="77" type="line"/>
      <point x="165" y="77" type="line"/>
      <point x="165" y="84" type="line"/>
      <point x="476" y="483" type="line"/>
      <point x="476" y="540" type="line"/>
      <point x="50" y="540" type="line"/>
      <point x="50" y="464" type="line"/>
      <point x="354" y="464" type="line"/>
      <point x="354" y="458" type="line"/>
      <point x="40" y="62" type="line"/>
    </contour>
  </outline>
</glyph>
<glyph name="asciitilde" format="1">
  <advance width="688"/>
  <unicode hex="007E"/>
  <outline>
    <contour>
      <point x="115" y="239" type="line"/>
      <point x="169" y="289"/>
      <point x="206" y="309"/>
      <point x="251" y="309" type="curve" smooth="yes"/>
      <point x="312" y="309"/>
      <point x="358" y="233"/>
      <point x="451" y="233" type="curve" smooth="yes"/>
      <point x="523" y="233"/>
      <point x="587" y="291"/>
      <point x="623" y="345" type="curve" smooth="yes"/>
      <point x="568" y="377" type="line"/>
      <point x="543" y="337"/>
      <point x="492" y="309"/>
      <point x="444" y="309" type="curve" smooth="yes"/>
      <point x="373" y="309"/>
      <point x="330" y="385"/>
      <point x="244" y="385" type="curve" smooth="yes"/>
      <point x="182" y="385"/>
      <point x="141" y="362"/>
      <point x="65" y="285" type="curve"/>
    </contour>
  </outline>
</glyph>
<glyph name="cent" format="1">
  <advance width="526"/>
  <unicode hex="00A2"/>
  <outline>
    <contour>
      <point x="280" y="-120" type="line"/>
      <point x="345" y="-120" type="line"/>
      <point x="345" y="30" type="line"/>
      <point x="280" y="26" type="line"/>
    </contour>
    <contour>
      <point x="280" y="507" type="line"/>
      <point x="345" y="511" type="line"/>
      <point x="345" y="660" type="line"/>
      <point x="280" y="660" type="line"/>
    </contour>
    <component base="c" xOffset="1"/>
  </outline>
</glyph>
<glyph name="sterling" format="1">
  <advance width="681"/>
  <unicode hex="00A3"/>
  <outline>
    <contour>
      <point x="53" y="0" type="line"/>
      <point x="615" y="0" type="line"/>
      <point x="615" y="83" type="line"/>
      <point x="314" y="83" type="line"/>
      <point x="314" y="521" type="line"/>
      <point x="314" y="624"/>
      <point x="354" y="665"/>
      <point x="464" y="665" type="curve" smooth="yes"/>
      <point x="506" y="665"/>
      <point x="559" y="657"/>
      <point x="620" y="641" type="curve"/>
      <point x="629" y="718" type="line"/>
      <point x="561" y="738"/>
      <point x="508" y="746"/>
      <point x="456" y="746" type="curve" smooth="yes"/>
      <point x="290" y="746"/>
      <point x="220" y="673"/>
      <point x="220" y="521" type="curve" smooth="yes"/>
      <point x="220" y="83" type="line"/>
      <point x="53" y="83" type="line"/>
    </contour>
    <contour>
      <point x="53" y="331" type="line"/>
      <point x="541" y="331" type="line"/>
      <point x="541" y="407" type="line"/>
      <point x="53" y="407" type="line"/>
    </contour>
  </outline>
</glyph>
<glyph name="yen" format="1">
  <advance width="720"/>
  <unicode hex="00A5"/>
  <outline>
    <contour>
      <point x="96" y="98" type="line"/>
      <point x="600" y="98" type="line"/>
      <point x="600" y="160" type="line"/>
      <point x="96" y="160" type="line"/>
    </contour>
    <contour>
      <point x="96" y="247" type="line"/>
      <point x="600" y="247" type="line"/>
      <point x="600" y="308" type="line"/>
      <point x="96" y="308" type="line"/>
    </contour>
    <component base="Y" xOffset="32"/>
  </outline>
</glyph>
<glyph name="brokenbar" format="1">
  <advance width="275"/>
  <unicode hex="00A6"/>
  <outline>
    <contour>
      <point x="94" y="-220" type="line"/>
      <point x="182" y="-220" type="line"/>
      <point x="182" y="203" type="line"/>
      <point x="94" y="203" type="line"/>
    </contour>
    <contour>
      <point x="94" y="385" type="line"/>
      <point x="182" y="385" type="line"/>
      <point x="182" y="808" type="line"/>
      <point x="94" y="808" type="line"/>
    </contour>
  </outline>
</glyph>
<glyph name="dieresis" format="1">
  <advance width="509"/>
  <unicode hex="00A8"/>
  <outline>
    <contour>
      <point x="248" y="622" type="move" name="_top"/>
    </contour>
    <contour>
      <point x="119" y="655" type="curve" smooth="yes"/>
      <point x="154" y="655"/>
      <point x="173" y="672"/>
      <point x="173" y="709" type="curve" smooth="yes"/>
      <point x="173" y="744"/>
      <point x="154" y="761"/>
      <point x="119" y="761" type="curve" smooth="yes"/>
      <point x="83" y="761"/>
      <point x="65" y="745"/>
      <point x="65" y="709" type="curve" smooth="yes"/>
      <point x="65" y="672"/>
      <point x="83" y="655"/>
    </contour>
    <contour>
      <point x="376" y="655" type="curve" smooth="yes"/>
      <point x="411" y="655"/>
      <point x="430" y="672"/>
      <point x="430" y="709" type="curve" smooth="yes"/>
      <point x="430" y="744"/>
      <point x="411" y="761"/>
      <point x="376" y="761" type="curve" smooth="yes"/>
      <point x="340" y="761"/>
      <point x="322" y="745"/>
      <point x="322" y="709" type="curve" smooth="yes"/>
      <point x="322" y="672"/>
      <point x="340" y="655"/>
    </contour>
  </outline>
</glyph>
<glyph name="copyright" format="1">
  <advance width="851"/>
  <unicode hex="00A9"/>
  <outline>
    <contour>
      <point x="441" y="163" type="curve" smooth="yes"/>
      <point x="472" y="163"/>
      <point x="503" y="167"/>
      <point x="529" y="174" type="curve"/>
      <point x="529" y="228" type="line"/>
      <point x="499" y="223"/>
      <point x="470" y="219"/>
      <point x="446" y="219" type="curve" smooth="yes"/>
      <point x="367" y="219"/>
      <point x="319" y="265"/>
      <point x="319" y="367" type="curve" smooth="yes"/>
      <point x="319" y="468"/>
      <point x="364" y="517"/>
      <point x="447" y="517" type="curve" smooth="yes"/>
      <point x="472" y="517"/>
      <point x="500" y="513"/>
      <point x="527" y="508" type="curve"/>
      <point x="527" y="563" type="line"/>
      <point x="501" y="569"/>
      <point x="471" y="573"/>
      <point x="441" y="573" type="curve" smooth="yes"/>
      <point x="327" y="573"/>
      <point x="256" y="504"/>
      <point x="256" y="366" type="curve" smooth="yes"/>
      <point x="256" y="231"/>
      <point x="327" y="163"/>
    </contour>
    <contour>
      <point x="426" y="-11" type="curve" smooth="yes"/>
      <point x="649" y="-11"/>
      <point x="797" y="142"/>
      <point x="797" y="370" type="curve" smooth="yes"/>
      <point x="797" y="598"/>
      <point x="649" y="751"/>
      <point x="426" y="751" type="curve" smooth="yes"/>
      <point x="202" y="751"/>
      <point x="54" y="598"/>
      <point x="54" y="370" type="curve" smooth="yes"/>
      <point x="54" y="142"/>
      <point x="202" y="-11"/>
    </contour>
    <contour>
      <point x="426" y="43" type="curve" smooth="yes"/>
      <point x="233" y="43"/>
      <point x="110" y="173"/>
      <point x="110" y="370" type="curve" smooth="yes"/>
      <point x="110" y="567"/>
      <point x="233" y="698"/>
      <point x="426" y="698" type="curve" smooth="yes"/>
      <point x="618" y="698"/>
      <point x="741" y="567"/>
      <point x="741" y="370" type="curve" smooth="yes"/>
      <point x="741" y="173"/>
      <point x="618" y="43"/>
    </contour>
  </outline>
</glyph>
<glyph name="logicalnot" format="1">
  <advance width="849"/>
  <unicode hex="00AC"/>
  <outline>
    <contour>
      <point x="68" y="350" type="line"/>
      <point x="679" y="350" type="line"/>
      <point x="679" y="111" type="line"/>
      <point x="770" y="111" type="line"/>
      <point x="770" y="429" type="line"/>
      <point x="68" y="429" type="line"/>
    </contour>
  </outline>
</glyph>
<glyph name="registered" format="1">
  <advance width="731"/>
  <unicode hex="00AE"/>
  <outline>
    <contour>
      <point x="254" y="284" type="line"/>
      <point x="302" y="284" type="line"/>
      <point x="302" y="408" type="line"/>
      <point x="381" y="407" type="line"/>
      <point x="457" y="284" type="line"/>
      <point x="510" y="284" type="line"/>
      <point x="427" y="417" type="line"/>
      <point x="428" y="420" type="line"/>
      <point x="474" y="434"/>
      <point x="499" y="468"/>
      <point x="499" y="518" type="curve" smooth="yes"/>
      <point x="499" y="591"/>
      <point x="451" y="625"/>
      <point x="348" y="625" type="curve" smooth="yes"/>
      <point x="321" y="625"/>
      <point x="289" y="622"/>
      <point x="254" y="618" type="curve"/>
    </contour>
    <contour>
      <point x="351" y="449" type="curve" smooth="yes"/>
      <point x="335" y="449"/>
      <point x="312" y="449"/>
      <point x="302" y="450" type="curve"/>
      <point x="302" y="581" type="line"/>
      <point x="320" y="583"/>
      <point x="340" y="584"/>
      <point x="353" y="584" type="curve" smooth="yes"/>
      <point x="422" y="584"/>
      <point x="450" y="563"/>
      <point x="450" y="517" type="curve" smooth="yes"/>
      <point x="450" y="470"/>
      <point x="418" y="449"/>
    </contour>
    <contour>
      <point x="365" y="140" type="curve" smooth="yes"/>
      <point x="545" y="140"/>
      <point x="673" y="268"/>
      <point x="673" y="446" type="curve" smooth="yes"/>
      <point x="673" y="624"/>
      <point x="545" y="753"/>
      <point x="365" y="753" type="curve" smooth="yes"/>
      <point x="186" y="753"/>
      <point x="59" y="624"/>
      <point x="59" y="446" type="curve" smooth="yes"/>
      <point x="59" y="268"/>
      <point x="186" y="140"/>
    </contour>
    <contour>
      <point x="365" y="187" type="curve" smooth="yes"/>
      <point x="213" y="187"/>
      <point x="108" y="294"/>
      <point x="108" y="446" type="curve" smooth="yes"/>
      <point x="108" y="598"/>
      <point x="213" y="706"/>
      <point x="365" y="706" type="curve" smooth="yes"/>
      <point x="518" y="706"/>
      <point x="624" y="598"/>
      <point x="624" y="446" type="curve" smooth="yes"/>
      <point x="624" y="294"/>
      <point x="518" y="187"/>
    </contour>
  </outline>
</glyph>
<glyph name="macron" format="1">
  <advance width="509"/>
  <unicode hex="00AF"/>
  <outline>
    <contour>
      <point x="237" y="622" type="move" name="_top"/>
    </contour>
    <contour>
      <point x="67" y="650" type="line"/>
      <point x="416" y="650" type="line"/>
      <point x="416" y="718" type="line"/>
      <point x="67" y="718" type="line"/>
    </contour>
  </outline>
</glyph>
<glyph name="twosuperior" format="1">
  <advance width="463"/>
  <unicode hex="00B2"/>
  <outline>
    <contour>
      <point x="42" y="302" type="line"/>
      <point x="415" y="302" type="line"/>
      <point x="415" y="371" type="line"/>
      <point x="143" y="371" type="line"/>
      <point x="143" y="400" type="line" smooth="yes"/>
      <point x="143" y="450"/>
      <point x="173" y="483"/>
      <point x="263" y="528" type="curve" smooth="yes"/>
      <point x="371" y="581"/>
      <point x="413" y="628"/>
      <point x="413" y="701" type="curve" smooth="yes"/>
      <point x="413" y="802"/>
      <point x="352" y="852"/>
      <point x="228" y="852" type="curve" smooth="yes"/>
      <point x="179" y="852"/>
      <point x="126" y="846"/>
      <point x="58" y="831" type="curve"/>
      <point x="68" y="761" type="line"/>
      <point x="131" y="774"/>
      <point x="177" y="780"/>
      <point x="217" y="780" type="curve" smooth="yes"/>
      <point x="293" y="780"/>
      <point x="332" y="752"/>
      <point x="332" y="696" type="curve" smooth="yes"/>
      <point x="332" y="655"/>
      <point x="306" y="628"/>
      <point x="215" y="585" type="curve" smooth="yes"/>
      <point x="91" y="526"/>
      <point x="42" y="468"/>
      <point x="42" y="378" type="curve" smooth="yes"/>
    </contour>
  </outline>
</glyph>
<glyph name="mu" format="1">
  <advance width="677"/>
  <unicode hex="00B5"/>
  <outline>
    <contour>
      <point x="231" y="-10" type="curve" smooth="yes"/>
      <point x="324" y="-10"/>
      <point x="369" y="14"/>
      <point x="494" y="69" type="curve"/>
      <point x="498" y="69" type="line"/>
      <point x="505" y="0" type="line"/>
      <point x="582" y="0" type="line"/>
      <point x="582" y="540" type="line"/>
      <point x="489" y="540" type="line"/>
      <point x="489" y="127" type="line"/>
      <point x="404" y="92"/>
      <point x="337" y="63"/>
      <point x="267" y="63" type="curve" smooth="yes"/>
      <point x="209" y="63"/>
      <point x="183" y="96"/>
      <point x="183" y="170" type="curve" smooth="yes"/>
      <point x="183" y="540" type="line"/>
      <point x="91" y="540" type="line"/>
      <point x="91" y="140" type="line" smooth="yes"/>
      <point x="91" y="43"/>
      <point x="139" y="-10"/>
    </contour>
    <contour>
      <point x="91" y="-220" type="line"/>
      <point x="183" y="-220" type="line"/>
      <point x="183" y="259" type="line"/>
      <point x="91" y="259" type="line"/>
    </contour>
  </outline>
</glyph>
<glyph name="ordmasculine" format="1">
  <advance width="500"/>
  <unicode hex="00BA"/>
  <outline>
    <contour>
      <point x="250" y="407" type="curve" smooth="yes"/>
      <point x="177" y="407"/>
      <point x="129" y="439"/>
      <point x="129" y="546" type="curve" smooth="yes"/>
      <point x="129" y="654"/>
      <point x="177" y="685"/>
      <point x="250" y="685" type="curve" smooth="yes"/>
      <point x="323" y="685"/>
      <point x="370" y="654"/>
      <point x="370" y="546" type="curve" smooth="yes"/>
      <point x="370" y="439"/>
      <point x="323" y="407"/>
    </contour>
    <contour>
      <point x="250" y="345" type="curve" smooth="yes"/>
      <point x="374" y="345"/>
      <point x="449" y="411"/>
      <point x="449" y="546" type="curve" smooth="yes"/>
      <point x="449" y="681"/>
      <point x="374" y="747"/>
      <point x="250" y="747" type="curve" smooth="yes"/>
      <point x="126" y="747"/>
      <point x="51" y="681"/>
      <point x="51" y="546" type="curve" smooth="yes"/>
      <point x="51" y="411"/>
      <point x="126" y="345"/>
    </contour>
  </outline>
</glyph>
<glyph name="AE" format="1">
  <advance width="932"/>
  <unicode hex="00C6"/>
  <outline>
    <contour>
      <point x="559" y="798" type="move" name="topUC"/>
    </contour>
    <contour>
      <point x="459" y="0" type="line"/>
      <point x="883" y="0" type="line"/>
      <point x="883" y="77" type="line"/>
      <point x="554" y="77" type="line"/>
      <point x="524" y="663" type="line"/>
      <point x="871" y="663" type="line"/>
      <point x="871" y="740" type="line"/>
      <point x="429" y="740" type="line"/>
    </contour>
    <contour>
      <point x="6" y="0" type="line"/>
      <point x="97" y="0" type="line"/>
      <point x="392" y="668" type="line"/>
      <point x="462" y="668" type="line"/>
      <point x="463" y="740" type="line"/>
      <point x="327" y="740" type="line"/>
      <point x="6" y="8" type="line"/>
    </contour>
    <contour>
      <point x="154" y="217" type="line"/>
      <point x="493" y="217" type="line"/>
      <point x="493" y="297" type="line"/>
      <point x="154" y="297" type="line"/>
    </contour>
    <contour>
      <point x="500" y="336" type="line"/>
      <point x="845" y="336" type="line"/>
      <point x="845" y="413" type="line"/>
      <point x="500" y="413" type="line"/>
    </contour>
  </outline>
</glyph>
<glyph name="Eth" format="1">
  <advance width="788"/>
  <unicode hex="00D0"/>
  <outline>
    <contour>
      <point x="6" y="332" type="line"/>
      <point x="393" y="332" type="line"/>
      <point x="393" y="408" type="line"/>
      <point x="6" y="408" type="line"/>
    </contour>
    <component base="D" xOffset="11"/>
  </outline>
</glyph>
<glyph name="multiply" format="1">
  <advance width="482"/>
  <unicode hex="00D7"/>
  <outline>
    <contour>
      <point x="375" y="192" type="line"/>
      <point x="420" y="237" type="line"/>
      <point x="107" y="550" type="line"/>
      <point x="62" y="504" type="line"/>
    </contour>
    <contour>
      <point x="107" y="192" type="line"/>
      <point x="420" y="504" type="line"/>
      <point x="374" y="550" type="line"/>
      <point x="62" y="237" type="line"/>
    </contour>
  </outline>
</glyph>
<glyph name="Thorn" format="1">
  <advance width="689"/>
  <unicode hex="00DE"/>
  <outline>
    <contour>
      <point x="301" y="119" type="curve" smooth="yes"/>
      <point x="546" y="119"/>
      <point x="649" y="194"/>
      <point x="649" y="371" type="curve" smooth="yes"/>
      <point x="649" y="546"/>
      <point x="541" y="623"/>
      <point x="294" y="623" type="curve" smooth="yes"/>
      <point x="231" y="623"/>
      <point x="164" y="618"/>
      <point x="94" y="608" type="curve"/>
      <point x="94" y="135" type="line"/>
      <point x="179" y="124"/>
      <point x="244" y="119"/>
    </contour>
    <contour>
      <point x="305" y="200" type="curve" smooth="yes"/>
      <point x="269" y="200"/>
      <point x="202" y="204"/>
      <point x="188" y="209" type="curve"/>
      <point x="188" y="534" type="line"/>
      <point x="211" y="539"/>
      <point x="265" y="541"/>
      <point x="297" y="541" type="curve" smooth="yes"/>
      <point x="487" y="541"/>
      <point x="555" y="497"/>
      <point x="555" y="371" type="curve" smooth="yes"/>
      <point x="555" y="242"/>
      <point x="493" y="200"/>
    </contour>
    <contour>
      <point x="94" y="0" type="line"/>
      <point x="188" y="0" type="line"/>
      <point x="188" y="741" type="line"/>
      <point x="94" y="741" type="line"/>
    </contour>
  </outline>
</glyph>
<glyph name="icircumflex" format="1">
  <advance width="255"/>
  <unicode hex="00EE"/>
  <outline>
    <contour>
      <point x="-41" y="630" type="line"/>
      <point x="129" y="705" type="line"/>
      <point x="299" y="630" type="line"/>
      <point x="299" y="703" type="line"/>
      <point x="128" y="778" type="line"/>
      <point x="-41" y="703" type="line"/>
    </contour>
    <component base="dotlessi"/>
  </outline>
</glyph>
<glyph name="idieresis" format="1">
  <advance width="255"/>
  <unicode hex="00EF"/>
  <outline>
    <contour>
      <point x="7" y="655" type="curve" smooth="yes"/>
      <point x="42" y="655"/>
      <point x="61" y="672"/>
      <point x="61" y="709" type="curve" smooth="yes"/>
      <point x="61" y="744"/>
      <point x="42" y="761"/>
      <point x="7" y="761" type="curve" smooth="yes"/>
      <point x="-29" y="761"/>
      <point x="-47" y="745"/>
      <point x="-47" y="709" type="curve" smooth="yes"/>
      <point x="-47" y="672"/>
      <point x="-29" y="655"/>
    </contour>
    <contour>
      <point x="250" y="655" type="curve" smooth="yes"/>
      <point x="285" y="655"/>
      <point x="304" y="672"/>
      <point x="304" y="709" type="curve" smooth="yes"/>
      <point x="304" y="744"/>
      <point x="285" y="761"/>
      <point x="250" y="761" type="curve" smooth="yes"/>
      <point x="214" y="761"/>
      <point x="196" y="745"/>
      <point x="196" y="709" type="curve" smooth="yes"/>
      <point x="196" y="672"/>
      <point x="214" y="655"/>
    </contour>
    <component base="dotlessi"/>
  </outline>
</glyph>
<glyph name="eth" format="1">
  <advance width="644"/>
  <unicode hex="00F0"/>
  <outline>
    <contour>
      <point x="314" y="-10" type="curve" smooth="yes"/>
      <point x="485" y="-10"/>
      <point x="580" y="101"/>
      <point x="580" y="306" type="curve" smooth="yes"/>
      <point x="580" y="549"/>
      <point x="472" y="717"/>
      <point x="392" y="808" type="curve"/>
      <point x="293" y="808" type="line"/>
      <point x="398" y="701"/>
      <point x="459" y="587"/>
      <point x="484" y="450" type="curve"/>
      <point x="446" y="519"/>
      <point x="392" y="550"/>
      <point x="307" y="550" type="curve" smooth="yes"/>
      <point x="145" y="550"/>
      <point x="49" y="448"/>
      <point x="49" y="269" type="curve" smooth="yes"/>
      <point x="49" y="90"/>
      <point x="145" y="-10"/>
    </contour>
    <contour>
      <point x="315" y="65" type="curve" smooth="yes"/>
      <point x="197" y="65"/>
      <point x="144" y="130"/>
      <point x="144" y="270" type="curve" smooth="yes"/>
      <point x="144" y="409"/>
      <point x="197" y="474"/>
      <point x="314" y="474" type="curve" smooth="yes"/>
      <point x="426" y="474"/>
      <point x="486" y="395"/>
      <point x="486" y="289" type="curve" smooth="yes"/>
      <point x="486" y="137"/>
      <point x="432" y="65"/>
    </contour>
    <contour>
      <point x="223" y="621" type="line"/>
      <point x="623" y="662" type="line"/>
      <point x="623" y="726" type="line"/>
      <point x="223" y="685" type="line"/>
    </contour>
  </outline>
</glyph>
<glyph name="divide" format="1">
  <advance width="530"/>
  <unicode hex="00F7"/>
  <outline>
    <contour>
      <point x="268" y="160" type="curve" smooth="yes"/>
      <point x="296" y="160"/>
      <point x="315" y="176"/>
      <point x="315" y="207" type="curve" smooth="yes"/>
      <point x="315" y="237"/>
      <point x="296" y="254"/>
      <point x="268" y="254" type="curve" smooth="yes"/>
      <point x="240" y="254"/>
      <point x="221" y="238"/>
      <point x="221" y="207" type="curve" smooth="yes"/>
      <point x="221" y="176"/>
      <point x="240" y="160"/>
    </contour>
    <contour>
      <point x="67" y="338" type="line"/>
      <point x="464" y="338" type="line"/>
      <point x="464" y="402" type="line"/>
      <point x="67" y="402" type="line"/>
    </contour>
    <contour>
      <point x="268" y="480" type="curve" smooth="yes"/>
      <point x="296" y="480"/>
      <point x="315" y="497"/>
      <point x="315" y="527" type="curve" smooth="yes"/>
      <point x="315" y="557"/>
      <point x="296" y="575"/>
      <point x="268" y="575" type="curve" smooth="yes"/>
      <point x="240" y="575"/>
      <point x="221" y="558"/>
      <point x="221" y="527" type="curve" smooth="yes"/>
      <point x="221" y="497"/>
      <point x="240" y="480"/>
    </contour>
  </outline>
</glyph>
<glyph name="thorn" format="1">
  <advance width="643"/>
  <unicode hex="00FE"/>
  <outline>
    <contour>
      <point x="80" y="-220" type="line"/>
      <point x="172" y="-220" type="line"/>
      <point x="172" y="0" type="line"/>
      <point x="209" y="-3"/>
      <point x="262" y="-10"/>
      <point x="305" y="-10" type="curve" smooth="yes"/>
      <point x="492" y="-10"/>
      <point x="593" y="83"/>
      <point x="593" y="273" type="curve" smooth="yes"/>
      <point x="593" y="464"/>
      <point x="514" y="550"/>
      <point x="359" y="550" type="curve" smooth="yes"/>
      <point x="267" y="550"/>
      <point x="206" y="518"/>
      <point x="168" y="474" type="curve"/>
      <point x="172" y="471" type="line"/>
      <point x="172" y="808" type="line"/>
      <point x="80" y="808" type="line"/>
    </contour>
    <contour>
      <point x="305" y="58" type="curve" smooth="yes"/>
      <point x="265" y="58"/>
      <point x="212" y="64"/>
      <point x="172" y="72" type="curve"/>
      <point x="172" y="315" type="line" smooth="yes"/>
      <point x="172" y="421"/>
      <point x="233" y="479"/>
      <point x="334" y="479" type="curve" smooth="yes"/>
      <point x="447" y="479"/>
      <point x="499" y="431"/>
      <point x="499" y="266" type="curve" smooth="yes"/>
      <point x="499" y="103"/>
      <point x="436" y="58"/>
    </contour>
  </outline>
</glyph>
<glyph name="Dcroat" format="1">
  <advance width="788"/>
  <unicode hex="0110"/>
  <outline>
    <contour>
      <point x="6" y="332" type="line"/>
      <point x="393" y="332" type="line"/>
      <point x="393" y="408" type="line"/>
      <point x="6" y="408" type="line"/>
    </contour>
    <component base="D" xOffset="11"/>
  </outline>
</glyph>
<glyph name="dcroat" format="1">
  <advance width="644"/>
  <unicode hex="0111"/>
  <outline>
    <contour>
      <point x="271" y="644" type="line"/>
      <point x="646" y="644" type="line"/>
      <point x="646" y="704" type="line"/>
      <point x="271" y="704" type="line"/>
    </contour>
    <component base="d"/>
  </outline>
</glyph>
<glyph name="itilde" format="1">
  <advance width="255"/>
  <unicode hex="0129"/>
  <outline>
    <contour>
      <point x="-61" y="653" type="line"/>
      <point x="-29" y="680"/>
      <point x="1" y="690"/>
      <point x="32" y="690" type="curve" smooth="yes"/>
      <point x="88" y="690"/>
      <point x="146" y="649"/>
      <point x="205" y="649" type="curve" smooth="yes"/>
      <point x="252" y="649"/>
      <point x="302" y="677"/>
      <point x="341" y="727" type="curve"/>
      <point x="317" y="755" type="line"/>
      <point x="284" y="729"/>
      <point x="253" y="718"/>
      <point x="222" y="718" type="curve" smooth="yes"/>
      <point x="160" y="718"/>
      <point x="111" y="759"/>
      <point x="46" y="759" type="curve" smooth="yes"/>
      <point x="1" y="759"/>
      <point x="-45" y="734"/>
      <point x="-84" y="681" type="curve"/>
    </contour>
    <component base="dotlessi"/>
  </outline>
</glyph>
<glyph name="Lslash" format="1">
  <advance width="590"/>
  <unicode hex="0141"/>
  <outline>
    <contour>
      <point x="16" y="225" type="line"/>
      <point x="387" y="437" type="line"/>
      <point x="387" y="513" type="line"/>
      <point x="16" y="302" type="line"/>
    </contour>
    <component base="L" xOffset="21"/>
  </outline>
</glyph>
<glyph name="Eng" format="1">
  <advance width="822"/>
  <unicode hex="014A"/>
  <outline>
    <contour>
      <point x="629" y="-193" type="line"/>
      <point x="686" y="-115"/>
      <point x="730" y="9"/>
      <point x="730" y="92" type="curve"/>
      <point x="730" y="740" type="line"/>
      <point x="644" y="740" type="line"/>
      <point x="644" y="137" type="line"/>
      <point x="637" y="137" type="line"/>
      <point x="572" y="227" type="line"/>
      <point x="170" y="740" type="line"/>
      <point x="94" y="740" type="line"/>
      <point x="94" y="0" type="line"/>
      <point x="180" y="0" type="line"/>
      <point x="180" y="601" type="line"/>
      <point x="186" y="601" type="line"/>
      <point x="250" y="514" type="line"/>
      <point x="632" y="24" type="line"/>
      <point x="626" y="-30"/>
      <point x="599" y="-106"/>
      <point x="562" y="-173" type="curve"/>
    </contour>
  </outline>
</glyph>
<glyph name="eng" format="1">
  <advance width="646"/>
  <unicode hex="014B"/>
  <outline>
    <contour>
      <point x="488" y="-219" type="line"/>
      <point x="532" y="-151"/>
      <point x="567" y="-34"/>
      <point x="571" y="66" type="curve"/>
      <point x="571" y="400" type="line" smooth="yes"/>
      <point x="571" y="498"/>
      <point x="517" y="550"/>
      <point x="420" y="550" type="curve" smooth="yes"/>
      <point x="356" y="550"/>
      <point x="287" y="530"/>
      <point x="167" y="477" type="curve"/>
      <point x="163" y="477" type="line"/>
      <point x="157" y="540" type="line"/>
      <point x="80" y="540" type="line"/>
      <point x="80" y="0" type="line"/>
      <point x="173" y="0" type="line"/>
      <point x="173" y="407" type="line"/>
      <point x="258" y="444"/>
      <point x="331" y="463"/>
      <point x="385" y="463" type="curve" smooth="yes"/>
      <point x="453" y="463"/>
      <point x="478" y="434"/>
      <point x="478" y="349" type="curve" smooth="yes"/>
      <point x="478" y="106" type="line"/>
      <point x="478" y="-13"/>
      <point x="453" y="-118"/>
      <point x="415" y="-204" type="curve"/>
    </contour>
  </outline>
</glyph>
<glyph name="OE" format="1">
  <advance width="1051"/>
  <unicode hex="0152"/>
  <outline>
    <contour>
      <point x="399" y="-10" type="curve" smooth="yes"/>
      <point x="440" y="-10"/>
      <point x="476" y="-6"/>
      <point x="510" y="0" type="curve"/>
      <point x="996" y="0" type="line"/>
      <point x="996" y="77" type="line"/>
      <point x="604" y="77" type="line"/>
      <point x="604" y="337" type="line"/>
      <point x="963" y="337" type="line"/>
      <point x="963" y="414" type="line"/>
      <point x="604" y="414" type="line"/>
      <point x="604" y="663" type="line"/>
      <point x="987" y="663" type="line"/>
      <point x="987" y="740" type="line"/>
      <point x="510" y="740" type="line"/>
      <point x="475" y="748"/>
      <point x="442" y="750"/>
      <point x="399" y="750" type="curve" smooth="yes"/>
      <point x="180" y="750"/>
      <point x="53" y="616"/>
      <point x="53" y="369" type="curve" smooth="yes"/>
      <point x="53" y="122"/>
      <point x="180" y="-10"/>
    </contour>
    <contour>
      <point x="399" y="69" type="curve" smooth="yes"/>
      <point x="234" y="69"/>
      <point x="149" y="169"/>
      <point x="149" y="369" type="curve" smooth="yes"/>
      <point x="149" y="571"/>
      <point x="234" y="671"/>
      <point x="399" y="671" type="curve" smooth="yes"/>
      <point x="443" y="671"/>
      <point x="477" y="669"/>
      <point x="510" y="660" type="curve"/>
      <point x="510" y="80" type="line"/>
      <point x="478" y="71"/>
      <point x="442" y="69"/>
    </contour>
  </outline>
</glyph>
<glyph name="oe" format="1">
  <advance width="1015"/>
  <unicode hex="0153"/>
  <outline>
    <contour>
      <point x="753" y="-9" type="curve" smooth="yes"/>
      <point x="814" y="-9"/>
      <point x="889" y="3"/>
      <point x="947" y="23" type="curve"/>
      <point x="942" y="93" type="line"/>
      <point x="883" y="75"/>
      <point x="818" y="66"/>
      <point x="762" y="66" type="curve" smooth="yes"/>
      <point x="643" y="66"/>
      <point x="585" y="120"/>
      <point x="580" y="241" type="curve"/>
      <point x="959" y="241" type="line"/>
      <point x="964" y="258"/>
      <point x="965" y="281"/>
      <point x="965" y="310" type="curve" smooth="yes"/>
      <point x="965" y="465"/>
      <point x="889" y="549"/>
      <point x="748" y="549" type="curve" smooth="yes"/>
      <point x="643" y="549"/>
      <point x="570" y="505"/>
      <point x="536" y="428" type="curve"/>
      <point x="530" y="428" type="line"/>
      <point x="496" y="505"/>
      <point x="420" y="550"/>
      <point x="315" y="550" type="curve" smooth="yes"/>
      <point x="144" y="550"/>
      <point x="49" y="450"/>
      <point x="49" y="270" type="curve" smooth="yes"/>
      <point x="49" y="90"/>
      <point x="144" y="-10"/>
      <point x="315" y="-10" type="curve" smooth="yes"/>
      <point x="419" y="-10"/>
      <point x="493" y="33"/>
      <point x="529" y="108" type="curve"/>
      <point x="534" y="108" type="line"/>
      <point x="568" y="33"/>
      <point x="642" y="-9"/>
    </contour>
    <contour>
      <point x="315" y="65" type="curve" smooth="yes"/>
      <point x="198" y="65"/>
      <point x="144" y="129"/>
      <point x="144" y="270" type="curve" smooth="yes"/>
      <point x="144" y="411"/>
      <point x="198" y="474"/>
      <point x="315" y="474" type="curve" smooth="yes"/>
      <point x="433" y="474"/>
      <point x="486" y="411"/>
      <point x="486" y="270" type="curve" smooth="yes"/>
      <point x="486" y="129"/>
      <point x="433" y="65"/>
    </contour>
    <contour>
      <point x="579" y="296" type="line"/>
      <point x="585" y="419"/>
      <point x="640" y="479"/>
      <point x="744" y="479" type="curve" smooth="yes"/>
      <point x="838" y="479"/>
      <point x="877" y="428"/>
      <point x="881" y="296" type="curve"/>
    </contour>
  </outline>
</glyph>
<glyph name="Tbar" format="1">
  <advance width="652"/>
  <unicode hex="0166"/>
  <outline>
    <contour>
      <point x="134" y="350" type="line"/>
      <point x="527" y="350" type="line"/>
      <point x="527" y="412" type="line"/>
      <point x="134" y="412" type="line"/>
    </contour>
    <component base="T" xOffset="4"/>
  </outline>
</glyph>
<glyph name="tbar" format="1">
  <advance width="432"/>
  <unicode hex="0167"/>
  <outline>
    <contour>
      <point x="29" y="278" type="line"/>
      <point x="386" y="278" type="line"/>
      <point x="386" y="339" type="line"/>
      <point x="29" y="339" type="line"/>
    </contour>
    <component base="t" xOffset="9"/>
  </outline>
</glyph>
<glyph name="iinvertedbreve" format="1">
  <advance width="255"/>
  <unicode hex="020B"/>
  <outline>
    <contour>
      <point x="-44" y="628" type="curve"/>
      <point x="13" y="628" type="line"/>
      <point x="13" y="704"/>
      <point x="52" y="733"/>
      <point x="129" y="733" type="curve" smooth="yes"/>
      <point x="206" y="733"/>
      <point x="245" y="704"/>
      <point x="245" y="628" type="curve"/>
      <point x="302" y="628" type="line"/>
      <point x="302" y="723"/>
      <point x="251" y="785"/>
      <point x="129" y="785" type="curve" smooth="yes"/>
      <point x="8" y="785"/>
      <point x="-44" y="723"/>
    </contour>
    <component base="dotlessi"/>
  </outline>
</glyph>
<glyph name="dotlessj" format="1">
  <advance width="252"/>
  <unicode hex="0237"/>
  <outline>
    <contour>
      <point x="126" y="626" type="move" name="top"/>
    </contour>
    <contour>
      <point x="82" y="-220" type="line"/>
      <point x="137" y="-129"/>
      <point x="168" y="-26"/>
      <point x="172" y="86" type="curve"/>
      <point x="172" y="540" type="line"/>
      <point x="80" y="540" type="line"/>
      <point x="81" y="479"/>
      <point x="81" y="155"/>
      <point x="81" y="134" type="curve" smooth="yes"/>
      <point x="81" y="-13"/>
      <point x="61" y="-100"/>
      <point x="14" y="-200" type="curve"/>
    </contour>
  </outline>
</glyph>
<glyph name="circumflex" format="1">
  <advance width="486"/>
  <unicode hex="02C6"/>
  <outline>
    <contour>
      <point x="241" y="622" type="move" name="_top"/>
    </contour>
    <contour>
      <point x="65" y="630" type="line"/>
      <point x="241" y="705" type="line"/>
      <point x="417" y="630" type="line"/>
      <point x="417" y="703" type="line"/>
      <point x="240" y="778" type="line"/>
      <point x="65" y="703" type="line"/>
    </contour>
  </outline>
</glyph>
<glyph name="breve" format="1">
  <advance width="508"/>
  <unicode hex="02D8"/>
  <outline>
    <contour>
      <point x="253" y="622" type="move" name="_top"/>
    </contour>
    <contour>
      <point x="253" y="618" type="curve" smooth="yes"/>
      <point x="391" y="618"/>
      <point x="446" y="680"/>
      <point x="446" y="775" type="curve"/>
      <point x="378" y="775" type="line"/>
      <point x="378" y="699"/>
      <point x="335" y="670"/>
      <point x="253" y="670" type="curve" smooth="yes"/>
      <point x="169" y="670"/>
      <point x="127" y="699"/>
      <point x="127" y="775" type="curve"/>
      <point x="59" y="775" type="line"/>
      <point x="59" y="680"/>
      <point x="115" y="618"/>
    </contour>
  </outline>
</glyph>
<glyph name="dotaccent" format="1">
  <advance width="262"/>
  <unicode hex="02D9"/>
  <outline>
    <contour>
      <point x="125" y="622" type="move" name="_top"/>
    </contour>
    <contour>
      <point x="125" y="650" type="curve" smooth="yes"/>
      <point x="164" y="650"/>
      <point x="185" y="668"/>
      <point x="185" y="709" type="curve" smooth="yes"/>
      <point x="185" y="749"/>
      <point x="164" y="767"/>
      <point x="125" y="767" type="curve" smooth="yes"/>
      <point x="85" y="767"/>
      <point x="65" y="749"/>
      <point x="65" y="709" type="curve" smooth="yes"/>
      <point x="65" y="668"/>
      <point x="85" y="650"/>
    </contour>
  </outline>
</glyph>
<glyph name="ring" format="1">
  <advance width="366"/>
  <unicode hex="02DA"/>
  <outline>
    <contour>
      <point x="181" y="622" type="move" name="_top"/>
    </contour>
    <contour>
      <point x="182" y="598" type="curve" smooth="yes"/>
      <point x="254" y="598"/>
      <point x="309" y="644"/>
      <point x="309" y="707" type="curve" smooth="yes"/>
      <point x="309" y="771"/>
      <point x="254" y="818"/>
      <point x="182" y="818" type="curve" smooth="yes"/>
      <point x="109" y="818"/>
      <point x="53" y="771"/>
      <point x="53" y="707" type="curve" smooth="yes"/>
      <point x="53" y="644"/>
      <point x="109" y="598"/>
    </contour>
    <contour>
      <point x="182" y="643" type="curve" smooth="yes"/>
      <point x="131" y="643"/>
      <point x="104" y="666"/>
      <point x="104" y="707" type="curve" smooth="yes"/>
      <point x="104" y="749"/>
      <point x="131" y="773"/>
      <point x="182" y="773" type="curve" smooth="yes"/>
      <point x="232" y="773"/>
      <point x="258" y="749"/>
      <point x="258" y="707" type="curve" smooth="yes"/>
      <point x="258" y="666"/>
      <point x="232" y="643"/>
    </contour>
  </outline>
</glyph>
<glyph name="uni0394" format="1">
  <advance width="752"/>
  <unicode hex="0394"/>
  <outline>
    <contour>
      <point x="4" y="0" type="line"/>
      <point x="748" y="0" type="line"/>
      <point x="432" y="740" type="line"/>
      <point x="320" y="740" type="line"/>
    </contour>
    <contour>
      <point x="125" y="76" type="line"/>
      <point x="376" y="660" type="line"/>
      <point x="626" y="76" type="line"/>
    </contour>
  </outline>
</glyph>
<glyph name="uni03A9" format="1">
  <advance width="801"/>
  <unicode hex="03A9"/>
  <outline>
    <contour>
      <point x="51" y="0" type="line"/>
      <point x="342" y="0" type="line"/>
      <point x="342" y="62" type="line"/>
      <point x="287" y="97"/>
      <point x="152" y="191"/>
      <point x="152" y="401" type="curve" smooth="yes"/>
      <point x="152" y="565"/>
      <point x="249" y="671"/>
      <point x="400" y="671" type="curve" smooth="yes"/>
      <point x="553" y="671"/>
      <point x="650" y="565"/>
      <point x="650" y="401" type="curve" smooth="yes"/>
      <point x="650" y="252"/>
      <point x="587" y="142"/>
      <point x="459" y="62" type="curve"/>
      <point x="459" y="0" type="line"/>
      <point x="749" y="0" type="line"/>
      <point x="749" y="72" type="line"/>
      <point x="545" y="68" type="line"/>
      <point x="667" y="144"/>
      <point x="738" y="266"/>
      <point x="738" y="410" type="curve" smooth="yes"/>
      <point x="738" y="615"/>
      <point x="604" y="750"/>
      <point x="400" y="750" type="curve" smooth="yes"/>
      <point x="196" y="750"/>
      <point x="62" y="615"/>
      <point x="62" y="410" type="curve" smooth="yes"/>
      <point x="62" y="266"/>
      <point x="132" y="144"/>
      <point x="255" y="68" type="curve"/>
      <point x="51" y="72" type="line"/>
    </contour>
  </outline>
</glyph>
<glyph name="pi" format="1">
  <advance width="814"/>
  <unicode hex="03C0"/>
  <outline>
    <contour>
      <point x="218" y="-107" type="line"/>
      <point x="310" y="-107" type="line"/>
      <point x="310" y="464" type="line"/>
      <point x="537" y="464" type="line"/>
      <point x="537" y="131" type="line" smooth="yes"/>
      <point x="537" y="44"/>
      <point x="588" y="-5"/>
      <point x="680" y="-5" type="curve" smooth="yes"/>
      <point x="696" y="-5"/>
      <point x="725" y="-3"/>
      <point x="735" y="0" type="curve"/>
      <point x="735" y="75" type="line"/>
      <point x="728" y="72"/>
      <point x="711" y="71"/>
      <point x="705" y="71" type="curve" smooth="yes"/>
      <point x="658" y="71"/>
      <point x="630" y="99"/>
      <point x="630" y="147" type="curve" smooth="yes"/>
      <point x="630" y="464" type="line"/>
      <point x="788" y="464" type="line"/>
      <point x="788" y="512" type="line"/>
      <point x="752" y="540" type="line"/>
      <point x="182" y="540" type="line" smooth="yes"/>
      <point x="86" y="540"/>
      <point x="31" y="498"/>
      <point x="13" y="413" type="curve"/>
      <point x="77" y="390" type="line"/>
      <point x="91" y="443"/>
      <point x="123" y="464"/>
      <point x="187" y="464" type="curve" smooth="yes"/>
      <point x="218" y="464" type="line"/>
    </contour>
  </outline>
</glyph>
<glyph name="quoteleft" format="1">
  <advance width="223"/>
  <unicode hex="2018"/>
  <outline>
    <contour>
      <point x="70" y="515" type="curve"/>
      <point x="155" y="522" type="line"/>
      <point x="142" y="558"/>
      <point x="137" y="589"/>
      <point x="137" y="623" type="curve" smooth="yes"/>
      <point x="137" y="684"/>
      <point x="151" y="754"/>
      <point x="173" y="805" type="curve"/>
      <point x="120" y="810" type="line"/>
      <point x="81" y="752"/>
      <point x="59" y="669"/>
      <point x="59" y="602" type="curve" smooth="yes"/>
      <point x="59" y="568"/>
      <point x="63" y="539"/>
    </contour>
  </outline>
</glyph>
<glyph name="quoteright" format="1">
  <advance width="222"/>
  <unicode hex="2019"/>
  <outline>
    <contour>
      <point x="71" y="803" type="line"/>
      <point x="84" y="767"/>
      <point x="89" y="736"/>
      <point x="89" y="702" type="curve" smooth="yes"/>
      <point x="89" y="642"/>
      <point x="76" y="571"/>
      <point x="53" y="521" type="curve"/>
      <point x="106" y="515" type="line"/>
      <point x="145" y="573"/>
      <point x="168" y="656"/>
      <point x="168" y="723" type="curve" smooth="yes"/>
      <point x="168" y="758"/>
      <point x="164" y="786"/>
      <point x="156" y="810" type="curve"/>
    </contour>
  </outline>
</glyph>
<glyph name="daggerdbl" format="1">
  <advance width="621"/>
  <unicode hex="2021"/>
  <outline>
    <contour>
      <point x="270" y="-199" type="line"/>
      <point x="351" y="-199" type="line"/>
      <point x="351" y="-119" type="line"/>
      <point x="333" y="50" type="line"/>
      <point x="498" y="38" type="line"/>
      <point x="559" y="38" type="line"/>
      <point x="559" y="108" type="line"/>
      <point x="498" y="108" type="line"/>
      <point x="333" y="96" type="line"/>
      <point x="351" y="265" type="line"/>
      <point x="351" y="345" type="line"/>
      <point x="333" y="514" type="line"/>
      <point x="498" y="502" type="line"/>
      <point x="559" y="502" type="line"/>
      <point x="559" y="572" type="line"/>
      <point x="498" y="572" type="line"/>
      <point x="333" y="560" type="line"/>
      <point x="350" y="729" type="line"/>
      <point x="350" y="808" type="line"/>
      <point x="269" y="808" type="line"/>
      <point x="269" y="729" type="line"/>
      <point x="287" y="560" type="line"/>
      <point x="122" y="572" type="line"/>
      <point x="61" y="572" type="line"/>
      <point x="61" y="502" type="line"/>
      <point x="122" y="502" type="line"/>
      <point x="287" y="514" type="line"/>
      <point x="269" y="346" type="line"/>
      <point x="269" y="265" type="line"/>
      <point x="287" y="96" type="line"/>
      <point x="122" y="108" type="line"/>
      <point x="61" y="108" type="line"/>
      <point x="61" y="38" type="line"/>
      <point x="122" y="38" type="line"/>
      <point x="287" y="50" type="line"/>
      <point x="270" y="-119" type="line"/>
    </contour>
  </outline>
</glyph>
<glyph name="bullet" format="1">
  <advance width="347"/>
  <unicode hex="2022"/>
  <outline>
    <contour>
      <point x="174" y="286" type="curve" smooth="yes"/>
      <point x="222" y="286"/>
      <point x="259" y="309"/>
      <point x="259" y="370" type="curve" smooth="yes"/>
      <point x="259" y="431"/>
      <point x="222" y="455"/>
      <point x="174" y="455" type="curve" smooth="yes"/>
      <point x="125" y="455"/>
      <point x="88" y="431"/>
      <point x="88" y="370" type="curve" smooth="yes"/>
      <point x="88" y="309"/>
      <point x="125" y="286"/>
    </contour>
  </outline>
</glyph>
<glyph name="guilsinglright" format="1">
  <advance width="388"/>
  <unicode hex="203A"/>
  <outline>
    <contour>
      <point x="354" y="268" type="line"/>
      <point x="354" y="272" type="line"/>
      <point x="146" y="510" type="line"/>
      <point x="48" y="510" type="line"/>
      <point x="256" y="272" type="line"/>
      <point x="256" y="268" type="line"/>
      <point x="48" y="30" type="line"/>
      <point x="146" y="30" type="line"/>
    </contour>
  </outline>
</glyph>
<glyph name="foursuperior" format="1">
  <advance width="498"/>
  <unicode hex="2074"/>
  <outline>
    <contour>
      <point x="299" y="300" type="line"/>
      <point x="379" y="300" type="line"/>
      <point x="379" y="424" type="line"/>
      <point x="471" y="424" type="line"/>
      <point x="471" y="491" type="line"/>
      <point x="379" y="491" type="line"/>
      <point x="379" y="665" type="line"/>
      <point x="322" y="665" type="line"/>
      <point x="302" y="491" type="line"/>
      <point x="112" y="491" type="line"/>
      <point x="292" y="828" type="line"/>
      <point x="287" y="844" type="line"/>
      <point x="222" y="853" type="line"/>
      <point x="213" y="852" type="line"/>
      <point x="22" y="475" type="line"/>
      <point x="38" y="424" type="line"/>
      <point x="299" y="424" type="line"/>
    </contour>
  </outline>
</glyph>
<glyph name="sixsuperior" format="1">
  <advance width="514"/>
  <unicode hex="2076"/>
  <outline>
    <contour>
      <point x="267" y="293" type="curve" smooth="yes"/>
      <point x="394" y="293"/>
      <point x="476" y="366"/>
      <point x="476" y="479" type="curve" smooth="yes"/>
      <point x="476" y="579"/>
      <point x="400" y="642"/>
      <point x="284" y="642" type="curve" smooth="yes"/>
      <point x="233" y="642"/>
      <point x="176" y="623"/>
      <point x="129" y="590" type="curve"/>
      <point x="144" y="716"/>
      <point x="212" y="787"/>
      <point x="328" y="787" type="curve" smooth="yes"/>
      <point x="359" y="787"/>
      <point x="389" y="783"/>
      <point x="430" y="774" type="curve"/>
      <point x="439" y="841" type="line"/>
      <point x="396" y="850"/>
      <point x="361" y="854"/>
      <point x="326" y="854" type="curve" smooth="yes"/>
      <point x="146" y="854"/>
      <point x="47" y="742"/>
      <point x="47" y="543" type="curve" smooth="yes"/>
      <point x="47" y="377"/>
      <point x="124" y="293"/>
    </contour>
    <contour>
      <point x="267" y="359" type="curve" smooth="yes"/>
      <point x="177" y="359"/>
      <point x="132" y="414"/>
      <point x="129" y="530" type="curve"/>
      <point x="167" y="561"/>
      <point x="221" y="579"/>
      <point x="267" y="579" type="curve" smooth="yes"/>
      <point x="347" y="579"/>
      <point x="392" y="543"/>
      <point x="392" y="478" type="curve" smooth="yes"/>
      <point x="392" y="405"/>
      <point x="345" y="359"/>
    </contour>
  </outline>
</glyph>
<glyph name="oneinferior" format="1">
  <advance width="345"/>
  <unicode hex="2081"/>
  <outline>
    <contour>
      <point x="181" y="-100" type="line"/>
      <point x="261" y="-100" type="line"/>
      <point x="261" y="446" type="line"/>
      <point x="202" y="446" type="line"/>
      <point x="23" y="352" type="line"/>
      <point x="23" y="342" type="line"/>
      <point x="33" y="297" type="line"/>
      <point x="40" y="297" type="line"/>
      <point x="181" y="357" type="line"/>
    </contour>
  </outline>
</glyph>
<glyph name="twoinferior" format="1">
  <advance width="463"/>
  <unicode hex="2082"/>
  <outline>
    <contour>
      <point x="42" y="-98" type="line"/>
      <point x="415" y="-98" type="line"/>
      <point x="415" y="-29" type="line"/>
      <point x="143" y="-29" type="line"/>
      <point x="143" y="0" type="line" smooth="yes"/>
      <point x="143" y="50"/>
      <point x="173" y="83"/>
      <point x="263" y="128" type="curve" smooth="yes"/>
      <point x="371" y="181"/>
      <point x="413" y="228"/>
      <point x="413" y="301" type="curve" smooth="yes"/>
      <point x="413" y="402"/>
      <point x="352" y="452"/>
      <point x="228" y="452" type="curve" smooth="yes"/>
      <point x="179" y="452"/>
      <point x="126" y="446"/>
      <point x="58" y="431" type="curve"/>
      <point x="68" y="361" type="line"/>
      <point x="131" y="374"/>
      <point x="177" y="380"/>
      <point x="217" y="380" type="curve" smooth="yes"/>
      <point x="293" y="380"/>
      <point x="332" y="352"/>
      <point x="332" y="296" type="curve" smooth="yes"/>
      <point x="332" y="255"/>
      <point x="306" y="228"/>
      <point x="215" y="185" type="curve" smooth="yes"/>
      <point x="91" y="126"/>
      <point x="42" y="68"/>
      <point x="42" y="-22" type="curve" smooth="yes"/>
    </contour>
  </outline>
</glyph>
<glyph name="fiveinferior" format="1">
  <advance width="448"/>
  <unicode hex="2085"/>
  <outline>
    <contour>
      <point x="179" y="-108" type="curve" smooth="yes"/>
      <point x="312" y="-108"/>
      <point x="408" y="-64"/>
      <point x="408" y="64" type="curve" smooth="yes"/>
      <point x="408" y="182"/>
      <point x="330" y="222"/>
      <point x="134" y="224" type="curve"/>
      <point x="144" y="376" type="line"/>
      <point x="382" y="376" type="line"/>
      <point x="382" y="446" type="line"/>
      <point x="81" y="446" type="line"/>
      <point x="59" y="174" type="line"/>
      <point x="71" y="164" type="line"/>
      <point x="147" y="162" type="line" smooth="yes"/>
      <point x="270" y="160"/>
      <point x="324" y="135"/>
      <point x="324" y="65" type="curve" smooth="yes"/>
      <point x="324" y="-11"/>
      <point x="273" y="-38"/>
      <point x="170" y="-38" type="curve" smooth="yes"/>
      <point x="136" y="-38"/>
      <point x="101" y="-34"/>
      <point x="63" y="-28" type="curve"/>
      <point x="45" y="-28" type="line"/>
      <point x="45" y="-96" type="line"/>
      <point x="90" y="-103"/>
      <point x="138" y="-108"/>
    </contour>
  </outline>
</glyph>
<glyph name="sixinferior" format="1">
  <advance width="514"/>
  <unicode hex="2086"/>
  <outline>
    <contour>
      <point x="267" y="-107" type="curve" smooth="yes"/>
      <point x="394" y="-107"/>
      <point x="476" y="-34"/>
      <point x="476" y="79" type="curve" smooth="yes"/>
      <point x="476" y="179"/>
      <point x="400" y="242"/>
      <point x="284" y="242" type="curve" smooth="yes"/>
      <point x="233" y="242"/>
      <point x="176" y="223"/>
      <point x="129" y="190" type="curve"/>
      <point x="144" y="316"/>
      <point x="212" y="387"/>
      <point x="328" y="387" type="curve" smooth="yes"/>
      <point x="359" y="387"/>
      <point x="389" y="383"/>
      <point x="430" y="374" type="curve"/>
      <point x="439" y="441" type="line"/>
      <point x="396" y="450"/>
      <point x="361" y="454"/>
      <point x="326" y="454" type="curve" smooth="yes"/>
      <point x="146" y="454"/>
      <point x="47" y="342"/>
      <point x="47" y="143" type="curve" smooth="yes"/>
      <point x="47" y="-23"/>
      <point x="124" y="-107"/>
    </contour>
    <contour>
      <point x="267" y="-41" type="curve" smooth="yes"/>
      <point x="177" y="-41"/>
      <point x="132" y="14"/>
      <point x="129" y="130" type="curve"/>
      <point x="167" y="161"/>
      <point x="221" y="179"/>
      <point x="267" y="179" type="curve" smooth="yes"/>
      <point x="347" y="179"/>
      <point x="392" y="143"/>
      <point x="392" y="78" type="curve" smooth="yes"/>
      <point x="392" y="5"/>
      <point x="345" y="-41"/>
    </contour>
  </outline>
</glyph>
<glyph name="seveninferior" format="1">
  <advance width="404"/>
  <unicode hex="2087"/>
  <outline>
    <contour>
      <point x="154" y="-113" type="line"/>
      <point x="99" y="-102" type="line"/>
      <point x="94" y="-83" type="line"/>
      <point x="316" y="407" type="line"/>
      <point x="322" y="371" type="line"/>
      <point x="29" y="371" type="line"/>
      <point x="25" y="429" type="line"/>
      <point x="33" y="439" type="line"/>
      <point x="367" y="439" type="line"/>
      <point x="382" y="403" type="line"/>
      <point x="382" y="376" type="line"/>
      <point x="175" y="-102" type="line"/>
    </contour>
  </outline>
</glyph>
<glyph name="eightinferior" format="1">
  <advance width="513"/>
  <unicode hex="2088"/>
  <outline>
    <contour>
      <point x="258" y="-104" type="curve" smooth="yes"/>
      <point x="390" y="-104"/>
      <point x="468" y="-53"/>
      <point x="468" y="48" type="curve" smooth="yes"/>
      <point x="468" y="117"/>
      <point x="426" y="154"/>
      <point x="371" y="179" type="curve"/>
      <point x="409" y="201"/>
      <point x="448" y="239"/>
      <point x="448" y="308" type="curve" smooth="yes"/>
      <point x="448" y="406"/>
      <point x="371" y="454"/>
      <point x="258" y="454" type="curve" smooth="yes"/>
      <point x="141" y="454"/>
      <point x="62" y="406"/>
      <point x="62" y="308" type="curve" smooth="yes"/>
      <point x="62" y="248"/>
      <point x="92" y="211"/>
      <point x="136" y="187" type="curve"/>
      <point x="92" y="165"/>
      <point x="46" y="123"/>
      <point x="46" y="46" type="curve" smooth="yes"/>
      <point x="46" y="-57"/>
      <point x="124" y="-104"/>
    </contour>
    <contour>
      <point x="258" y="-41" type="curve" smooth="yes"/>
      <point x="179" y="-41"/>
      <point x="128" y="-11"/>
      <point x="128" y="53" type="curve" smooth="yes"/>
      <point x="128" y="122"/>
      <point x="188" y="150"/>
      <point x="212" y="161" type="curve"/>
      <point x="223" y="157"/>
      <point x="239" y="153"/>
      <point x="250" y="149" type="curve" smooth="yes"/>
      <point x="326" y="129"/>
      <point x="386" y="110"/>
      <point x="386" y="50" type="curve" smooth="yes"/>
      <point x="386" y="-11"/>
      <point x="336" y="-41"/>
    </contour>
    <contour>
      <point x="290" y="200" type="curve"/>
      <point x="286" y="201"/>
      <point x="277" y="203"/>
      <point x="273" y="205" type="curve" smooth="yes"/>
      <point x="204" y="223"/>
      <point x="144" y="243"/>
      <point x="144" y="307" type="curve" smooth="yes"/>
      <point x="144" y="364"/>
      <point x="192" y="391"/>
      <point x="258" y="391" type="curve" smooth="yes"/>
      <point x="320" y="391"/>
      <point x="366" y="364"/>
      <point x="366" y="306" type="curve" smooth="yes"/>
      <point x="366" y="243"/>
      <point x="312" y="211"/>
    </contour>
  </outline>
</glyph>
<glyph name="nineinferior" format="1">
  <advance width="513"/>
  <unicode hex="2089"/>
  <outline>
    <contour>
      <point x="187" y="-107" type="curve" smooth="yes"/>
      <point x="367" y="-107"/>
      <point x="466" y="4"/>
      <point x="466" y="204" type="curve" smooth="yes"/>
      <point x="466" y="368"/>
      <point x="391" y="454"/>
      <point x="246" y="454" type="curve" smooth="yes"/>
      <point x="120" y="454"/>
      <point x="38" y="381"/>
      <point x="38" y="268" type="curve" smooth="yes"/>
      <point x="38" y="168"/>
      <point x="113" y="105"/>
      <point x="230" y="105" type="curve" smooth="yes"/>
      <point x="280" y="105"/>
      <point x="338" y="124"/>
      <point x="384" y="157" type="curve"/>
      <point x="369" y="31"/>
      <point x="301" y="-40"/>
      <point x="185" y="-40" type="curve" smooth="yes"/>
      <point x="156" y="-40"/>
      <point x="131" y="-36"/>
      <point x="83" y="-27" type="curve"/>
      <point x="74" y="-95" type="line"/>
      <point x="119" y="-103"/>
      <point x="154" y="-107"/>
    </contour>
    <contour>
      <point x="247" y="167" type="curve" smooth="yes"/>
      <point x="166" y="167"/>
      <point x="121" y="204"/>
      <point x="121" y="269" type="curve" smooth="yes"/>
      <point x="121" y="342"/>
      <point x="169" y="388"/>
      <point x="246" y="388" type="curve" smooth="yes"/>
      <point x="336" y="388"/>
      <point x="382" y="332"/>
      <point x="384" y="217" type="curve"/>
      <point x="345" y="187"/>
      <point x="291" y="167"/>
    </contour>
  </outline>
</glyph>
<glyph name="uni20B9" format="1">
  <advance width="713"/>
  <unicode hex="20B9"/>
  <outline>
    <contour>
      <point x="72" y="664" type="line"/>
      <point x="124" y="667"/>
      <point x="156" y="668"/>
      <point x="199" y="668" type="curve" smooth="yes"/>
      <point x="377" y="668"/>
      <point x="441" y="628"/>
      <point x="441" y="508" type="curve" smooth="yes"/>
      <point x="441" y="389"/>
      <point x="374" y="351"/>
      <point x="186" y="351" type="curve" smooth="yes"/>
      <point x="72" y="351" type="line"/>
      <point x="72" y="276" type="line"/>
      <point x="326" y="276" type="line"/>
      <point x="356" y="284" type="line"/>
      <point x="356" y="295" type="line"/>
      <point x="482" y="325"/>
      <point x="545" y="402"/>
      <point x="545" y="510" type="curve" smooth="yes"/>
      <point x="545" y="608"/>
      <point x="505" y="677"/>
      <point x="419" y="715" type="curve"/>
      <point x="73" y="715" type="line"/>
    </contour>
    <contour>
      <point x="447" y="0" type="line"/>
      <point x="565" y="0" type="line"/>
      <point x="331" y="326" type="line"/>
      <point x="239" y="298" type="line"/>
    </contour>
    <contour>
      <point x="73" y="679" type="line"/>
      <point x="663" y="679" type="line"/>
      <point x="683" y="740" type="line"/>
      <point x="73" y="740" type="line"/>
    </contour>
    <contour>
      <point x="73" y="477" type="line"/>
      <point x="631" y="477" type="line"/>
      <point x="651" y="539" type="line"/>
      <point x="73" y="539" type="line"/>
    </contour>
  </outline>
</glyph>
<glyph name="trademark" format="1">
  <advance width="976"/>
  <unicode hex="2122"/>
  <outline>
    <contour>
      <point x="449" y="320" type="line"/>
      <point x="511" y="320" type="line"/>
      <point x="511" y="645" type="line"/>
      <point x="645" y="336" type="line"/>
      <point x="700" y="336" type="line"/>
      <point x="834" y="645" type="line"/>
      <point x="834" y="320" type="line"/>
      <point x="895" y="320" type="line"/>
      <point x="895" y="740" type="line"/>
      <point x="813" y="740" type="line"/>
      <point x="672" y="414" type="line"/>
      <point x="531" y="740" type="line"/>
      <point x="449" y="740" type="line"/>
    </contour>
    <contour>
      <point x="181" y="320" type="line"/>
      <point x="247" y="320" type="line"/>
      <point x="247" y="684" type="line"/>
      <point x="394" y="684" type="line"/>
      <point x="394" y="740" type="line"/>
      <point x="35" y="740" type="line"/>
      <point x="35" y="684" type="line"/>
      <point x="181" y="684" type="line"/>
    </contour>
  </outline>
</glyph>
<glyph name="Omega" format="1">
  <advance width="809"/>
  <unicode hex="2126"/>
  <outline>
    <contour>
      <point x="56" y="0" type="line"/>
      <point x="346" y="0" type="line"/>
      <point x="346" y="62" type="line"/>
      <point x="291" y="97"/>
      <point x="156" y="191"/>
      <point x="156" y="401" type="curve" smooth="yes"/>
      <point x="156" y="565"/>
      <point x="253" y="671"/>
      <point x="405" y="671" type="curve" smooth="yes"/>
      <point x="557" y="671"/>
      <point x="655" y="565"/>
      <point x="655" y="401" type="curve" smooth="yes"/>
      <point x="655" y="252"/>
      <point x="591" y="142"/>
      <point x="463" y="62" type="curve"/>
      <point x="463" y="0" type="line"/>
      <point x="754" y="0" type="line"/>
      <point x="754" y="72" type="line"/>
      <point x="549" y="68" type="line"/>
      <point x="672" y="144"/>
      <point x="743" y="266"/>
      <point x="743" y="410" type="curve" smooth="yes"/>
      <point x="743" y="615"/>
      <point x="609" y="750"/>
      <point x="405" y="750" type="curve" smooth="yes"/>
      <point x="201" y="750"/>
      <point x="67" y="615"/>
      <point x="67" y="410" type="curve" smooth="yes"/>
      <point x="67" y="266"/>
      <point x="137" y="144"/>
      <point x="259" y="68" type="curve"/>
      <point x="56" y="72" type="line"/>
    </contour>
  </outline>
</glyph>
<glyph name="estimated" format="1">
  <advance width="679"/>
  <unicode hex="212E"/>
  <outline>
    <contour>
      <point x="346" y="1" type="curve" smooth="yes"/>
      <point x="450" y="1"/>
      <point x="529" y="48"/>
      <point x="604" y="154" type="curve"/>
      <point x="564" y="178" type="line"/>
      <point x="512" y="87"/>
      <point x="440" y="42"/>
      <point x="346" y="42" type="curve" smooth="yes"/>
      <point x="282" y="42"/>
      <point x="230" y="64"/>
      <point x="187" y="108" type="curve"/>
      <point x="187" y="313" type="line"/>
      <point x="634" y="313" type="line"/>
      <point x="625" y="504"/>
      <point x="513" y="626"/>
      <point x="346" y="626" type="curve" smooth="yes"/>
      <point x="177" y="626"/>
      <point x="59" y="497"/>
      <point x="59" y="313" type="curve" smooth="yes"/>
      <point x="59" y="135"/>
      <point x="182" y="1"/>
    </contour>
    <contour>
      <point x="187" y="354" type="line"/>
      <point x="187" y="518" type="line"/>
      <point x="230" y="563"/>
      <point x="282" y="586"/>
      <point x="345" y="586" type="curve" smooth="yes"/>
      <point x="406" y="586"/>
      <point x="459" y="563"/>
      <point x="506" y="518" type="curve"/>
      <point x="506" y="354" type="line"/>
    </contour>
  </outline>
</glyph>
<glyph name="arrowup" format="1">
  <advance width="653"/>
  <unicode hex="2191"/>
  <outline>
    <contour>
      <point x="290" y="75" type="line"/>
      <point x="364" y="75" type="line"/>
      <point x="360" y="620" type="line"/>
      <point x="575" y="391" type="line"/>
      <point x="625" y="441" type="line"/>
      <point x="338" y="726" type="line"/>
      <point x="316" y="726" type="line"/>
      <point x="29" y="441" type="line"/>
      <point x="78" y="391" type="line"/>
      <point x="294" y="620" type="line"/>
    </contour>
  </outline>
</glyph>
<glyph name="arrowright" format="1">
  <advance width="735"/>
  <unicode hex="2192"/>
  <outline>
    <contour>
      <point x="420" y="107" type="line"/>
      <point x="705" y="394" type="line"/>
      <point x="705" y="416" type="line"/>
      <point x="420" y="703" type="line"/>
      <point x="370" y="654" type="line"/>
      <point x="599" y="438" type="line"/>
      <point x="54" y="442" type="line"/>
      <point x="54" y="368" type="line"/>
      <point x="599" y="372" type="line"/>
      <point x="370" y="156" type="line"/>
    </contour>
  </outline>
</glyph>
<glyph name="Delta" format="1">
  <advance width="796"/>
  <unicode hex="2206"/>
  <outline>
    <contour>
      <point x="26" y="0" type="line"/>
      <point x="770" y="0" type="line"/>
      <point x="454" y="740" type="line"/>
      <point x="342" y="740" type="line"/>
    </contour>
    <contour>
      <point x="147" y="76" type="line"/>
      <point x="398" y="660" type="line"/>
      <point x="648" y="76" type="line"/>
    </contour>
  </outline>
</glyph>
<glyph name="radical" format="1">
  <advance width="720"/>
  <unicode hex="221A"/>
  <outline>
    <contour>
      <point x="338" y="0" type="line"/>
      <point x="456" y="0" type="line"/>
      <point x="708" y="851" type="line"/>
      <point x="620" y="851" type="line"/>
      <point x="394" y="70" type="line"/>
      <point x="188" y="511" type="line"/>
      <point x="14" y="437" type="line"/>
      <point x="43" y="369" type="line"/>
      <point x="138" y="411" type="line"/>
    </contour>
  </outline>
</glyph>
<glyph name="approxequal" format="1">
  <advance width="535"/>
  <unicode hex="2248"/>
  <outline>
    <contour>
      <point x="74" y="418" type="line"/>
      <point x="109" y="434"/>
      <point x="143" y="446"/>
      <point x="186" y="446" type="curve" smooth="yes"/>
      <point x="246" y="446"/>
      <point x="291" y="410"/>
      <point x="352" y="410" type="curve" smooth="yes"/>
      <point x="394" y="410"/>
      <point x="428" y="429"/>
      <point x="462" y="443" type="curve"/>
      <point x="462" y="503" type="line"/>
      <point x="427" y="486"/>
      <point x="394" y="474"/>
      <point x="352" y="474" type="curve" smooth="yes"/>
      <point x="291" y="474"/>
      <point x="246" y="509"/>
      <point x="186" y="509" type="curve" smooth="yes"/>
      <point x="143" y="509"/>
      <point x="109" y="492"/>
      <point x="74" y="480" type="curve"/>
    </contour>
    <contour>
      <point x="74" y="211" type="line"/>
      <point x="109" y="228"/>
      <point x="143" y="239"/>
      <point x="186" y="239" type="curve" smooth="yes"/>
      <point x="246" y="239"/>
      <point x="291" y="204"/>
      <point x="352" y="204" type="curve" smooth="yes"/>
      <point x="394" y="204"/>
      <point x="428" y="223"/>
      <point x="462" y="236" type="curve"/>
      <point x="462" y="296" type="line"/>
      <point x="427" y="279"/>
      <point x="394" y="267"/>
      <point x="352" y="267" type="curve" smooth="yes"/>
      <point x="291" y="267"/>
      <point x="246" y="302"/>
      <point x="186" y="302" type="curve" smooth="yes"/>
      <point x="143" y="302"/>
      <point x="109" y="286"/>
      <point x="74" y="273" type="curve"/>
    </contour>
  </outline>
</glyph>
<glyph name="AE.sc" format="1">
  <advance width="843"/>
  <outline>
    <contour>
      <point x="451" y="760" type="move" name="topUC"/>
    </contour>
    <contour>
      <point x="14" y="0" type="line"/>
      <point x="102" y="0" type="line"/>
      <point x="181" y="160" type="line"/>
      <point x="408" y="160" type="line"/>
      <point x="415" y="0" type="line"/>
      <point x="794" y="0" type="line"/>
      <point x="794" y="70" type="line"/>
      <point x="506" y="70" type="line"/>
      <point x="495" y="261" type="line"/>
      <point x="760" y="261" type="line"/>
      <point x="760" y="323" type="line"/>
      <point x="489" y="323" type="line"/>
      <point x="480" y="507" type="line"/>
      <point x="782" y="507" type="line"/>
      <point x="782" y="577" type="line"/>
      <point x="296" y="577" type="line"/>
      <point x="14" y="7" type="line"/>
    </contour>
    <contour>
      <point x="358" y="511" type="line"/>
      <point x="392" y="511" type="line"/>
      <point x="404" y="224" type="line"/>
      <point x="215" y="224" type="line"/>
    </contour>
  </outline>
</glyph>
<glyph name="Abreve.sc" format="1">
  <advance width="655"/>
  <outline>
    <contour>
      <point x="328" y="635" type="curve" smooth="yes"/>
      <point x="447" y="635"/>
      <point x="500" y="686"/>
      <point x="500" y="759" type="curve"/>
      <point x="436" y="759" type="line"/>
      <point x="436" y="712"/>
      <point x="401" y="685"/>
      <point x="328" y="685" type="curve" smooth="yes"/>
      <point x="255" y="685"/>
      <point x="220" y="712"/>
      <point x="220" y="759" type="curve"/>
      <point x="155" y="759" type="line"/>
      <point x="155" y="687"/>
      <point x="208" y="635"/>
    </contour>
    <contour>
      <point x="13" y="0" type="line"/>
      <point x="103" y="0" type="line"/>
      <point x="174" y="160" type="line"/>
      <point x="481" y="160" type="line"/>
      <point x="552" y="0" type="line"/>
      <point x="642" y="0" type="line"/>
      <point x="642" y="6" type="line"/>
      <point x="397" y="577" type="line"/>
      <point x="259" y="577" type="line"/>
      <point x="13" y="6" type="line"/>
    </contour>
    <contour>
      <point x="197" y="229" type="line"/>
      <point x="279" y="413" type="line"/>
      <point x="323" y="516" type="line"/>
      <point x="331" y="516" type="line"/>
      <point x="376" y="414" type="line"/>
      <point x="458" y="229" type="line"/>
    </contour>
  </outline>
</glyph>
<glyph name="Adblgrave.sc" format="1">
  <advance width="655"/>
  <outline>
    <contour>
      <point x="13" y="0" type="line"/>
      <point x="103" y="0" type="line"/>
      <point x="174" y="160" type="line"/>
      <point x="481" y="160" type="line"/>
      <point x="552" y="0" type="line"/>
      <point x="642" y="0" type="line"/>
      <point x="642" y="6" type="line"/>
      <point x="397" y="577" type="line"/>
      <point x="259" y="577" type="line"/>
      <point x="13" y="6" type="line"/>
    </contour>
    <contour>
      <point x="197" y="229" type="line"/>
      <point x="279" y="413" type="line"/>
      <point x="323" y="516" type="line"/>
      <point x="331" y="516" type="line"/>
      <point x="376" y="414" type="line"/>
      <point x="458" y="229" type="line"/>
    </contour>
    <contour>
      <point x="215" y="624" type="line"/>
      <point x="282" y="634" type="line"/>
      <point x="220" y="746" type="line"/>
      <point x="127" y="746" type="line"/>
    </contour>
    <contour>
      <point x="364" y="624" type="line"/>
      <point x="431" y="634" type="line"/>
      <point x="368" y="746" type="line"/>
      <point x="276" y="746" type="line"/>
    </contour>
  </outline>
</glyph>
<glyph name="Aringacute.sc" format="1">
  <advance width="656"/>
  <outline>
    <contour>
      <point x="14" y="0" type="line"/>
      <point x="104" y="0" type="line"/>
      <point x="174" y="160" type="line"/>
      <point x="482" y="160" type="line"/>
      <point x="553" y="0" type="line"/>
      <point x="643" y="0" type="line"/>
      <point x="643" y="6" type="line"/>
      <point x="421" y="522" type="line"/>
      <point x="447" y="538"/>
      <point x="464" y="562"/>
      <point x="464" y="591" type="curve" smooth="yes"/>
      <point x="464" y="635"/>
      <point x="429" y="670"/>
      <point x="377" y="683" type="curve"/>
      <point x="443" y="772" type="line"/>
      <point x="350" y="772" type="line"/>
      <point x="298" y="687" type="line"/>
      <point x="234" y="678"/>
      <point x="193" y="641"/>
      <point x="193" y="591" type="curve" smooth="yes"/>
      <point x="193" y="563"/>
      <point x="208" y="539"/>
      <point x="235" y="523" type="curve"/>
      <point x="14" y="6" type="line"/>
    </contour>
    <contour>
      <point x="328" y="541" type="curve" smooth="yes"/>
      <point x="283" y="541"/>
      <point x="253" y="560"/>
      <point x="253" y="591" type="curve" smooth="yes"/>
      <point x="253" y="623"/>
      <point x="282" y="642"/>
      <point x="328" y="642" type="curve" smooth="yes"/>
      <point x="374" y="642"/>
      <point x="402" y="623"/>
      <point x="402" y="591" type="curve" smooth="yes"/>
      <point x="402" y="561"/>
      <point x="374" y="541"/>
    </contour>
    <contour>
      <point x="198" y="229" type="line"/>
      <point x="280" y="413" type="line"/>
      <point x="309" y="487" type="line"/>
      <point x="346" y="487" type="line"/>
      <point x="376" y="414" type="line"/>
      <point x="459" y="229" type="line"/>
    </contour>
  </outline>
</glyph>
<glyph name="B.sc" format="1">
  <advance width="635"/>
  <outline>
    <contour>
      <point x="320" y="-8" type="curve" smooth="yes"/>
      <point x="498" y="-8"/>
      <point x="585" y="44"/>
      <point x="585" y="153" type="curve" smooth="yes"/>
      <point x="585" y="229"/>
      <point x="537" y="277"/>
      <point x="447" y="293" type="curve"/>
      <point x="447" y="296" type="line"/>
      <point x="519" y="310"/>
      <point x="563" y="360"/>
      <point x="563" y="427" type="curve" smooth="yes"/>
      <point x="563" y="538"/>
      <point x="489" y="584"/>
      <point x="306" y="584" type="curve" smooth="yes"/>
      <point x="242" y="584"/>
      <point x="176" y="580"/>
      <point x="88" y="573" type="curve"/>
      <point x="88" y="4" type="line"/>
      <point x="177" y="-4"/>
      <point x="249" y="-8"/>
    </contour>
    <contour>
      <point x="315" y="57" type="curve" smooth="yes"/>
      <point x="243" y="57"/>
      <point x="206" y="59"/>
      <point x="176" y="64" type="curve"/>
      <point x="176" y="263" type="line"/>
      <point x="335" y="263" type="line" smooth="yes"/>
      <point x="443" y="263"/>
      <point x="494" y="230"/>
      <point x="494" y="161" type="curve" smooth="yes"/>
      <point x="494" y="90"/>
      <point x="438" y="57"/>
    </contour>
    <contour>
      <point x="176" y="322" type="line"/>
      <point x="176" y="513" type="line"/>
      <point x="210" y="518"/>
      <point x="252" y="519"/>
      <point x="308" y="519" type="curve" smooth="yes"/>
      <point x="430" y="519"/>
      <point x="474" y="494"/>
      <point x="474" y="421" type="curve" smooth="yes"/>
      <point x="474" y="350"/>
      <point x="432" y="322"/>
      <point x="327" y="322" type="curve" smooth="yes"/>
    </contour>
  </outline>
</glyph>
<glyph name="C.sc" format="1">
  <advance width="564"/>
  <outline>
    <contour>
      <point x="321" y="760" type="move" name="topUC"/>
    </contour>
    <contour>
      <point x="316" y="0" type="move" name="bottom"/>
    </contour>
    <contour>
      <point x="360" y="-8" type="curve" smooth="yes"/>
      <point x="405" y="-8"/>
      <point x="475" y="0"/>
      <point x="519" y="10" type="curve"/>
      <point x="519" y="85" type="line"/>
      <point x="483" y="77"/>
      <point x="402" y="69"/>
      <point x="360" y="69" type="curve" smooth="yes"/>
      <point x="211" y="69"/>
      <point x="147" y="138"/>
      <point x="147" y="288" type="curve" smooth="yes"/>
      <point x="147" y="439"/>
      <point x="214" y="510"/>
      <point x="367" y="510" type="curve" smooth="yes"/>
      <point x="409" y="510"/>
      <point x="457" y="505"/>
      <point x="519" y="495" type="curve"/>
      <point x="519" y="571" type="line"/>
      <point x="465" y="580"/>
      <point x="404" y="586"/>
      <point x="358" y="586" type="curve" smooth="yes"/>
      <point x="158" y="586"/>
      <point x="54" y="484"/>
      <point x="54" y="287" type="curve" smooth="yes"/>
      <point x="54" y="93"/>
      <point x="157" y="-8"/>
    </contour>
  </outline>
</glyph>
<glyph name="Ccedilla.sc" format="1">
  <advance width="564"/>
  <outline>
    <contour>
      <point x="299" y="-172" type="curve" smooth="yes"/>
      <point x="368" y="-172"/>
      <point x="408" y="-139"/>
      <point x="408" y="-81" type="curve" smooth="yes"/>
      <point x="408" y="-60"/>
      <point x="401" y="-43"/>
      <point x="380" y="-8" type="curve"/>
      <point x="422" y="-6"/>
      <point x="480" y="1"/>
      <point x="519" y="10" type="curve"/>
      <point x="519" y="85" type="line"/>
      <point x="483" y="77"/>
      <point x="402" y="69"/>
      <point x="360" y="69" type="curve" smooth="yes"/>
      <point x="213" y="69"/>
      <point x="147" y="137"/>
      <point x="147" y="288" type="curve" smooth="yes"/>
      <point x="147" y="441"/>
      <point x="216" y="510"/>
      <point x="367" y="510" type="curve" smooth="yes"/>
      <point x="403" y="510"/>
      <point x="448" y="505"/>
      <point x="519" y="495" type="curve"/>
      <point x="519" y="571" type="line"/>
      <point x="460" y="581"/>
      <point x="400" y="586"/>
      <point x="358" y="586" type="curve" smooth="yes"/>
      <point x="158" y="586"/>
      <point x="54" y="484"/>
      <point x="54" y="287" type="curve" smooth="yes"/>
      <point x="54" y="106"/>
      <point x="143" y="4"/>
      <point x="316" y="-7" type="curve"/>
      <point x="337" y="-40"/>
      <point x="343" y="-55"/>
      <point x="343" y="-69" type="curve" smooth="yes"/>
      <point x="343" y="-101"/>
      <point x="329" y="-115"/>
      <point x="281" y="-115" type="curve" smooth="yes"/>
      <point x="256" y="-115"/>
      <point x="234" y="-111"/>
      <point x="214" y="-106" type="curve"/>
      <point x="214" y="-162" type="line"/>
      <point x="244" y="-168"/>
      <point x="276" y="-172"/>
    </contour>
  </outline>
</glyph>
<glyph name="Dcaron.sc" format="1">
  <advance width="701"/>
  <outline>
    <contour>
      <point x="291" y="-7" type="curve" smooth="yes"/>
      <point x="536" y="-7"/>
      <point x="647" y="86"/>
      <point x="647" y="288" type="curve" smooth="yes"/>
      <point x="647" y="491"/>
      <point x="535" y="584"/>
      <point x="291" y="584" type="curve" smooth="yes"/>
      <point x="241" y="584"/>
      <point x="151" y="581"/>
      <point x="88" y="576" type="curve"/>
      <point x="88" y="6" type="line"/>
      <point x="123" y="-2"/>
      <point x="206" y="-7"/>
    </contour>
    <contour>
      <point x="304" y="67" type="curve" smooth="yes"/>
      <point x="257" y="67"/>
      <point x="225" y="69"/>
      <point x="179" y="75" type="curve"/>
      <point x="179" y="504" type="line"/>
      <point x="218" y="506"/>
      <point x="270" y="509"/>
      <point x="301" y="509" type="curve" smooth="yes"/>
      <point x="479" y="509"/>
      <point x="555" y="443"/>
      <point x="555" y="288" type="curve" smooth="yes"/>
      <point x="555" y="133"/>
      <point x="480" y="67"/>
    </contour>
    <contour>
      <point x="329" y="633" type="line"/>
      <point x="489" y="692" type="line"/>
      <point x="489" y="758" type="line"/>
      <point x="330" y="699" type="line"/>
      <point x="172" y="758" type="line"/>
      <point x="172" y="692" type="line"/>
    </contour>
  </outline>
</glyph>
<glyph name="Ddotbelow.sc" format="1">
  <advance width="701"/>
  <outline>
    <contour>
      <point x="291" y="-7" type="curve" smooth="yes"/>
      <point x="536" y="-7"/>
      <point x="647" y="86"/>
      <point x="647" y="288" type="curve" smooth="yes"/>
      <point x="647" y="491"/>
      <point x="535" y="584"/>
      <point x="291" y="584" type="curve" smooth="yes"/>
      <point x="241" y="584"/>
      <point x="151" y="581"/>
      <point x="88" y="576" type="curve"/>
      <point x="88" y="6" type="line"/>
      <point x="123" y="-2"/>
      <point x="206" y="-7"/>
    </contour>
    <contour>
      <point x="304" y="67" type="curve" smooth="yes"/>
      <point x="257" y="67"/>
      <point x="225" y="69"/>
      <point x="179" y="75" type="curve"/>
      <point x="179" y="504" type="line"/>
      <point x="218" y="506"/>
      <point x="270" y="509"/>
      <point x="301" y="509" type="curve" smooth="yes"/>
      <point x="479" y="509"/>
      <point x="555" y="443"/>
      <point x="555" y="288" type="curve" smooth="yes"/>
      <point x="555" y="133"/>
      <point x="480" y="67"/>
    </contour>
    <contour>
      <point x="337" y="-149" type="curve" smooth="yes"/>
      <point x="369" y="-149"/>
      <point x="386" y="-135"/>
      <point x="386" y="-104" type="curve" smooth="yes"/>
      <point x="386" y="-72"/>
      <point x="369" y="-58"/>
      <point x="337" y="-58" type="curve" smooth="yes"/>
      <point x="304" y="-58"/>
      <point x="288" y="-72"/>
      <point x="288" y="-104" type="curve" smooth="yes"/>
      <point x="288" y="-135"/>
      <point x="304" y="-149"/>
    </contour>
  </outline>
</glyph>
<glyph name="Eacute.sc" format="1">
  <advance width="593"/>
  <outline>
    <contour>
      <point x="89" y="0" type="line"/>
      <point x="540" y="0" type="line"/>
      <point x="540" y="70" type="line"/>
      <point x="180" y="70" type="line"/>
      <point x="180" y="262" type="line"/>
      <point x="511" y="262" type="line"/>
      <point x="511" y="325" type="line"/>
      <point x="180" y="325" type="line"/>
      <point x="180" y="507" type="line"/>
      <point x="533" y="507" type="line"/>
      <point x="533" y="577" type="line"/>
      <point x="89" y="577" type="line"/>
    </contour>
    <contour>
      <point x="339" y="629" type="line"/>
      <point x="426" y="751" type="line"/>
      <point x="333" y="751" type="line"/>
      <point x="270" y="635" type="line"/>
    </contour>
  </outline>
</glyph>
<glyph name="Ebreve.sc" format="1">
  <advance width="593"/>
  <outline>
    <contour>
      <point x="309" y="635" type="curve" smooth="yes"/>
      <point x="428" y="635"/>
      <point x="481" y="686"/>
      <point x="481" y="759" type="curve"/>
      <point x="417" y="759" type="line"/>
      <point x="417" y="712"/>
      <point x="382" y="685"/>
      <point x="309" y="685" type="curve" smooth="yes"/>
      <point x="236" y="685"/>
      <point x="201" y="712"/>
      <point x="201" y="759" type="curve"/>
      <point x="137" y="759" type="line"/>
      <point x="137" y="687"/>
      <point x="190" y="635"/>
    </contour>
    <contour>
      <point x="89" y="0" type="line"/>
      <point x="540" y="0" type="line"/>
      <point x="540" y="70" type="line"/>
      <point x="180" y="70" type="line"/>
      <point x="180" y="262" type="line"/>
      <point x="511" y="262" type="line"/>
      <point x="511" y="325" type="line"/>
      <point x="180" y="325" type="line"/>
      <point x="180" y="507" type="line"/>
      <point x="533" y="507" type="line"/>
      <point x="533" y="577" type="line"/>
      <point x="89" y="577" type="line"/>
    </contour>
  </outline>
</glyph>
<glyph name="Ecaron.sc" format="1">
  <advance width="593"/>
  <outline>
    <contour>
      <point x="89" y="0" type="line"/>
      <point x="540" y="0" type="line"/>
      <point x="540" y="70" type="line"/>
      <point x="180" y="70" type="line"/>
      <point x="180" y="262" type="line"/>
      <point x="511" y="262" type="line"/>
      <point x="511" y="325" type="line"/>
      <point x="180" y="325" type="line"/>
      <point x="180" y="507" type="line"/>
      <point x="533" y="507" type="line"/>
      <point x="533" y="577" type="line"/>
      <point x="89" y="577" type="line"/>
    </contour>
    <contour>
      <point x="311" y="633" type="line"/>
      <point x="470" y="692" type="line"/>
      <point x="470" y="758" type="line"/>
      <point x="312" y="699" type="line"/>
      <point x="154" y="758" type="line"/>
      <point x="154" y="692" type="line"/>
    </contour>
  </outline>
</glyph>
<glyph name="Edieresis.sc" format="1">
  <advance width="593"/>
  <outline>
    <contour>
      <point x="191" y="639" type="curve" smooth="yes"/>
      <point x="228" y="639"/>
      <point x="247" y="655"/>
      <point x="247" y="692" type="curve" smooth="yes"/>
      <point x="247" y="728"/>
      <point x="228" y="745"/>
      <point x="191" y="745" type="curve" smooth="yes"/>
      <point x="154" y="745"/>
      <point x="135" y="728"/>
      <point x="135" y="692" type="curve" smooth="yes"/>
      <point x="135" y="655"/>
      <point x="154" y="639"/>
    </contour>
    <contour>
      <point x="442" y="639" type="curve" smooth="yes"/>
      <point x="479" y="639"/>
      <point x="497" y="655"/>
      <point x="497" y="692" type="curve" smooth="yes"/>
      <point x="497" y="728"/>
      <point x="479" y="745"/>
      <point x="442" y="745" type="curve" smooth="yes"/>
      <point x="404" y="745"/>
      <point x="386" y="728"/>
      <point x="386" y="692" type="curve" smooth="yes"/>
      <point x="386" y="655"/>
      <point x="404" y="639"/>
    </contour>
    <contour>
      <point x="89" y="0" type="line"/>
      <point x="540" y="0" type="line"/>
      <point x="540" y="70" type="line"/>
      <point x="180" y="70" type="line"/>
      <point x="180" y="262" type="line"/>
      <point x="511" y="262" type="line"/>
      <point x="511" y="325" type="line"/>
      <point x="180" y="325" type="line"/>
      <point x="180" y="507" type="line"/>
      <point x="533" y="507" type="line"/>
      <point x="533" y="577" type="line"/>
      <point x="89" y="577" type="line"/>
    </contour>
  </outline>
</glyph>
<glyph name="Edotaccent.sc" format="1">
  <advance width="593"/>
  <outline>
    <contour>
      <point x="310" y="636" type="curve" smooth="yes"/>
      <point x="346" y="636"/>
      <point x="366" y="653"/>
      <point x="366" y="689" type="curve" smooth="yes"/>
      <point x="366" y="725"/>
      <point x="346" y="742"/>
      <point x="310" y="742" type="curve" smooth="yes"/>
      <point x="272" y="742"/>
      <point x="254" y="726"/>
      <point x="254" y="689" type="curve" smooth="yes"/>
      <point x="254" y="651"/>
      <point x="272" y="636"/>
    </contour>
    <contour>
      <point x="89" y="0" type="line"/>
      <point x="540" y="0" type="line"/>
      <point x="540" y="70" type="line"/>
      <point x="180" y="70" type="line"/>
      <point x="180" y="262" type="line"/>
      <point x="511" y="262" type="line"/>
      <point x="511" y="325" type="line"/>
      <point x="180" y="325" type="line"/>
      <point x="180" y="507" type="line"/>
      <point x="533" y="507" type="line"/>
      <point x="533" y="577" type="line"/>
      <point x="89" y="577" type="line"/>
    </contour>
  </outline>
</glyph>
<glyph name="Edotbelow.sc" format="1">
  <advance width="593"/>
  <outline>
    <contour>
      <point x="329" y="-149" type="curve" smooth="yes"/>
      <point x="362" y="-149"/>
      <point x="378" y="-135"/>
      <point x="378" y="-104" type="curve" smooth="yes"/>
      <point x="378" y="-72"/>
      <point x="362" y="-58"/>
      <point x="329" y="-58" type="curve" smooth="yes"/>
      <point x="296" y="-58"/>
      <point x="280" y="-72"/>
      <point x="280" y="-104" type="curve" smooth="yes"/>
      <point x="280" y="-135"/>
      <point x="296" y="-149"/>
    </contour>
    <contour>
      <point x="89" y="0" type="line"/>
      <point x="540" y="0" type="line"/>
      <point x="540" y="70" type="line"/>
      <point x="180" y="70" type="line"/>
      <point x="180" y="262" type="line"/>
      <point x="511" y="262" type="line"/>
      <point x="511" y="325" type="line"/>
      <point x="180" y="325" type="line"/>
      <point x="180" y="507" type="line"/>
      <point x="533" y="507" type="line"/>
      <point x="533" y="577" type="line"/>
      <point x="89" y="577" type="line"/>
    </contour>
  </outline>
</glyph>
<glyph name="Eth.sc" format="1">
  <advance width="713"/>
  <outline>
    <contour>
      <point x="15" y="255" type="line"/>
      <point x="100" y="255" type="line"/>
      <point x="100" y="6" type="line"/>
      <point x="129" y="-2"/>
      <point x="205" y="-7"/>
      <point x="285" y="-7" type="curve" smooth="yes"/>
      <point x="547" y="-7"/>
      <point x="659" y="82"/>
      <point x="659" y="288" type="curve" smooth="yes"/>
      <point x="659" y="492"/>
      <point x="548" y="584"/>
      <point x="303" y="584" type="curve" smooth="yes"/>
      <point x="255" y="584"/>
      <point x="165" y="581"/>
      <point x="100" y="576" type="curve"/>
      <point x="100" y="322" type="line"/>
      <point x="15" y="322" type="line"/>
    </contour>
    <contour>
      <point x="316" y="67" type="curve" smooth="yes"/>
      <point x="270" y="67"/>
      <point x="237" y="69"/>
      <point x="191" y="75" type="curve"/>
      <point x="191" y="255" type="line"/>
      <point x="355" y="255" type="line"/>
      <point x="355" y="322" type="line"/>
      <point x="191" y="322" type="line"/>
      <point x="191" y="504" type="line"/>
      <point x="231" y="507"/>
      <point x="282" y="509"/>
      <point x="313" y="509" type="curve" smooth="yes"/>
      <point x="491" y="509"/>
      <point x="566" y="444"/>
      <point x="566" y="288" type="curve" smooth="yes"/>
      <point x="566" y="132"/>
      <point x="492" y="67"/>
    </contour>
  </outline>
</glyph>
<glyph name="Euro.tab" format="1">
  <advance width="579"/>
  <outline>
    <contour>
      <point x="13" y="424" type="line"/>
      <point x="95" y="424" type="line"/>
      <point x="94" y="409"/>
      <point x="94" y="386"/>
      <point x="94" y="369" type="curve" smooth="yes"/>
      <point x="94" y="353"/>
      <point x="95" y="331"/>
      <point x="95" y="316" type="curve"/>
      <point x="13" y="316" type="line"/>
      <point x="13" y="256" type="line"/>
      <point x="103" y="256" type="line"/>
      <point x="133" y="74"/>
      <point x="245" y="-8"/>
      <point x="464" y="-10" type="curve" smooth="yes"/>
      <point x="504" y="-10"/>
      <point x="535" y="-8"/>
      <point x="555" y="-3" type="curve"/>
      <point x="555" y="79" type="line"/>
      <point x="524" y="74"/>
      <point x="496" y="72"/>
      <point x="474" y="72" type="curve" smooth="yes"/>
      <point x="308" y="72"/>
      <point x="225" y="127"/>
      <point x="199" y="256" type="curve"/>
      <point x="433" y="256" type="line"/>
      <point x="449" y="316" type="line"/>
      <point x="189" y="316" type="line"/>
      <point x="188" y="331"/>
      <point x="187" y="353"/>
      <point x="187" y="370" type="curve"/>
      <point x="187" y="387"/>
      <point x="188" y="409"/>
      <point x="189" y="424" type="curve"/>
      <point x="470" y="424" type="line"/>
      <point x="485" y="484" type="line"/>
      <point x="199" y="484" type="line"/>
      <point x="223" y="617"/>
      <point x="305" y="667"/>
      <point x="476" y="667" type="curve" smooth="yes"/>
      <point x="501" y="667"/>
      <point x="527" y="664"/>
      <point x="538" y="662" type="curve"/>
      <point x="568" y="741" type="line"/>
      <point x="541" y="744"/>
      <point x="508" y="749"/>
      <point x="457" y="749" type="curve" smooth="yes"/>
      <point x="240" y="749"/>
      <point x="132" y="670"/>
      <point x="103" y="484" type="curve"/>
      <point x="13" y="484" type="line"/>
    </contour>
  </outline>
</glyph>
<glyph name="Hcircumflex.sc" format="1">
  <advance width="736"/>
  <outline>
    <contour>
      <point x="89" y="0" type="line"/>
      <point x="180" y="0" type="line"/>
      <point x="180" y="261" type="line"/>
      <point x="556" y="261" type="line"/>
      <point x="556" y="0" type="line"/>
      <point x="647" y="0" type="line"/>
      <point x="647" y="577" type="line"/>
      <point x="556" y="577" type="line"/>
      <point x="556" y="332" type="line"/>
      <point x="180" y="332" type="line"/>
      <point x="180" y="577" type="line"/>
      <point x="89" y="577" type="line"/>
    </contour>
    <contour>
      <point x="206" y="632" type="line"/>
      <point x="364" y="691" type="line"/>
      <point x="522" y="632" type="line"/>
      <point x="522" y="698" type="line"/>
      <point x="363" y="758" type="line"/>
      <point x="206" y="698" type="line"/>
    </contour>
  </outline>
</glyph>
<glyph name="I.sc" format="1">
  <advance width="269"/>
  <outline>
    <contour>
      <point x="135" y="0" type="move" name="ogonek"/>
    </contour>
    <contour>
      <point x="121" y="760" type="move" name="topUC"/>
    </contour>
    <contour>
      <point x="121" y="0" type="move" name="bottom"/>
    </contour>
    <contour>
      <point x="89" y="0" type="line"/>
      <point x="180" y="0" type="line"/>
      <point x="180" y="577" type="line"/>
      <point x="89" y="577" type="line"/>
    </contour>
  </outline>
</glyph>
<glyph name="Idblgrave.sc" format="1">
  <advance width="269"/>
  <outline>
    <contour>
      <point x="89" y="0" type="line"/>
      <point x="180" y="0" type="line"/>
      <point x="180" y="577" type="line"/>
      <point x="89" y="577" type="line"/>
    </contour>
    <contour>
      <point x="100" y="634" type="line"/>
      <point x="37" y="746" type="line"/>
      <point x="-55" y="746" type="line"/>
      <point x="33" y="624" type="line"/>
    </contour>
    <contour>
      <point x="249" y="634" type="line"/>
      <point x="186" y="746" type="line"/>
      <point x="94" y="746" type="line"/>
      <point x="182" y="624" type="line"/>
    </contour>
  </outline>
</glyph>
<glyph name="Idieresis.sc" format="1">
  <advance width="269"/>
  <outline>
    <contour>
      <point x="89" y="0" type="line"/>
      <point x="180" y="0" type="line"/>
      <point x="180" y="577" type="line"/>
      <point x="89" y="577" type="line"/>
    </contour>
    <contour>
      <point x="11" y="639" type="curve" smooth="yes"/>
      <point x="48" y="639"/>
      <point x="67" y="655"/>
      <point x="67" y="692" type="curve" smooth="yes"/>
      <point x="67" y="728"/>
      <point x="48" y="745"/>
      <point x="11" y="745" type="curve" smooth="yes"/>
      <point x="-27" y="745"/>
      <point x="-45" y="728"/>
      <point x="-45" y="692" type="curve" smooth="yes"/>
      <point x="-45" y="655"/>
      <point x="-27" y="639"/>
    </contour>
    <contour>
      <point x="261" y="639" type="curve" smooth="yes"/>
      <point x="298" y="639"/>
      <point x="317" y="655"/>
      <point x="317" y="692" type="curve" smooth="yes"/>
      <point x="317" y="728"/>
      <point x="298" y="745"/>
      <point x="261" y="745" type="curve" smooth="yes"/>
      <point x="224" y="745"/>
      <point x="206" y="728"/>
      <point x="206" y="692" type="curve" smooth="yes"/>
      <point x="206" y="655"/>
      <point x="224" y="639"/>
    </contour>
  </outline>
</glyph>
<glyph name="Idotaccent.sc" format="1">
  <advance width="269"/>
  <outline>
    <contour>
      <point x="89" y="0" type="line"/>
      <point x="180" y="0" type="line"/>
      <point x="180" y="577" type="line"/>
      <point x="89" y="577" type="line"/>
    </contour>
    <contour>
      <point x="135" y="636" type="curve" smooth="yes"/>
      <point x="172" y="636"/>
      <point x="191" y="653"/>
      <point x="191" y="689" type="curve" smooth="yes"/>
      <point x="191" y="725"/>
      <point x="172" y="742"/>
      <point x="135" y="742" type="curve" smooth="yes"/>
      <point x="97" y="742"/>
      <point x="79" y="726"/>
      <point x="79" y="689" type="curve" smooth="yes"/>
      <point x="79" y="651"/>
      <point x="97" y="636"/>
    </contour>
  </outline>
</glyph>
<glyph name="Igrave.sc" format="1">
  <advance width="269"/>
  <outline>
    <contour>
      <point x="89" y="0" type="line"/>
      <point x="180" y="0" type="line"/>
      <point x="180" y="577" type="line"/>
      <point x="89" y="577" type="line"/>
    </contour>
    <contour>
      <point x="178" y="639" type="line"/>
      <point x="115" y="751" type="line"/>
      <point x="22" y="751" type="line"/>
      <point x="110" y="629" type="line"/>
    </contour>
  </outline>
</glyph>
<glyph name="Imacron.sc" format="1">
  <advance width="269"/>
  <outline>
    <contour>
      <point x="89" y="0" type="line"/>
      <point x="180" y="0" type="line"/>
      <point x="180" y="577" type="line"/>
      <point x="89" y="577" type="line"/>
    </contour>
    <contour>
      <point x="-19" y="657" type="line"/>
      <point x="294" y="657" type="line"/>
      <point x="294" y="720" type="line"/>
      <point x="-19" y="720" type="line"/>
    </contour>
  </outline>
</glyph>
<glyph name="Iogonek.sc" format="1">
  <advance width="269"/>
  <outline>
    <contour>
      <point x="89" y="0" type="line"/>
      <point x="102" y="0" type="line"/>
      <point x="32" y="-38"/>
      <point x="8" y="-66"/>
      <point x="8" y="-106" type="curve" smooth="yes"/>
      <point x="8" y="-149"/>
      <point x="41" y="-172"/>
      <point x="107" y="-172" type="curve" smooth="yes"/>
      <point x="132" y="-172"/>
      <point x="159" y="-169"/>
      <point x="179" y="-162" type="curve"/>
      <point x="179" y="-112" type="line"/>
      <point x="159" y="-117"/>
      <point x="129" y="-121"/>
      <point x="110" y="-121" type="curve" smooth="yes"/>
      <point x="85" y="-121"/>
      <point x="71" y="-115"/>
      <point x="71" y="-95" type="curve" smooth="yes"/>
      <point x="71" y="-65"/>
      <point x="102" y="-43"/>
      <point x="180" y="-13" type="curve"/>
      <point x="180" y="577" type="line"/>
      <point x="89" y="577" type="line"/>
    </contour>
  </outline>
</glyph>
<glyph name="Kcommaaccent.sc" format="1">
  <advance width="638"/>
  <outline>
    <contour>
      <point x="89" y="0" type="line"/>
      <point x="180" y="0" type="line"/>
      <point x="180" y="257" type="line"/>
      <point x="325" y="257" type="line"/>
      <point x="522" y="0" type="line"/>
      <point x="626" y="0" type="line"/>
      <point x="413" y="277" type="line"/>
      <point x="380" y="297" type="line"/>
      <point x="380" y="303" type="line"/>
      <point x="411" y="322" type="line"/>
      <point x="611" y="577" type="line"/>
      <point x="508" y="577" type="line"/>
      <point x="316" y="328" type="line"/>
      <point x="180" y="328" type="line"/>
      <point x="180" y="577" type="line"/>
      <point x="89" y="577" type="line"/>
    </contour>
    <contour>
      <point x="253" y="-172" type="line"/>
      <point x="325" y="-172" type="line"/>
      <point x="387" y="-55" type="line"/>
      <point x="293" y="-55" type="line"/>
    </contour>
  </outline>
</glyph>
<glyph name="L.sc" format="1">
  <advance width="519"/>
  <outline>
    <contour>
      <point x="134" y="760" type="move" name="topUC"/>
    </contour>
    <contour>
      <point x="304" y="370" type="move" name="periodcentered"/>
    </contour>
    <contour>
      <point x="352" y="740" type="move" name="caronalt"/>
    </contour>
    <contour>
      <point x="248" y="0" type="move" name="bottom"/>
    </contour>
    <contour>
      <point x="89" y="0" type="line"/>
      <point x="500" y="0" type="line"/>
      <point x="500" y="72" type="line"/>
      <point x="180" y="72" type="line"/>
      <point x="180" y="577" type="line"/>
      <point x="89" y="577" type="line"/>
    </contour>
  </outline>
</glyph>
<glyph name="Lcaron.sc" format="1">
  <advance width="520"/>
  <outline>
    <contour>
      <point x="89" y="0" type="line"/>
      <point x="500" y="0" type="line"/>
      <point x="500" y="72" type="line"/>
      <point x="180" y="72" type="line"/>
      <point x="180" y="577" type="line"/>
      <point x="89" y="577" type="line"/>
    </contour>
    <contour>
      <point x="374" y="421" type="line"/>
      <point x="420" y="421" type="line"/>
      <point x="447" y="599" type="line"/>
      <point x="374" y="599" type="line"/>
    </contour>
  </outline>
</glyph>
<glyph name="Lslash.sc" format="1">
  <advance width="537"/>
  <outline>
    <contour>
      <point x="22" y="176" type="line"/>
      <point x="107" y="220" type="line"/>
      <point x="107" y="0" type="line"/>
      <point x="518" y="0" type="line"/>
      <point x="518" y="72" type="line"/>
      <point x="197" y="72" type="line"/>
      <point x="197" y="257" type="line"/>
      <point x="353" y="338" type="line"/>
      <point x="353" y="408" type="line"/>
      <point x="197" y="326" type="line"/>
      <point x="197" y="577" type="line"/>
      <point x="107" y="577" type="line"/>
      <point x="107" y="290" type="line"/>
      <point x="22" y="246" type="line"/>
    </contour>
  </outline>
</glyph>
<glyph name="M.sc" format="1">
  <advance width="876"/>
  <outline>
    <contour>
      <point x="89" y="0" type="line"/>
      <point x="171" y="0" type="line"/>
      <point x="171" y="477" type="line"/>
      <point x="177" y="477" type="line"/>
      <point x="266" y="283" type="line"/>
      <point x="399" y="22" type="line"/>
      <point x="477" y="22" type="line"/>
      <point x="609" y="283" type="line"/>
      <point x="699" y="477" type="line"/>
      <point x="705" y="477" type="line"/>
      <point x="705" y="0" type="line"/>
      <point x="787" y="0" type="line"/>
      <point x="787" y="577" type="line"/>
      <point x="668" y="577" type="line"/>
      <point x="505" y="259" type="line"/>
      <point x="441" y="121" type="line"/>
      <point x="434" y="121" type="line"/>
      <point x="371" y="259" type="line"/>
      <point x="208" y="577" type="line"/>
      <point x="89" y="577" type="line"/>
    </contour>
  </outline>
</glyph>
<glyph name="Ncaron.sc" format="1">
  <advance width="732"/>
  <outline>
    <contour>
      <point x="89" y="0" type="line"/>
      <point x="171" y="0" type="line"/>
      <point x="171" y="450" type="line"/>
      <point x="177" y="450" type="line"/>
      <point x="234" y="380" type="line"/>
      <point x="570" y="0" type="line"/>
      <point x="643" y="0" type="line"/>
      <point x="643" y="577" type="line"/>
      <point x="560" y="577" type="line"/>
      <point x="560" y="126" type="line"/>
      <point x="555" y="126" type="line"/>
      <point x="497" y="196" type="line"/>
      <point x="161" y="577" type="line"/>
      <point x="89" y="577" type="line"/>
    </contour>
    <contour>
      <point x="365" y="633" type="line"/>
      <point x="524" y="692" type="line"/>
      <point x="524" y="758" type="line"/>
      <point x="366" y="699" type="line"/>
      <point x="208" y="758" type="line"/>
      <point x="208" y="692" type="line"/>
    </contour>
  </outline>
</glyph>
<glyph name="Obreve.sc" format="1">
  <advance width="713"/>
  <outline>
    <contour>
      <point x="357" y="-8" type="curve" smooth="yes"/>
      <point x="548" y="-8"/>
      <point x="660" y="96"/>
      <point x="660" y="288" type="curve" smooth="yes"/>
      <point x="660" y="480"/>
      <point x="548" y="585"/>
      <point x="357" y="585" type="curve" smooth="yes"/>
      <point x="165" y="585"/>
      <point x="54" y="480"/>
      <point x="54" y="288" type="curve" smooth="yes"/>
      <point x="54" y="95"/>
      <point x="165" y="-8"/>
    </contour>
    <contour>
      <point x="357" y="66" type="curve" smooth="yes"/>
      <point x="214" y="66"/>
      <point x="146" y="139"/>
      <point x="146" y="288" type="curve" smooth="yes"/>
      <point x="146" y="437"/>
      <point x="214" y="511"/>
      <point x="357" y="511" type="curve" smooth="yes"/>
      <point x="499" y="511"/>
      <point x="568" y="437"/>
      <point x="568" y="288" type="curve" smooth="yes"/>
      <point x="568" y="140"/>
      <point x="500" y="66"/>
    </contour>
    <contour>
      <point x="356" y="635" type="curve" smooth="yes"/>
      <point x="466" y="635"/>
      <point x="527" y="680"/>
      <point x="527" y="759" type="curve"/>
      <point x="463" y="759" type="line"/>
      <point x="463" y="710"/>
      <point x="425" y="685"/>
      <point x="356" y="685" type="curve" smooth="yes"/>
      <point x="286" y="685"/>
      <point x="248" y="710"/>
      <point x="248" y="759" type="curve"/>
      <point x="183" y="759" type="line"/>
      <point x="183" y="681"/>
      <point x="246" y="635"/>
    </contour>
  </outline>
</glyph>
<glyph name="Ohungarumlaut.sc" format="1">
  <advance width="713"/>
  <outline>
    <contour>
      <point x="357" y="-8" type="curve" smooth="yes"/>
      <point x="548" y="-8"/>
      <point x="659" y="96"/>
      <point x="659" y="288" type="curve" smooth="yes"/>
      <point x="659" y="480"/>
      <point x="548" y="585"/>
      <point x="357" y="585" type="curve" smooth="yes"/>
      <point x="164" y="585"/>
      <point x="53" y="480"/>
      <point x="53" y="288" type="curve" smooth="yes"/>
      <point x="53" y="96"/>
      <point x="165" y="-8"/>
    </contour>
    <contour>
      <point x="357" y="66" type="curve" smooth="yes"/>
      <point x="216" y="66"/>
      <point x="146" y="137"/>
      <point x="146" y="288" type="curve" smooth="yes"/>
      <point x="146" y="440"/>
      <point x="217" y="511"/>
      <point x="357" y="511" type="curve" smooth="yes"/>
      <point x="496" y="511"/>
      <point x="568" y="439"/>
      <point x="568" y="288" type="curve" smooth="yes"/>
      <point x="568" y="137"/>
      <point x="497" y="66"/>
    </contour>
    <contour>
      <point x="304" y="624" type="line"/>
      <point x="393" y="746" type="line"/>
      <point x="301" y="746" type="line"/>
      <point x="237" y="634" type="line"/>
    </contour>
    <contour>
      <point x="454" y="624" type="line"/>
      <point x="541" y="746" type="line"/>
      <point x="449" y="746" type="line"/>
      <point x="386" y="634" type="line"/>
    </contour>
  </outline>
</glyph>
<glyph name="Oinvertedbreve.sc" format="1">
  <advance width="713"/>
  <outline>
    <contour>
      <point x="357" y="-8" type="curve" smooth="yes"/>
      <point x="548" y="-8"/>
      <point x="659" y="96"/>
      <point x="659" y="288" type="curve" smooth="yes"/>
      <point x="659" y="480"/>
      <point x="548" y="585"/>
      <point x="357" y="585" type="curve" smooth="yes"/>
      <point x="164" y="585"/>
      <point x="53" y="480"/>
      <point x="53" y="288" type="curve" smooth="yes"/>
      <point x="53" y="96"/>
      <point x="165" y="-8"/>
    </contour>
    <contour>
      <point x="357" y="66" type="curve" smooth="yes"/>
      <point x="216" y="66"/>
      <point x="146" y="137"/>
      <point x="146" y="288" type="curve" smooth="yes"/>
      <point x="146" y="440"/>
      <point x="217" y="511"/>
      <point x="357" y="511" type="curve" smooth="yes"/>
      <point x="496" y="511"/>
      <point x="568" y="439"/>
      <point x="568" y="288" type="curve" smooth="yes"/>
      <point x="568" y="137"/>
      <point x="497" y="66"/>
    </contour>
    <contour>
      <point x="527" y="638" type="line"/>
      <point x="527" y="711"/>
      <point x="475" y="762"/>
      <point x="356" y="762" type="curve" smooth="yes"/>
      <point x="236" y="762"/>
      <point x="183" y="709"/>
      <point x="183" y="638" type="curve"/>
      <point x="248" y="638" type="line"/>
      <point x="248" y="684"/>
      <point x="283" y="711"/>
      <point x="356" y="711" type="curve" smooth="yes"/>
      <point x="428" y="711"/>
      <point x="463" y="684"/>
      <point x="463" y="638" type="curve"/>
    </contour>
  </outline>
</glyph>
<glyph name="Oogonek.sc" format="1">
  <advance width="713"/>
  <outline>
    <contour>
      <point x="350" y="-161" type="curve" smooth="yes"/>
      <point x="375" y="-161"/>
      <point x="401" y="-159"/>
      <point x="422" y="-152" type="curve"/>
      <point x="422" y="-102" type="line"/>
      <point x="401" y="-106"/>
      <point x="371" y="-111"/>
      <point x="352" y="-111" type="curve" smooth="yes"/>
      <point x="328" y="-111"/>
      <point x="313" y="-106"/>
      <point x="313" y="-84" type="curve" smooth="yes"/>
      <point x="313" y="-54"/>
      <point x="344" y="-33"/>
      <point x="421" y="-3" type="curve"/>
      <point x="550" y="12"/>
      <point x="660" y="94"/>
      <point x="660" y="288" type="curve" smooth="yes"/>
      <point x="660" y="480"/>
      <point x="548" y="585"/>
      <point x="357" y="585" type="curve" smooth="yes"/>
      <point x="165" y="585"/>
      <point x="54" y="480"/>
      <point x="54" y="288" type="curve" smooth="yes"/>
      <point x="54" y="108"/>
      <point x="150" y="6"/>
      <point x="317" y="-6" type="curve"/>
      <point x="269" y="-35"/>
      <point x="250" y="-63"/>
      <point x="250" y="-96" type="curve" smooth="yes"/>
      <point x="250" y="-139"/>
      <point x="284" y="-161"/>
    </contour>
    <contour>
      <point x="357" y="66" type="curve" smooth="yes"/>
      <point x="216" y="66"/>
      <point x="146" y="137"/>
      <point x="146" y="288" type="curve" smooth="yes"/>
      <point x="146" y="440"/>
      <point x="217" y="511"/>
      <point x="357" y="511" type="curve" smooth="yes"/>
      <point x="497" y="511"/>
      <point x="568" y="439"/>
      <point x="568" y="288" type="curve" smooth="yes"/>
      <point x="568" y="137"/>
      <point x="497" y="66"/>
    </contour>
  </outline>
</glyph>
<glyph name="Oslashacute.sc" format="1">
  <advance width="713"/>
  <outline>
    <contour>
      <point x="45" y="0" type="line"/>
      <point x="119" y="0" type="line"/>
      <point x="162" y="47" type="line"/>
      <point x="211" y="11"/>
      <point x="277" y="-8"/>
      <point x="357" y="-8" type="curve" smooth="yes"/>
      <point x="549" y="-8"/>
      <point x="660" y="96"/>
      <point x="660" y="288" type="curve" smooth="yes"/>
      <point x="660" y="377"/>
      <point x="636" y="449"/>
      <point x="591" y="499" type="curve"/>
      <point x="666" y="577" type="line"/>
      <point x="592" y="577" type="line"/>
      <point x="550" y="531" type="line"/>
      <point x="501" y="566"/>
      <point x="436" y="585"/>
      <point x="357" y="585" type="curve" smooth="yes"/>
      <point x="165" y="585"/>
      <point x="54" y="480"/>
      <point x="54" y="288" type="curve" smooth="yes"/>
      <point x="54" y="199"/>
      <point x="77" y="129"/>
      <point x="121" y="80" type="curve"/>
    </contour>
    <contour>
      <point x="357" y="66" type="curve" smooth="yes"/>
      <point x="303" y="66"/>
      <point x="258" y="80"/>
      <point x="224" y="107" type="curve"/>
      <point x="527" y="436" type="line"/>
      <point x="554" y="400"/>
      <point x="568" y="351"/>
      <point x="568" y="288" type="curve" smooth="yes"/>
      <point x="568" y="137"/>
      <point x="497" y="66"/>
    </contour>
    <contour>
      <point x="384" y="629" type="line"/>
      <point x="472" y="751" type="line"/>
      <point x="378" y="751" type="line"/>
      <point x="315" y="635" type="line"/>
    </contour>
    <contour>
      <point x="146" y="288" type="curve" smooth="yes"/>
      <point x="146" y="440"/>
      <point x="218" y="511"/>
      <point x="357" y="511" type="curve" smooth="yes"/>
      <point x="411" y="511"/>
      <point x="455" y="497"/>
      <point x="488" y="471" type="curve"/>
      <point x="185" y="142" type="line"/>
      <point x="160" y="178"/>
      <point x="146" y="227"/>
    </contour>
  </outline>
</glyph>
<glyph name="Otilde.sc" format="1">
  <advance width="713"/>
  <outline>
    <contour>
      <point x="357" y="-8" type="curve" smooth="yes"/>
      <point x="548" y="-8"/>
      <point x="659" y="96"/>
      <point x="659" y="288" type="curve" smooth="yes"/>
      <point x="659" y="480"/>
      <point x="548" y="585"/>
      <point x="357" y="585" type="curve" smooth="yes"/>
      <point x="164" y="585"/>
      <point x="53" y="480"/>
      <point x="53" y="288" type="curve" smooth="yes"/>
      <point x="53" y="96"/>
      <point x="165" y="-8"/>
    </contour>
    <contour>
      <point x="357" y="66" type="curve" smooth="yes"/>
      <point x="216" y="66"/>
      <point x="146" y="137"/>
      <point x="146" y="288" type="curve" smooth="yes"/>
      <point x="146" y="440"/>
      <point x="217" y="511"/>
      <point x="357" y="511" type="curve" smooth="yes"/>
      <point x="496" y="511"/>
      <point x="568" y="439"/>
      <point x="568" y="288" type="curve" smooth="yes"/>
      <point x="568" y="137"/>
      <point x="497" y="66"/>
    </contour>
    <contour>
      <point x="190" y="652" type="line"/>
      <point x="219" y="674"/>
      <point x="246" y="681"/>
      <point x="273" y="681" type="curve" smooth="yes"/>
      <point x="327" y="681"/>
      <point x="380" y="650"/>
      <point x="434" y="650" type="curve" smooth="yes"/>
      <point x="478" y="650"/>
      <point x="525" y="674"/>
      <point x="561" y="719" type="curve"/>
      <point x="541" y="742" type="line"/>
      <point x="509" y="722"/>
      <point x="482" y="714"/>
      <point x="453" y="714" type="curve" smooth="yes"/>
      <point x="395" y="714"/>
      <point x="350" y="745"/>
      <point x="290" y="745" type="curve" smooth="yes"/>
      <point x="249" y="745"/>
      <point x="206" y="722"/>
      <point x="168" y="676" type="curve"/>
    </contour>
  </outline>
</glyph>
<glyph name="P.sc" format="1">
  <advance width="621"/>
  <outline>
    <contour>
      <point x="88" y="0" type="line"/>
      <point x="179" y="0" type="line"/>
      <point x="179" y="185" type="line"/>
      <point x="215" y="181"/>
      <point x="248" y="180"/>
      <point x="271" y="180" type="curve" smooth="yes"/>
      <point x="484" y="180"/>
      <point x="582" y="243"/>
      <point x="582" y="382" type="curve" smooth="yes"/>
      <point x="582" y="523"/>
      <point x="487" y="585"/>
      <point x="263" y="585" type="curve" smooth="yes"/>
      <point x="209" y="585"/>
      <point x="150" y="581"/>
      <point x="88" y="573" type="curve"/>
    </contour>
    <contour>
      <point x="287" y="248" type="curve" smooth="yes"/>
      <point x="248" y="248"/>
      <point x="199" y="252"/>
      <point x="179" y="256" type="curve"/>
      <point x="179" y="508" type="line"/>
      <point x="209" y="512"/>
      <point x="249" y="514"/>
      <point x="281" y="514" type="curve" smooth="yes"/>
      <point x="433" y="514"/>
      <point x="490" y="476"/>
      <point x="490" y="382" type="curve" smooth="yes"/>
      <point x="490" y="284"/>
      <point x="437" y="248"/>
    </contour>
  </outline>
</glyph>
<glyph name="Schwa.sc" format="1">
  <advance width="648"/>
  <outline>
    <contour>
      <point x="50" y="254" type="curve" smooth="yes"/>
      <point x="50" y="90"/>
      <point x="147" y="-8"/>
      <point x="310" y="-8" type="curve" smooth="yes"/>
      <point x="493" y="-8"/>
      <point x="595" y="102"/>
      <point x="595" y="298" type="curve" smooth="yes"/>
      <point x="595" y="490"/>
      <point x="498" y="585"/>
      <point x="300" y="585" type="curve" smooth="yes"/>
      <point x="223" y="585"/>
      <point x="128" y="572"/>
      <point x="73" y="553" type="curve"/>
      <point x="77" y="481" type="line"/>
      <point x="144" y="499"/>
      <point x="228" y="509"/>
      <point x="295" y="509" type="curve" smooth="yes"/>
      <point x="432" y="509"/>
      <point x="491" y="455"/>
      <point x="497" y="327" type="curve"/>
      <point x="57" y="327" type="line"/>
      <point x="53" y="309"/>
      <point x="50" y="282"/>
    </contour>
    <contour>
      <point x="312" y="65" type="curve" smooth="yes"/>
      <point x="194" y="65"/>
      <point x="130" y="144"/>
      <point x="139" y="271" type="curve"/>
      <point x="499" y="271" type="line"/>
      <point x="495" y="133"/>
      <point x="434" y="65"/>
    </contour>
  </outline>
</glyph>
<glyph name="Sdotbelow.sc" format="1">
  <advance width="563"/>
  <outline>
    <contour>
      <point x="269" y="-9" type="curve" smooth="yes"/>
      <point x="434" y="-9"/>
      <point x="521" y="48"/>
      <point x="521" y="156" type="curve" smooth="yes"/>
      <point x="521" y="269"/>
      <point x="425" y="304"/>
      <point x="305" y="324" type="curve" smooth="yes"/>
      <point x="195" y="348"/>
      <point x="154" y="374"/>
      <point x="154" y="427" type="curve" smooth="yes"/>
      <point x="154" y="482"/>
      <point x="210" y="516"/>
      <point x="307" y="516" type="curve" smooth="yes"/>
      <point x="360" y="516"/>
      <point x="429" y="508"/>
      <point x="486" y="494" type="curve"/>
      <point x="486" y="568" type="line"/>
      <point x="409" y="583"/>
      <point x="351" y="589"/>
      <point x="299" y="589" type="curve" smooth="yes"/>
      <point x="153" y="589"/>
      <point x="60" y="526"/>
      <point x="60" y="427" type="curve" smooth="yes"/>
      <point x="60" y="331"/>
      <point x="119" y="284"/>
      <point x="274" y="256" type="curve" smooth="yes"/>
      <point x="358" y="238"/>
      <point x="426" y="223"/>
      <point x="426" y="153" type="curve" smooth="yes"/>
      <point x="426" y="97"/>
      <point x="367" y="65"/>
      <point x="265" y="65" type="curve" smooth="yes"/>
      <point x="207" y="65"/>
      <point x="129" y="74"/>
      <point x="48" y="90" type="curve"/>
      <point x="48" y="15" type="line"/>
      <point x="122" y="0"/>
      <point x="208" y="-9"/>
    </contour>
    <contour>
      <point x="272" y="-149" type="curve" smooth="yes"/>
      <point x="304" y="-149"/>
      <point x="320" y="-135"/>
      <point x="320" y="-104" type="curve" smooth="yes"/>
      <point x="320" y="-72"/>
      <point x="304" y="-58"/>
      <point x="272" y="-58" type="curve" smooth="yes"/>
      <point x="239" y="-58"/>
      <point x="223" y="-72"/>
      <point x="223" y="-104" type="curve" smooth="yes"/>
      <point x="223" y="-135"/>
      <point x="239" y="-149"/>
    </contour>
  </outline>
</glyph>
<glyph name="T.sc" format="1">
  <advance width="578"/>
  <outline>
    <contour>
      <point x="229" y="760" type="move" name="topUC"/>
    </contour>
    <contour>
      <point x="230" y="0" type="move" name="bottom"/>
    </contour>
    <contour>
      <point x="244" y="0" type="line"/>
      <point x="335" y="0" type="line"/>
      <point x="335" y="505" type="line"/>
      <point x="556" y="505" type="line"/>
      <point x="556" y="577" type="line"/>
      <point x="22" y="577" type="line"/>
      <point x="22" y="505" type="line"/>
      <point x="244" y="505" type="line"/>
    </contour>
  </outline>
</glyph>
<glyph name="Tcaron.sc" format="1">
  <advance width="578"/>
  <outline>
    <contour>
      <point x="244" y="0" type="line"/>
      <point x="335" y="0" type="line"/>
      <point x="335" y="505" type="line"/>
      <point x="556" y="505" type="line"/>
      <point x="556" y="577" type="line"/>
      <point x="22" y="577" type="line"/>
      <point x="22" y="505" type="line"/>
      <point x="244" y="505" type="line"/>
    </contour>
    <contour>
      <point x="131" y="692" type="line"/>
      <point x="289" y="633" type="line"/>
      <point x="448" y="692" type="line"/>
      <point x="448" y="758" type="line"/>
      <point x="290" y="699" type="line"/>
      <point x="131" y="758" type="line"/>
    </contour>
  </outline>
</glyph>
<glyph name="Thorn.sc" format="1">
  <advance width="625"/>
  <outline>
    <contour>
      <point x="89" y="0" type="line"/>
      <point x="180" y="0" type="line"/>
      <point x="180" y="94" type="line"/>
      <point x="215" y="90"/>
      <point x="248" y="88"/>
      <point x="271" y="88" type="curve" smooth="yes"/>
      <point x="485" y="88"/>
      <point x="583" y="151"/>
      <point x="583" y="290" type="curve" smooth="yes"/>
      <point x="583" y="431"/>
      <point x="487" y="493"/>
      <point x="264" y="493" type="curve" smooth="yes"/>
      <point x="239" y="493"/>
      <point x="207" y="492"/>
      <point x="180" y="488" type="curve"/>
      <point x="180" y="578" type="line"/>
      <point x="89" y="578" type="line"/>
    </contour>
    <contour>
      <point x="288" y="157" type="curve" smooth="yes"/>
      <point x="249" y="157"/>
      <point x="199" y="161"/>
      <point x="180" y="165" type="curve"/>
      <point x="180" y="416" type="line"/>
      <point x="209" y="419"/>
      <point x="249" y="421"/>
      <point x="281" y="421" type="curve" smooth="yes"/>
      <point x="434" y="421"/>
      <point x="491" y="384"/>
      <point x="491" y="290" type="curve" smooth="yes"/>
      <point x="491" y="193"/>
      <point x="438" y="157"/>
    </contour>
  </outline>
</glyph>
<glyph name="U.sc" format="1">
  <advance width="719"/>
  <outline>
    <contour>
      <point x="329" y="-10" type="move" name="ogonek"/>
    </contour>
    <contour>
      <point x="329" y="760" type="move" name="topUC"/>
    </contour>
    <contour>
      <point x="330" y="0" type="move" name="bottom"/>
    </contour>
    <contour>
      <point x="360" y="-8" type="curve" smooth="yes"/>
      <point x="551" y="-8"/>
      <point x="638" y="62"/>
      <point x="638" y="239" type="curve" smooth="yes"/>
      <point x="638" y="578" type="line"/>
      <point x="547" y="578" type="line"/>
      <point x="547" y="237" type="line" smooth="yes"/>
      <point x="547" y="112"/>
      <point x="478" y="66"/>
      <point x="360" y="66" type="curve" smooth="yes"/>
      <point x="241" y="66"/>
      <point x="172" y="112"/>
      <point x="172" y="237" type="curve" smooth="yes"/>
      <point x="172" y="578" type="line"/>
      <point x="82" y="578" type="line"/>
      <point x="82" y="239" type="line" smooth="yes"/>
      <point x="82" y="62"/>
      <point x="168" y="-8"/>
    </contour>
  </outline>
</glyph>
<glyph name="Uacute.sc" format="1">
  <advance width="719"/>
  <outline>
    <contour>
      <point x="360" y="-8" type="curve" smooth="yes"/>
      <point x="557" y="-8"/>
      <point x="638" y="66"/>
      <point x="638" y="239" type="curve" smooth="yes"/>
      <point x="638" y="578" type="line"/>
      <point x="547" y="578" type="line"/>
      <point x="547" y="237" type="line" smooth="yes"/>
      <point x="547" y="117"/>
      <point x="483" y="66"/>
      <point x="360" y="66" type="curve" smooth="yes"/>
      <point x="236" y="66"/>
      <point x="172" y="117"/>
      <point x="172" y="237" type="curve" smooth="yes"/>
      <point x="172" y="578" type="line"/>
      <point x="82" y="578" type="line"/>
      <point x="82" y="239" type="line" smooth="yes"/>
      <point x="82" y="66"/>
      <point x="162" y="-8"/>
    </contour>
    <contour>
      <point x="379" y="629" type="line"/>
      <point x="468" y="751" type="line"/>
      <point x="374" y="751" type="line"/>
      <point x="311" y="635" type="line"/>
    </contour>
  </outline>
</glyph>
<glyph name="Ucircumflex.sc" format="1">
  <advance width="719"/>
  <outline>
    <contour>
      <point x="360" y="-8" type="curve" smooth="yes"/>
      <point x="557" y="-8"/>
      <point x="638" y="66"/>
      <point x="638" y="239" type="curve" smooth="yes"/>
      <point x="638" y="578" type="line"/>
      <point x="547" y="578" type="line"/>
      <point x="547" y="237" type="line" smooth="yes"/>
      <point x="547" y="117"/>
      <point x="483" y="66"/>
      <point x="360" y="66" type="curve" smooth="yes"/>
      <point x="236" y="66"/>
      <point x="172" y="117"/>
      <point x="172" y="237" type="curve" smooth="yes"/>
      <point x="172" y="578" type="line"/>
      <point x="82" y="578" type="line"/>
      <point x="82" y="239" type="line" smooth="yes"/>
      <point x="82" y="66"/>
      <point x="162" y="-8"/>
    </contour>
    <contour>
      <point x="199" y="632" type="line"/>
      <point x="356" y="691" type="line"/>
      <point x="515" y="632" type="line"/>
      <point x="515" y="698" type="line"/>
      <point x="355" y="758" type="line"/>
      <point x="199" y="698" type="line"/>
    </contour>
  </outline>
</glyph>
<glyph name="Udieresis.sc" format="1">
  <advance width="719"/>
  <outline>
    <contour>
      <point x="360" y="-8" type="curve" smooth="yes"/>
      <point x="557" y="-8"/>
      <point x="638" y="66"/>
      <point x="638" y="239" type="curve" smooth="yes"/>
      <point x="638" y="578" type="line"/>
      <point x="547" y="578" type="line"/>
      <point x="547" y="237" type="line" smooth="yes"/>
      <point x="547" y="117"/>
      <point x="483" y="66"/>
      <point x="360" y="66" type="curve" smooth="yes"/>
      <point x="236" y="66"/>
      <point x="172" y="117"/>
      <point x="172" y="237" type="curve" smooth="yes"/>
      <point x="172" y="578" type="line"/>
      <point x="82" y="578" type="line"/>
      <point x="82" y="239" type="line" smooth="yes"/>
      <point x="82" y="66"/>
      <point x="162" y="-8"/>
    </contour>
    <contour>
      <point x="232" y="639" type="curve" smooth="yes"/>
      <point x="268" y="639"/>
      <point x="288" y="655"/>
      <point x="288" y="692" type="curve" smooth="yes"/>
      <point x="288" y="728"/>
      <point x="268" y="745"/>
      <point x="232" y="745" type="curve" smooth="yes"/>
      <point x="194" y="745"/>
      <point x="175" y="728"/>
      <point x="175" y="692" type="curve" smooth="yes"/>
      <point x="175" y="655"/>
      <point x="194" y="639"/>
    </contour>
    <contour>
      <point x="482" y="639" type="curve" smooth="yes"/>
      <point x="519" y="639"/>
      <point x="538" y="655"/>
      <point x="538" y="692" type="curve" smooth="yes"/>
      <point x="538" y="728"/>
      <point x="519" y="745"/>
      <point x="482" y="745" type="curve" smooth="yes"/>
      <point x="444" y="745"/>
      <point x="426" y="728"/>
      <point x="426" y="692" type="curve" smooth="yes"/>
      <point x="426" y="655"/>
      <point x="444" y="639"/>
    </contour>
  </outline>
</glyph>
<glyph name="Uhungarumlaut.sc" format="1">
  <advance width="719"/>
  <outline>
    <contour>
      <point x="360" y="-8" type="curve" smooth="yes"/>
      <point x="557" y="-8"/>
      <point x="638" y="66"/>
      <point x="638" y="239" type="curve" smooth="yes"/>
      <point x="638" y="578" type="line"/>
      <point x="547" y="578" type="line"/>
      <point x="547" y="237" type="line" smooth="yes"/>
      <point x="547" y="117"/>
      <point x="483" y="66"/>
      <point x="360" y="66" type="curve" smooth="yes"/>
      <point x="236" y="66"/>
      <point x="172" y="117"/>
      <point x="172" y="237" type="curve" smooth="yes"/>
      <point x="172" y="578" type="line"/>
      <point x="82" y="578" type="line"/>
      <point x="82" y="239" type="line" smooth="yes"/>
      <point x="82" y="66"/>
      <point x="162" y="-8"/>
    </contour>
    <contour>
      <point x="312" y="624" type="line"/>
      <point x="400" y="746" type="line"/>
      <point x="307" y="746" type="line"/>
      <point x="244" y="634" type="line"/>
    </contour>
    <contour>
      <point x="461" y="624" type="line"/>
      <point x="549" y="746" type="line"/>
      <point x="456" y="746" type="line"/>
      <point x="393" y="634" type="line"/>
    </contour>
  </outline>
</glyph>
<glyph name="Uinvertedbreve.sc" format="1">
  <advance width="719"/>
  <outline>
    <contour>
      <point x="360" y="-8" type="curve" smooth="yes"/>
      <point x="557" y="-8"/>
      <point x="638" y="66"/>
      <point x="638" y="239" type="curve" smooth="yes"/>
      <point x="638" y="578" type="line"/>
      <point x="547" y="578" type="line"/>
      <point x="547" y="237" type="line" smooth="yes"/>
      <point x="547" y="117"/>
      <point x="483" y="66"/>
      <point x="360" y="66" type="curve" smooth="yes"/>
      <point x="236" y="66"/>
      <point x="172" y="117"/>
      <point x="172" y="237" type="curve" smooth="yes"/>
      <point x="172" y="578" type="line"/>
      <point x="82" y="578" type="line"/>
      <point x="82" y="239" type="line" smooth="yes"/>
      <point x="82" y="66"/>
      <point x="162" y="-8"/>
    </contour>
    <contour>
      <point x="527" y="638" type="line"/>
      <point x="527" y="711"/>
      <point x="473" y="762"/>
      <point x="354" y="762" type="curve" smooth="yes"/>
      <point x="235" y="762"/>
      <point x="183" y="709"/>
      <point x="183" y="638" type="curve"/>
      <point x="246" y="638" type="line"/>
      <point x="246" y="684"/>
      <point x="282" y="711"/>
      <point x="354" y="711" type="curve" smooth="yes"/>
      <point x="427" y="711"/>
      <point x="462" y="684"/>
      <point x="462" y="638" type="curve"/>
    </contour>
  </outline>
</glyph>
<glyph name="Utilde.sc" format="1">
  <advance width="719"/>
  <outline>
    <contour>
      <point x="360" y="-8" type="curve" smooth="yes"/>
      <point x="557" y="-8"/>
      <point x="638" y="66"/>
      <point x="638" y="239" type="curve" smooth="yes"/>
      <point x="638" y="578" type="line"/>
      <point x="547" y="578" type="line"/>
      <point x="547" y="237" type="line" smooth="yes"/>
      <point x="547" y="117"/>
      <point x="483" y="66"/>
      <point x="360" y="66" type="curve" smooth="yes"/>
      <point x="236" y="66"/>
      <point x="172" y="117"/>
      <point x="172" y="237" type="curve" smooth="yes"/>
      <point x="172" y="578" type="line"/>
      <point x="82" y="578" type="line"/>
      <point x="82" y="239" type="line" smooth="yes"/>
      <point x="82" y="66"/>
      <point x="162" y="-8"/>
    </contour>
    <contour>
      <point x="190" y="652" type="line"/>
      <point x="220" y="674"/>
      <point x="246" y="681"/>
      <point x="274" y="681" type="curve" smooth="yes"/>
      <point x="328" y="681"/>
      <point x="381" y="650"/>
      <point x="435" y="650" type="curve" smooth="yes"/>
      <point x="479" y="650"/>
      <point x="526" y="674"/>
      <point x="562" y="719" type="curve"/>
      <point x="542" y="742" type="line"/>
      <point x="510" y="722"/>
      <point x="483" y="714"/>
      <point x="454" y="714" type="curve" smooth="yes"/>
      <point x="396" y="714"/>
      <point x="351" y="745"/>
      <point x="291" y="745" type="curve" smooth="yes"/>
      <point x="250" y="745"/>
      <point x="207" y="722"/>
      <point x="169" y="676" type="curve"/>
    </contour>
  </outline>
</glyph>
<glyph name="V.sc" format="1">
  <advance width="648"/>
  <outline>
    <contour>
      <point x="263" y="0" type="line"/>
      <point x="385" y="0" type="line"/>
      <point x="635" y="577" type="line"/>
      <point x="536" y="577" type="line"/>
      <point x="372" y="192" type="line"/>
      <point x="326" y="76" type="line"/>
      <point x="323" y="76" type="line"/>
      <point x="277" y="192" type="line"/>
      <point x="113" y="577" type="line"/>
      <point x="14" y="577" type="line"/>
    </contour>
  </outline>
</glyph>
<glyph name="Wgrave.sc" format="1">
  <advance width="951"/>
  <outline>
    <contour>
      <point x="205" y="0" type="line"/>
      <point x="329" y="0" type="line"/>
      <point x="442" y="344" type="line"/>
      <point x="472" y="464" type="line"/>
      <point x="478" y="464" type="line"/>
      <point x="509" y="346" type="line"/>
      <point x="622" y="0" type="line"/>
      <point x="746" y="0" type="line"/>
      <point x="927" y="577" type="line"/>
      <point x="830" y="577" type="line"/>
      <point x="715" y="201" type="line"/>
      <point x="684" y="87" type="line"/>
      <point x="678" y="87" type="line"/>
      <point x="643" y="201" type="line"/>
      <point x="521" y="577" type="line"/>
      <point x="430" y="577" type="line"/>
      <point x="307" y="201" type="line"/>
      <point x="273" y="87" type="line"/>
      <point x="266" y="87" type="line"/>
      <point x="235" y="201" type="line"/>
      <point x="121" y="577" type="line"/>
      <point x="24" y="577" type="line"/>
    </contour>
    <contour>
      <point x="506" y="639" type="line"/>
      <point x="443" y="751" type="line"/>
      <point x="349" y="751" type="line"/>
      <point x="437" y="629" type="line"/>
    </contour>
  </outline>
</glyph>
<glyph name="Yacute.sc" format="1">
  <advance width="599"/>
  <outline>
    <contour>
      <point x="253" y="0" type="line"/>
      <point x="347" y="0" type="line"/>
      <point x="347" y="192" type="line"/>
      <point x="588" y="577" type="line"/>
      <point x="488" y="577" type="line"/>
      <point x="329" y="321" type="line"/>
      <point x="302" y="267" type="line"/>
      <point x="297" y="267" type="line"/>
      <point x="269" y="321" type="line"/>
      <point x="110" y="577" type="line"/>
      <point x="10" y="577" type="line"/>
      <point x="253" y="192" type="line"/>
    </contour>
    <contour>
      <point x="330" y="629" type="line"/>
      <point x="418" y="751" type="line"/>
      <point x="324" y="751" type="line"/>
      <point x="262" y="635" type="line"/>
    </contour>
  </outline>
</glyph>
<glyph name="Z.sc" format="1">
  <advance width="568"/>
  <outline>
    <contour>
      <point x="234" y="760" type="move" name="topUC"/>
    </contour>
    <contour>
      <point x="227" y="0" type="move" name="bottom"/>
    </contour>
    <contour>
      <point x="40" y="0" type="line"/>
      <point x="529" y="0" type="line"/>
      <point x="529" y="72" type="line"/>
      <point x="157" y="72" type="line"/>
      <point x="157" y="76" type="line"/>
      <point x="519" y="516" type="line"/>
      <point x="519" y="577" type="line"/>
      <point x="51" y="577" type="line"/>
      <point x="51" y="505" type="line"/>
      <point x="402" y="505" type="line"/>
      <point x="402" y="501" type="line"/>
      <point x="40" y="65" type="line"/>
    </contour>
  </outline>
</glyph>
<glyph name="Zacute.sc" format="1">
  <advance width="569"/>
  <outline>
    <contour>
      <point x="40" y="0" type="line"/>
      <point x="529" y="0" type="line"/>
      <point x="529" y="72" type="line"/>
      <point x="157" y="72" type="line"/>
      <point x="157" y="76" type="line"/>
      <point x="519" y="516" type="line"/>
      <point x="519" y="577" type="line"/>
      <point x="51" y="577" type="line"/>
      <point x="51" y="505" type="line"/>
      <point x="402" y="505" type="line"/>
      <point x="402" y="501" type="line"/>
      <point x="40" y="65" type="line"/>
    </contour>
    <contour>
      <point x="323" y="629" type="line"/>
      <point x="411" y="751" type="line"/>
      <point x="318" y="751" type="line"/>
      <point x="254" y="635" type="line"/>
    </contour>
  </outline>
</glyph>
<glyph name="Zcaron.sc" format="1">
  <advance width="569"/>
  <outline>
    <contour>
      <point x="40" y="0" type="line"/>
      <point x="529" y="0" type="line"/>
      <point x="529" y="72" type="line"/>
      <point x="157" y="72" type="line"/>
      <point x="157" y="76" type="line"/>
      <point x="519" y="516" type="line"/>
      <point x="519" y="577" type="line"/>
      <point x="51" y="577" type="line"/>
      <point x="51" y="505" type="line"/>
      <point x="402" y="505" type="line"/>
      <point x="402" y="501" type="line"/>
      <point x="40" y="65" type="line"/>
    </contour>
    <contour>
      <point x="128" y="692" type="line"/>
      <point x="286" y="633" type="line"/>
      <point x="445" y="692" type="line"/>
      <point x="445" y="758" type="line"/>
      <point x="287" y="699" type="line"/>
      <point x="128" y="758" type="line"/>
    </contour>
  </outline>
</glyph>
<glyph name="Zdotaccent.sc" format="1">
  <advance width="569"/>
  <outline>
    <contour>
      <point x="40" y="0" type="line"/>
      <point x="529" y="0" type="line"/>
      <point x="529" y="72" type="line"/>
      <point x="157" y="72" type="line"/>
      <point x="157" y="76" type="line"/>
      <point x="519" y="516" type="line"/>
      <point x="519" y="577" type="line"/>
      <point x="51" y="577" type="line"/>
      <point x="51" y="505" type="line"/>
      <point x="402" y="505" type="line"/>
      <point x="402" y="501" type="line"/>
      <point x="40" y="65" type="line"/>
    </contour>
    <contour>
      <point x="287" y="636" type="curve" smooth="yes"/>
      <point x="325" y="636"/>
      <point x="343" y="653"/>
      <point x="343" y="689" type="curve" smooth="yes"/>
      <point x="343" y="725"/>
      <point x="325" y="742"/>
      <point x="287" y="742" type="curve" smooth="yes"/>
      <point x="250" y="742"/>
      <point x="232" y="726"/>
      <point x="232" y="689" type="curve" smooth="yes"/>
      <point x="232" y="651"/>
      <point x="250" y="636"/>
    </contour>
  </outline>
</glyph>
<glyph name="Zdotbelow.sc" format="1">
  <advance width="569"/>
  <outline>
    <contour>
      <point x="40" y="0" type="line"/>
      <point x="529" y="0" type="line"/>
      <point x="529" y="72" type="line"/>
      <point x="157" y="72" type="line"/>
      <point x="157" y="76" type="line"/>
      <point x="519" y="516" type="line"/>
      <point x="519" y="577" type="line"/>
      <point x="51" y="577" type="line"/>
      <point x="51" y="505" type="line"/>
      <point x="402" y="505" type="line"/>
      <point x="402" y="501" type="line"/>
      <point x="40" y="65" type="line"/>
    </contour>
    <contour>
      <point x="279" y="-149" type="curve" smooth="yes"/>
      <point x="312" y="-149"/>
      <point x="328" y="-135"/>
      <point x="328" y="-104" type="curve" smooth="yes"/>
      <point x="328" y="-72"/>
      <point x="312" y="-58"/>
      <point x="279" y="-58" type="curve" smooth="yes"/>
      <point x="246" y="-58"/>
      <point x="230" y="-72"/>
      <point x="230" y="-104" type="curve" smooth="yes"/>
      <point x="230" y="-135"/>
      <point x="246" y="-149"/>
    </contour>
  </outline>
</glyph>
<glyph name="acute.cap" format="1">
  <advance width="373"/>
  <outline>
    <contour>
      <point x="186" y="798" type="move" name="_topUC"/>
    </contour>
    <contour>
      <point x="218" y="805" type="line"/>
      <point x="317" y="953" type="line"/>
      <point x="220" y="953" type="line"/>
      <point x="146" y="812" type="line"/>
    </contour>
  </outline>
</glyph>
<glyph name="ampersand.sc" format="1">
  <advance width="700"/>
  <outline>
    <contour>
      <point x="312" y="-8" type="curve" smooth="yes"/>
      <point x="429" y="-8"/>
      <point x="512" y="27"/>
      <point x="559" y="96" type="curve"/>
      <point x="634" y="60" type="line"/>
      <point x="642" y="60" type="line"/>
      <point x="678" y="118" type="line"/>
      <point x="678" y="126" type="line"/>
      <point x="598" y="163" type="line"/>
      <point x="608" y="193"/>
      <point x="613" y="228"/>
      <point x="613" y="268" type="curve" smooth="yes"/>
      <point x="613" y="331" type="line"/>
      <point x="529" y="331" type="line"/>
      <point x="529" y="287" type="line"/>
      <point x="529" y="257"/>
      <point x="526" y="221"/>
      <point x="519" y="200" type="curve"/>
      <point x="418" y="247" type="line" smooth="yes"/>
      <point x="274" y="314"/>
      <point x="218" y="364"/>
      <point x="218" y="429" type="curve" smooth="yes"/>
      <point x="218" y="493"/>
      <point x="264" y="524"/>
      <point x="356" y="524" type="curve" smooth="yes"/>
      <point x="397" y="524"/>
      <point x="445" y="516"/>
      <point x="500" y="499" type="curve"/>
      <point x="507" y="499" type="line"/>
      <point x="522" y="556" type="line"/>
      <point x="520" y="561" type="line"/>
      <point x="454" y="579"/>
      <point x="399" y="587"/>
      <point x="347" y="587" type="curve" smooth="yes"/>
      <point x="206" y="587"/>
      <point x="125" y="531"/>
      <point x="125" y="433" type="curve" smooth="yes"/>
      <point x="125" y="389"/>
      <point x="140" y="351"/>
      <point x="178" y="313" type="curve"/>
      <point x="96" y="287"/>
      <point x="53" y="233"/>
      <point x="53" y="161" type="curve" smooth="yes"/>
      <point x="53" y="57"/>
      <point x="152" y="-8"/>
    </contour>
    <contour>
      <point x="317" y="54" type="curve" smooth="yes"/>
      <point x="212" y="54"/>
      <point x="146" y="97"/>
      <point x="146" y="165" type="curve" smooth="yes"/>
      <point x="146" y="214"/>
      <point x="176" y="248"/>
      <point x="237" y="270" type="curve"/>
      <point x="270" y="243"/>
      <point x="315" y="218"/>
      <point x="376" y="187" type="curve" smooth="yes"/>
      <point x="490" y="131" type="line"/>
      <point x="458" y="79"/>
      <point x="401" y="54"/>
    </contour>
  </outline>
</glyph>
<glyph name="braceleft.sc" format="1">
  <advance width="350"/>
  <outline>
    <contour>
      <point x="47" y="240" type="line"/>
      <point x="87" y="240"/>
      <point x="109" y="215"/>
      <point x="109" y="163" type="curve" smooth="yes"/>
      <point x="109" y="-25" type="line" smooth="yes"/>
      <point x="109" y="-97"/>
      <point x="136" y="-125"/>
      <point x="205" y="-125" type="curve" smooth="yes"/>
      <point x="227" y="-125"/>
      <point x="288" y="-123"/>
      <point x="298" y="-121" type="curve"/>
      <point x="298" y="-64" type="line"/>
      <point x="221" y="-64" type="line" smooth="yes"/>
      <point x="195" y="-64"/>
      <point x="184" y="-53"/>
      <point x="184" y="-31" type="curve" smooth="yes"/>
      <point x="184" y="183" type="line" smooth="yes"/>
      <point x="184" y="231"/>
      <point x="157" y="271"/>
      <point x="114" y="276" type="curve"/>
      <point x="157" y="283"/>
      <point x="184" y="323"/>
      <point x="184" y="372" type="curve" smooth="yes"/>
      <point x="184" y="583" type="line" smooth="yes"/>
      <point x="184" y="605"/>
      <point x="195" y="615"/>
      <point x="221" y="615" type="curve" smooth="yes"/>
      <point x="298" y="615" type="line"/>
      <point x="298" y="673" type="line"/>
      <point x="288" y="675"/>
      <point x="226" y="677"/>
      <point x="205" y="677" type="curve" smooth="yes"/>
      <point x="136" y="677"/>
      <point x="109" y="649"/>
      <point x="109" y="577" type="curve" smooth="yes"/>
      <point x="109" y="391" type="line" smooth="yes"/>
      <point x="109" y="339"/>
      <point x="87" y="313"/>
      <point x="47" y="313" type="curve"/>
    </contour>
  </outline>
</glyph>
<glyph name="breve.cap" format="1">
  <advance width="489"/>
  <outline>
    <contour>
      <point x="244" y="798" type="move" name="_topUC"/>
    </contour>
    <contour>
      <point x="243" y="815" type="curve" smooth="yes"/>
      <point x="374" y="815"/>
      <point x="436" y="875"/>
      <point x="436" y="965" type="curve"/>
      <point x="367" y="965" type="line"/>
      <point x="367" y="906"/>
      <point x="326" y="870"/>
      <point x="243" y="870" type="curve" smooth="yes"/>
      <point x="161" y="870"/>
      <point x="120" y="906"/>
      <point x="120" y="965" type="curve"/>
      <point x="51" y="965" type="line"/>
      <point x="51" y="876"/>
      <point x="112" y="815"/>
    </contour>
  </outline>
</glyph>
<glyph name="cent.tab" format="1">
  <advance width="579"/>
  <outline>
    <contour>
      <point x="307" y="-120" type="line"/>
      <point x="374" y="-120" type="line"/>
      <point x="374" y="-8" type="line"/>
      <point x="422" y="-7"/>
      <point x="470" y="-2"/>
      <point x="497" y="6" type="curve"/>
      <point x="497" y="82" type="line"/>
      <point x="449" y="73"/>
      <point x="412" y="70"/>
      <point x="358" y="70" type="curve" smooth="yes"/>
      <point x="219" y="70"/>
      <point x="160" y="130"/>
      <point x="160" y="270" type="curve" smooth="yes"/>
      <point x="160" y="405"/>
      <point x="225" y="470"/>
      <point x="360" y="470" type="curve" smooth="yes"/>
      <point x="406" y="470"/>
      <point x="453" y="465"/>
      <point x="497" y="456" type="curve"/>
      <point x="497" y="534" type="line"/>
      <point x="464" y="542"/>
      <point x="416" y="547"/>
      <point x="374" y="548" type="curve"/>
      <point x="374" y="660" type="line"/>
      <point x="307" y="660" type="line"/>
      <point x="307" y="547" type="line"/>
      <point x="146" y="534"/>
      <point x="65" y="440"/>
      <point x="65" y="269" type="curve" smooth="yes"/>
      <point x="65" y="98"/>
      <point x="146" y="6"/>
      <point x="307" y="-7" type="curve"/>
    </contour>
  </outline>
</glyph>
<glyph name="circumflex.cap" format="1">
  <advance width="482"/>
  <outline>
    <contour>
      <point x="244" y="798" type="move" name="_topUC"/>
    </contour>
    <contour>
      <point x="63" y="812" type="line"/>
      <point x="239" y="887" type="line"/>
      <point x="416" y="812" type="line"/>
      <point x="416" y="886" type="line"/>
      <point x="239" y="961" type="line"/>
      <point x="63" y="886" type="line"/>
    </contour>
  </outline>
</glyph>
<glyph name="colon.tab" format="1">
  <advance width="290"/>
  <outline>
    <contour>
      <point x="144" y="-4" type="curve" smooth="yes"/>
      <point x="180" y="-4"/>
      <point x="205" y="16"/>
      <point x="205" y="53" type="curve" smooth="yes"/>
      <point x="205" y="90"/>
      <point x="180" y="109"/>
      <point x="144" y="109" type="curve" smooth="yes"/>
      <point x="107" y="109"/>
      <point x="83" y="91"/>
      <point x="83" y="53" type="curve" smooth="yes"/>
      <point x="83" y="16"/>
      <point x="107" y="-4"/>
    </contour>
    <contour>
      <point x="144" y="431" type="curve" smooth="yes"/>
      <point x="180" y="431"/>
      <point x="205" y="451"/>
      <point x="205" y="488" type="curve" smooth="yes"/>
      <point x="205" y="525"/>
      <point x="180" y="544"/>
      <point x="144" y="544" type="curve" smooth="yes"/>
      <point x="107" y="544"/>
      <point x="83" y="526"/>
      <point x="83" y="488" type="curve" smooth="yes"/>
      <point x="83" y="451"/>
      <point x="107" y="431"/>
    </contour>
  </outline>
</glyph>
<glyph name="currency.ss01" format="1">
  <advance width="692"/>
  <outline>
    <contour>
      <point x="214" y="-150" type="line"/>
      <point x="292" y="-150" type="line"/>
      <point x="292" y="38" type="line"/>
      <point x="214" y="36" type="line"/>
    </contour>
    <contour>
      <point x="214" y="708" type="line"/>
      <point x="292" y="712" type="line"/>
      <point x="292" y="890" type="line"/>
      <point x="214" y="890" type="line"/>
    </contour>
    <contour>
      <point x="398" y="-150" type="line"/>
      <point x="477" y="-150" type="line"/>
      <point x="477" y="38" type="line"/>
      <point x="398" y="36" type="line"/>
    </contour>
    <contour>
      <point x="398" y="708" type="line"/>
      <point x="477" y="712" type="line"/>
      <point x="477" y="890" type="line"/>
      <point x="398" y="890" type="line"/>
    </contour>
    <component base="B" xOffset="2"/>
  </outline>
</glyph>
<glyph name="dotaccent.cap" format="1">
  <advance width="372"/>
  <outline>
    <contour>
      <point x="186" y="798" type="move" name="_topUC"/>
    </contour>
    <contour>
      <point x="186" y="818" type="curve" smooth="yes"/>
      <point x="225" y="818"/>
      <point x="246" y="836"/>
      <point x="246" y="876" type="curve" smooth="yes"/>
      <point x="246" y="917"/>
      <point x="225" y="935"/>
      <point x="186" y="935" type="curve" smooth="yes"/>
      <point x="146" y="935"/>
      <point x="126" y="917"/>
      <point x="126" y="876" type="curve" smooth="yes"/>
      <point x="126" y="835"/>
      <point x="146" y="818"/>
    </contour>
  </outline>
</glyph>
<glyph name="eight.osf" format="1">
  <advance width="654"/>
  <outline>
    <contour>
      <point x="327" y="-6" type="curve" smooth="yes"/>
      <point x="503" y="-6"/>
      <point x="601" y="61"/>
      <point x="601" y="180" type="curve" smooth="yes"/>
      <point x="601" y="276"/>
      <point x="537" y="329"/>
      <point x="361" y="375" type="curve" smooth="yes"/>
      <point x="262" y="400"/>
      <point x="164" y="422"/>
      <point x="164" y="510" type="curve" smooth="yes"/>
      <point x="164" y="581"/>
      <point x="225" y="623"/>
      <point x="327" y="623" type="curve" smooth="yes"/>
      <point x="430" y="623"/>
      <point x="489" y="580"/>
      <point x="489" y="508" type="curve" smooth="yes"/>
      <point x="489" y="446"/>
      <point x="431" y="380"/>
      <point x="358" y="361" type="curve"/>
      <point x="396" y="324" type="line"/>
      <point x="510" y="356"/>
      <point x="575" y="428"/>
      <point x="575" y="516" type="curve" smooth="yes"/>
      <point x="575" y="627"/>
      <point x="485" y="692"/>
      <point x="332" y="692" type="curve" smooth="yes"/>
      <point x="175" y="692"/>
      <point x="79" y="625"/>
      <point x="79" y="517" type="curve" smooth="yes"/>
      <point x="79" y="414"/>
      <point x="141" y="361"/>
      <point x="321" y="317" type="curve" smooth="yes"/>
      <point x="462" y="281"/>
      <point x="511" y="246"/>
      <point x="511" y="177" type="curve" smooth="yes"/>
      <point x="511" y="105"/>
      <point x="440" y="64"/>
      <point x="327" y="64" type="curve" smooth="yes"/>
      <point x="210" y="64"/>
      <point x="143" y="106"/>
      <point x="143" y="184" type="curve" smooth="yes"/>
      <point x="143" y="253"/>
      <point x="200" y="315"/>
      <point x="283" y="338" type="curve"/>
      <point x="239" y="375" type="line"/>
      <point x="127" y="350"/>
      <point x="53" y="271"/>
      <point x="53" y="177" type="curve" smooth="yes"/>
      <point x="53" y="56"/>
      <point x="146" y="-6"/>
    </contour>
  </outline>
</glyph>
<glyph name="equal.tab" format="1">
  <advance width="579"/>
  <outline>
    <contour>
      <point x="72" y="215" type="line"/>
      <point x="506" y="215" type="line"/>
      <point x="506" y="281" type="line"/>
      <point x="72" y="281" type="line"/>
    </contour>
    <contour>
      <point x="72" y="430" type="line"/>
      <point x="506" y="430" type="line"/>
      <point x="506" y="495" type="line"/>
      <point x="72" y="495" type="line"/>
    </contour>
  </outline>
</glyph>
<glyph name="five.denominator" format="1">
  <advance width="448"/>
  <outline>
    <contour>
      <point x="179" y="-8" type="curve" smooth="yes"/>
      <point x="312" y="-8"/>
      <point x="408" y="36"/>
      <point x="408" y="164" type="curve" smooth="yes"/>
      <point x="408" y="282"/>
      <point x="330" y="322"/>
      <point x="134" y="324" type="curve"/>
      <point x="144" y="476" type="line"/>
      <point x="382" y="476" type="line"/>
      <point x="382" y="546" type="line"/>
      <point x="81" y="546" type="line"/>
      <point x="59" y="274" type="line"/>
      <point x="71" y="264" type="line"/>
      <point x="147" y="262" type="line" smooth="yes"/>
      <point x="270" y="260"/>
      <point x="324" y="235"/>
      <point x="324" y="165" type="curve" smooth="yes"/>
      <point x="324" y="89"/>
      <point x="273" y="62"/>
      <point x="170" y="62" type="curve" smooth="yes"/>
      <point x="136" y="62"/>
      <point x="101" y="66"/>
      <point x="63" y="73" type="curve"/>
      <point x="45" y="73" type="line"/>
      <point x="45" y="4" type="line"/>
      <point x="90" y="-3"/>
      <point x="138" y="-8"/>
    </contour>
  </outline>
</glyph>
<glyph name="four.denominator" format="1">
  <advance width="498"/>
  <outline>
    <contour>
      <point x="299" y="0" type="line"/>
      <point x="379" y="0" type="line"/>
      <point x="379" y="124" type="line"/>
      <point x="471" y="124" type="line"/>
      <point x="471" y="191" type="line"/>
      <point x="379" y="191" type="line"/>
      <point x="379" y="365" type="line"/>
      <point x="322" y="365" type="line"/>
      <point x="302" y="191" type="line"/>
      <point x="112" y="191" type="line"/>
      <point x="292" y="528" type="line"/>
      <point x="287" y="544" type="line"/>
      <point x="222" y="553" type="line"/>
      <point x="213" y="552" type="line"/>
      <point x="22" y="175" type="line"/>
      <point x="38" y="124" type="line"/>
      <point x="299" y="124" type="line"/>
    </contour>
  </outline>
</glyph>
<glyph name="four.tf" format="1">
  <advance width="579"/>
  <outline>
    <contour>
      <point x="24" y="172" type="line"/>
      <point x="360" y="172" type="line"/>
      <point x="360" y="0" type="line"/>
      <point x="452" y="0" type="line"/>
      <point x="452" y="172" type="line"/>
      <point x="569" y="172" type="line"/>
      <point x="569" y="248" type="line"/>
      <point x="452" y="248" type="line"/>
      <point x="452" y="486" type="line"/>
      <point x="388" y="486" type="line"/>
      <point x="366" y="248" type="line"/>
      <point x="107" y="248" type="line"/>
      <point x="107" y="252" type="line"/>
      <point x="337" y="727" type="line"/>
      <point x="333" y="737" type="line"/>
      <point x="247" y="750" type="line"/>
      <point x="243" y="750" type="line"/>
      <point x="6" y="234" type="line"/>
      <point x="6" y="227" type="line"/>
    </contour>
  </outline>
</glyph>
<glyph name="hungarumlaut.cap" format="1">
  <advance width="576"/>
  <outline>
    <contour>
      <point x="281" y="798" type="move" name="_topUC"/>
    </contour>
    <contour>
      <point x="228" y="798" type="line"/>
      <point x="327" y="946" type="line"/>
      <point x="231" y="946" type="line"/>
      <point x="158" y="811" type="line"/>
    </contour>
    <contour>
      <point x="393" y="798" type="line"/>
      <point x="492" y="946" type="line"/>
      <point x="396" y="946" type="line"/>
      <point x="322" y="811" type="line"/>
    </contour>
  </outline>
</glyph>
<glyph name="multiply.tab" format="1">
  <advance width="579"/>
  <outline>
    <contour>
      <point x="133" y="192" type="line"/>
      <point x="290" y="327" type="line"/>
      <point x="446" y="192" type="line"/>
      <point x="495" y="237" type="line"/>
      <point x="340" y="371" type="line"/>
      <point x="495" y="504" type="line"/>
      <point x="446" y="550" type="line"/>
      <point x="289" y="414" type="line"/>
      <point x="133" y="550" type="line"/>
      <point x="84" y="504" type="line"/>
      <point x="239" y="371" type="line"/>
      <point x="84" y="237" type="line"/>
    </contour>
  </outline>
</glyph>
<glyph name="nine.denominator" format="1">
  <advance width="513"/>
  <outline>
    <contour>
      <point x="187" y="-7" type="curve" smooth="yes"/>
      <point x="367" y="-7"/>
      <point x="466" y="104"/>
      <point x="466" y="304" type="curve" smooth="yes"/>
      <point x="466" y="468"/>
      <point x="391" y="554"/>
      <point x="246" y="554" type="curve" smooth="yes"/>
      <point x="120" y="554"/>
      <point x="38" y="481"/>
      <point x="38" y="368" type="curve" smooth="yes"/>
      <point x="38" y="268"/>
      <point x="113" y="205"/>
      <point x="230" y="205" type="curve" smooth="yes"/>
      <point x="280" y="205"/>
      <point x="338" y="224"/>
      <point x="384" y="257" type="curve"/>
      <point x="369" y="131"/>
      <point x="301" y="60"/>
      <point x="185" y="60" type="curve" smooth="yes"/>
      <point x="156" y="60"/>
      <point x="131" y="64"/>
      <point x="83" y="73" type="curve"/>
      <point x="74" y="6" type="line"/>
      <point x="119" y="-3"/>
      <point x="154" y="-7"/>
    </contour>
    <contour>
      <point x="247" y="267" type="curve" smooth="yes"/>
      <point x="166" y="267"/>
      <point x="121" y="304"/>
      <point x="121" y="369" type="curve" smooth="yes"/>
      <point x="121" y="442"/>
      <point x="169" y="488"/>
      <point x="246" y="488" type="curve" smooth="yes"/>
      <point x="336" y="488"/>
      <point x="382" y="432"/>
      <point x="384" y="317" type="curve"/>
      <point x="344" y="287"/>
      <point x="291" y="267"/>
    </contour>
  </outline>
</glyph>
<glyph name="one.osf" format="1">
  <advance width="420"/>
  <outline>
    <contour>
      <point x="237" y="0" type="line"/>
      <point x="331" y="0" type="line"/>
      <point x="331" y="584" type="line"/>
      <point x="259" y="584" type="line"/>
      <point x="27" y="455" type="line"/>
      <point x="27" y="451" type="line"/>
      <point x="38" y="393" type="line"/>
      <point x="45" y="393" type="line"/>
      <point x="233" y="477" type="line"/>
      <point x="237" y="477" type="line"/>
    </contour>
  </outline>
</glyph>
<glyph name="one.tf" format="1">
  <advance width="579"/>
  <outline>
    <contour>
      <point x="333" y="0" type="line"/>
      <point x="431" y="0" type="line"/>
      <point x="431" y="740" type="line"/>
      <point x="356" y="740" type="line"/>
      <point x="72" y="611" type="line"/>
      <point x="72" y="607" type="line"/>
      <point x="84" y="549" type="line"/>
      <point x="93" y="549" type="line"/>
      <point x="328" y="633" type="line"/>
      <point x="333" y="633" type="line"/>
    </contour>
  </outline>
</glyph>
<glyph name="one.tosf" format="1">
  <advance width="579"/>
  <outline>
    <contour>
      <point x="340" y="0" type="line"/>
      <point x="439" y="0" type="line"/>
      <point x="439" y="584" type="line"/>
      <point x="363" y="584" type="line"/>
      <point x="80" y="455" type="line"/>
      <point x="80" y="451" type="line"/>
      <point x="92" y="393" type="line"/>
      <point x="101" y="393" type="line"/>
      <point x="335" y="477" type="line"/>
      <point x="340" y="477" type="line"/>
    </contour>
  </outline>
</glyph>
<glyph name="paragraph.tab" format="1">
  <advance width="579"/>
  <outline>
    <contour>
      <point x="380" y="0" type="line"/>
      <point x="330" y="0" type="line"/>
      <point x="330" y="266" type="line"/>
      <point x="308" y="265"/>
      <point x="286" y="265"/>
      <point x="268" y="265" type="curve" smooth="yes"/>
      <point x="117" y="265"/>
      <point x="22" y="326"/>
      <point x="22" y="505" type="curve" smooth="yes"/>
      <point x="22" y="684"/>
      <point x="117" y="745"/>
      <point x="266" y="745" type="curve" smooth="yes"/>
      <point x="302" y="745"/>
      <point x="339" y="741"/>
      <point x="380" y="735" type="curve"/>
    </contour>
    <contour>
      <point x="494" y="0" type="line"/>
      <point x="434" y="0" type="line"/>
      <point x="434" y="735" type="line"/>
      <point x="494" y="735" type="line"/>
    </contour>
  </outline>
</glyph>
<glyph name="parenright.sc" format="1">
  <advance width="308"/>
  <outline>
    <contour>
      <point x="116" y="-125" type="line"/>
      <point x="204" y="-10"/>
      <point x="251" y="132"/>
      <point x="251" y="276" type="curve" smooth="yes"/>
      <point x="251" y="421"/>
      <point x="204" y="562"/>
      <point x="116" y="677" type="curve"/>
      <point x="36" y="677" type="line"/>
      <point x="36" y="674" type="line"/>
      <point x="125" y="560"/>
      <point x="177" y="421"/>
      <point x="177" y="276" type="curve" smooth="yes"/>
      <point x="177" y="131"/>
      <point x="125" y="-8"/>
      <point x="36" y="-122" type="curve"/>
      <point x="36" y="-125" type="line"/>
    </contour>
  </outline>
</glyph>
<glyph name="percent.tab" format="1">
  <advance width="579"/>
  <outline>
    <contour>
      <point x="75" y="283" type="curve" smooth="yes"/>
      <point x="168" y="283"/>
      <point x="219" y="361"/>
      <point x="219" y="514" type="curve" smooth="yes"/>
      <point x="219" y="666"/>
      <point x="168" y="745"/>
      <point x="75" y="745" type="curve" smooth="yes"/>
      <point x="-17" y="745"/>
      <point x="-68" y="666"/>
      <point x="-68" y="514" type="curve" smooth="yes"/>
      <point x="-68" y="361"/>
      <point x="-17" y="283"/>
    </contour>
    <contour>
      <point x="75" y="342" type="curve" smooth="yes"/>
      <point x="18" y="342"/>
      <point x="-9" y="397"/>
      <point x="-9" y="514" type="curve" smooth="yes"/>
      <point x="-9" y="631"/>
      <point x="18" y="686"/>
      <point x="75" y="686" type="curve" smooth="yes"/>
      <point x="131" y="686"/>
      <point x="159" y="631"/>
      <point x="159" y="514" type="curve" smooth="yes"/>
      <point x="159" y="397"/>
      <point x="131" y="342"/>
    </contour>
    <contour>
      <point x="504" y="-4" type="curve" smooth="yes"/>
      <point x="597" y="-4"/>
      <point x="647" y="74"/>
      <point x="647" y="227" type="curve" smooth="yes"/>
      <point x="647" y="379"/>
      <point x="597" y="457"/>
      <point x="504" y="457" type="curve" smooth="yes"/>
      <point x="411" y="457"/>
      <point x="360" y="379"/>
      <point x="360" y="227" type="curve" smooth="yes"/>
      <point x="360" y="74"/>
      <point x="411" y="-4"/>
    </contour>
    <contour>
      <point x="504" y="54" type="curve" smooth="yes"/>
      <point x="447" y="54"/>
      <point x="420" y="109"/>
      <point x="420" y="227" type="curve" smooth="yes"/>
      <point x="420" y="344"/>
      <point x="447" y="399"/>
      <point x="504" y="399" type="curve" smooth="yes"/>
      <point x="560" y="399"/>
      <point x="588" y="344"/>
      <point x="588" y="227" type="curve" smooth="yes"/>
      <point x="588" y="109"/>
      <point x="560" y="54"/>
    </contour>
    <contour>
      <point x="114" y="0" type="line"/>
      <point x="189" y="0" type="line"/>
      <point x="465" y="740" type="line"/>
      <point x="391" y="740" type="line"/>
    </contour>
  </outline>
</glyph>
<glyph name="period.tab" format="1">
  <advance width="290"/>
  <outline>
    <contour>
      <point x="144" y="-4" type="curve" smooth="yes"/>
      <point x="180" y="-4"/>
      <point x="206" y="16"/>
      <point x="206" y="53" type="curve" smooth="yes"/>
      <point x="206" y="90"/>
      <point x="180" y="109"/>
      <point x="144" y="109" type="curve" smooth="yes"/>
      <point x="107" y="109"/>
      <point x="83" y="91"/>
      <point x="83" y="53" type="curve" smooth="yes"/>
      <point x="83" y="16"/>
      <point x="107" y="-4"/>
    </contour>
  </outline>
</glyph>
<glyph name="periodcentered.tab" format="1">
  <advance width="290"/>
  <outline>
    <contour>
      <point x="97" y="370" type="move" name="_periodcentered"/>
    </contour>
    <contour>
      <point x="144" y="312" type="curve" smooth="yes"/>
      <point x="183" y="312"/>
      <point x="205" y="330"/>
      <point x="205" y="370" type="curve" smooth="yes"/>
      <point x="205" y="411"/>
      <point x="183" y="429"/>
      <point x="144" y="429" type="curve" smooth="yes"/>
      <point x="104" y="429"/>
      <point x="83" y="411"/>
      <point x="83" y="370" type="curve" smooth="yes"/>
      <point x="83" y="329"/>
      <point x="104" y="312"/>
    </contour>
  </outline>
</glyph>
